<?xml version="1.0" encoding="utf-8"?>
<!-- Generator: Adobe Illustrator 19.2.1, SVG Export Plug-In . SVG Version: 6.00 Build 0)  -->
<svg version="1.1" id="Layer_1" xmlns="http://www.w3.org/2000/svg" xmlns:xlink="http://www.w3.org/1999/xlink" x="0px" y="0px"
	 viewBox="0 0 123 121" style="enable-background:new 0 0 123 121;" xml:space="preserve">
<style type="text/css">
	.st0{fill:#727272;}
</style>
<g>
	<path class="st0" d="M60.6,4.4C30.7,4.4,6.4,28.7,6.4,58.6s24.3,54.2,54.2,54.2s54.2-24.3,54.2-54.2S90.5,4.4,60.6,4.4z M74.2,78.1
		c-0.9-0.6-2-0.9-3.1-0.9c-3.1,0-5.6,2.5-5.6,5.5c0,1.2,0.3,2.3,1,3.2c-2.1,1.4-4.5,2.4-7,3.1c-0.4-2.7-2.7-4.7-5.5-4.7
		c-3,0-5.4,2.3-5.6,5.1c-2.7-0.5-5.3-1.4-7.6-2.7c1.1-1,1.7-2.4,1.7-3.9c0-3-2.5-5.5-5.6-5.5c-1.7,0-3.3,0.7-4.3,1.9
		c-1.7-2.4-2.9-5.1-3.6-8c0.1,0,0.2,0,0.3,0c3.1,0,5.6-2.5,5.6-5.5s-2.5-5.5-5.6-5.5c-0.1,0-0.2,0-0.3,0c0.7-3,2-5.8,3.8-8.3
		c1,1.1,2.4,1.7,4,1.7c3.1,0,5.6-2.5,5.6-5.5c0-1.3-0.5-2.5-1.3-3.5c2.2-1.2,4.7-2.1,7.3-2.6c0.5,2.6,2.8,4.5,5.5,4.5
		c2.6,0,4.8-1.8,5.4-4.1c2.5,0.6,4.8,1.6,6.9,2.9c-0.5,0.8-0.8,1.8-0.8,2.8c0,3,2.5,5.5,5.6,5.5c1,0,2-0.3,2.8-0.8
		c1.5,2.2,2.6,4.7,3.2,7.4c-2.8,0.4-5,2.7-5,5.5c0,2.8,2.1,5.1,5.1,5.4C76.5,73.6,75.5,76,74.2,78.1z M90.7,42c-0.5,0-1.1,0-1.7,0.3
		c-1.5,0.7-2.2,2.4-1.5,3.9c0.2,0.6,0.7,1,1.2,1.3c-0.7,1.2-1.6,2.2-2.7,3.1c-0.8-1.2-2.3-1.6-3.7-1c-1.5,0.7-2.1,2.3-1.6,3.7
		c-1.4,0.4-2.9,0.5-4.3,0.4c0.3-0.7,0.2-1.6-0.1-2.3c-0.7-1.5-2.5-2.1-4-1.4c-0.8,0.4-1.4,1.1-1.6,1.9c-1.3-0.8-2.5-1.9-3.5-3.1
		c0.1-0.1,0.1-0.1,0.2-0.1c1.5-0.7,2.2-2.4,1.5-3.9c-0.7-1.5-2.5-2.1-4-1.4c-0.1,0-0.1,0.1-0.2,0.1c-0.4-1.6-0.4-3.3-0.1-4.9
		c0.7,0.3,1.5,0.3,2.3-0.1c1.5-0.7,2.2-2.4,1.5-3.9c-0.3-0.6-0.8-1.1-1.4-1.4c0.9-1.1,1.8-2.1,3-2.9c0.8,1.1,2.4,1.5,3.7,0.9
		c1.3-0.6,1.9-1.9,1.7-3.2c1.3-0.2,2.7-0.3,4-0.1c0,0.5,0.1,1,0.3,1.5c0.7,1.5,2.5,2.1,4,1.4c0.5-0.2,0.9-0.6,1.2-1
		c1.2,0.8,2.3,1.7,3.2,2.9c-1.3,0.8-1.8,2.4-1.2,3.8c0.7,1.3,2.2,2,3.6,1.4C90.8,39.3,90.9,40.7,90.7,42z"/>
	<path class="st0" d="M75.8,36.3c-2.4,1.1-3.5,4-2.4,6.3c1.1,2.3,4,3.3,6.4,2.2c2.5-1.1,3.5-4,2.4-6.3S78.2,35.2,75.8,36.3z"/>
	<path class="st0" d="M53.4,56.6c-5,0-9,3.9-9,8.8c0,4.9,4,8.8,9,8.8s9-3.9,9-8.8C62.4,60.5,58.4,56.6,53.4,56.6z"/>
</g>
</svg>
