<?xml version="1.0" encoding="UTF-8"?>
<!DOCTYPE svg PUBLIC "-//W3C//DTD SVG 1.1//EN" "http://www.w3.org/Graphics/SVG/1.1/DTD/svg11.dtd">
<!-- Creator: CorelDRAW -->
<svg xmlns="http://www.w3.org/2000/svg" xml:space="preserve" width="23" height="15" style="shape-rendering:geometricPrecision; text-rendering:geometricPrecision; image-rendering:optimizeQuality; fill-rule:evenodd; clip-rule:evenodd"
viewBox="0 0 23.8124 15.875"
 xmlns:xlink="http://www.w3.org/1999/xlink">
 <defs>
  <style type="text/css">
   <![CDATA[
    .fil2 {fill:#003399}
    .fil1 {fill:#F5F7FA}
    .fil0 {fill:#FF3636}
   ]]>
  </style>
 </defs>
 <g id="Layer_x0020_1">
  <metadata id="CorelCorpID_0Corel-Layer"/>
  <g id="_31578040">
   <g>
    <path id="_31578472" class="fil0" d="M23.7993 7.9375l0 5.6199c0,1.3039 -1.0667,2.3706 -2.3706,2.3706l-19.045 0c-1.3039,0 -2.3706,-1.0667 -2.3706,-2.3706l0 -5.6199 23.7862 0z"/>
    <path id="_31578232" class="fil1" d="M23.7993 7.9375l0 -5.6199c0,-1.3039 -1.0667,-2.3706 -2.3706,-2.3706l-19.045 0c-1.3039,0 -2.3706,1.0667 -2.3706,2.3706l0 5.6199 23.7862 0z"/>
   </g>
   <path id="_31578016" class="fil2" d="M0.8216 15.3366c-0.4948,-0.4353 -0.8085,-1.0723 -0.8085,-1.7792l0 -11.2398c0,-0.7068 0.3136,-1.3438 0.8084,-1.7791l7.983 7.3991 -7.9829 7.399z"/>
  </g>
 </g>
</svg>
