<?xml version="1.0" encoding="UTF-8"?>
<!DOCTYPE svg PUBLIC "-//W3C//DTD SVG 1.1//EN" "http://www.w3.org/Graphics/SVG/1.1/DTD/svg11.dtd">
<!-- Creator: CorelDRAW -->
<svg xmlns="http://www.w3.org/2000/svg" xml:space="preserve" width="23" height="15" style="shape-rendering:geometricPrecision; text-rendering:geometricPrecision; image-rendering:optimizeQuality; fill-rule:evenodd; clip-rule:evenodd"
viewBox="0 0 23.8124 15.875"
 xmlns:xlink="http://www.w3.org/1999/xlink">
 <defs>
  <style type="text/css">
   <![CDATA[
    .fil2 {fill:#003399}
    .fil1 {fill:#F5F7FA}
    .fil0 {fill:#FF3636}
   ]]>
  </style>
 </defs>
 <g id="Layer_x0020_1">
  <metadata id="CorelCorpID_0Corel-Layer"/>
  <g id="_240267632">
   <rect id="_240268016" class="fil0" x="-5.24517e-005" y="-0.0618503" width="23.8125" height="15.9987" rx="2.3733" ry="2.3733"/>
   <path id="_240267848" class="fil1" d="M2.3733 -0.0618l8.2199 0 0 6.6863 -10.5932 0 0 -4.313c0,-0.4501 0.1269,-0.8719 0.3468,-1.2315l7.3968 4.7546 1.782 0 -8.5075 -5.4685c0.3849,-0.2694 0.8524,-0.4279 1.3552,-0.4279zm10.8459 0l8.2199 0c0.5028,0 0.9703,0.1585 1.3552,0.4279l-8.5075 5.4685 1.782 0 7.3968 -4.7546c0.2199,0.3596 0.3468,0.7814 0.3468,1.2315l0 4.313 -10.5932 0 0 -6.6863zm10.5932 9.3124l0 4.3129c0,0.4501 -0.1269,0.8719 -0.3468,1.2315l-7.3969 -4.7547 -1.782 0 8.5076 5.4686c-0.3849,0.2694 -0.8524,0.4279 -1.3552,0.4279l-8.2199 0 0 -6.6862 10.5932 0zm-13.2192 6.6862l-8.2199 0c-0.5028,0 -0.9703,-0.1585 -1.3552,-0.4279l8.5076 -5.4686 -1.782 0 -7.3969 4.7547c-0.2199,-0.3596 -0.3468,-0.7814 -0.3468,-1.2315l0 -4.3129 10.5932 0 0 6.6862z"/>
   <path id="_240267680" class="fil2" d="M2.3733 -0.0618l7.4301 0 0 5.5048 -8.3035 -5.3373c0.2706,-0.108 0.5654,-0.1675 0.8734,-0.1675zm11.6358 0l7.43 0c0.308,0 0.6028,0.0595 0.8734,0.1675l-8.3034 5.3372 0 -5.5047zm9.6652 1.5778c0.0893,0.249 0.1381,0.5168 0.1381,0.7955l0 3.5231 -6.8566 0 6.7185 -4.3186zm0.1381 8.5243l0 3.5232c0,0.2787 -0.0488,0.5465 -0.1381,0.7955l-6.7187 -4.3187 6.8568 0zm-1.4998 5.729c-0.2707,0.108 -0.5655,0.1675 -0.8735,0.1675l-7.43 0 0 -5.5048 8.3035 5.3373zm-12.5092 0.1675l-7.4301 0c-0.308,0 -0.6028,-0.0595 -0.8735,-0.1675l8.3036 -5.3373 0 5.5048zm-9.6653 -1.5778c-0.0893,-0.249 -0.1381,-0.5168 -0.1381,-0.7955l0 -3.5232 6.8568 0 -6.7187 4.3187zm-0.1381 -8.5244l0 -3.5231c0,-0.2787 0.0488,-0.5465 0.1381,-0.7955l6.7185 4.3186 -6.8566 0z"/>
  </g>
 </g>
</svg>
