<svg xmlns="http://www.w3.org/2000/svg" xml:space="preserve" width="158" height="82" viewBox="0 0 158.75 82.02" style="fill-rule:evenodd;image-rendering:optimizeQuality;shape-rendering:geometricPrecision;text-rendering:geometricPrecision"><defs><style type="text/css">
    .fil0 {fill:#CCB92D}
    .fil1 {fill:#FFDF1B}
   </style></defs><path class="fil0" d="M137.54 58.42c0.47-1.18 0.93-2.37 1.4-3.55 3.06 2.46 6.99 1.94 7.03 0.18 0.05-1.98-7.58-1.7-4.04-7.13 2.97-4.55 9.39-3.26 11.21-2.94-0.02 0.45-1.42 1.77-2.29 1.91-1.73 0.29-3.68-0.59-4.32 0.75-1.44 3.01 6.37 1.44 4.85 6.2-1.59 4.95-7.83 6.24-13.84 4.58zm-64.32-13.48l4.91 0c0.71 0 1.08 0.59 0.82 1.31l-3.77 10.53 5.92 0c-0.65 1.73-1.81 2.89-4.02 2.89l-6.89 0c-0.72 0-1.1-0.6-0.84-1.34l3.96-11.07c0.37-1.01 0.32-1.88-0.11-2.32zm-22.51 6.74l0 0 6.97-8.24 3.99 0c1.05 0.01 1.44 0.52 1.05 1.66l-5.22 14.59-4.26 0c-1.04 0-1.42-0.5-1.03-1.61l2.22-6.13-0.38 0-5.16 6.11-3.15 0-0.51-6.15-0.47 0-2.92 7.88-2.63 0c-0.72 0-1.1-0.59-0.85-1.32l4.57-12.77c0.36-0.99 0.31-1.85-0.12-2.28l6.25 0c0.71 0 1.06 0.68 1.11 1.33l0.54 6.92zm72.89-6.92l3.58 0c0.86 0 1.39 0.39 1.63 1.14l3.13 6.64-0.01 0.02 0.23 0.44 2.95-8.24 2.82 0c0.7 0 1.06 0.59 0.81 1.32l-4.06 11.34c-0.36 0.99-0.32 1.85 0.09 2.28l-3.58 0c-0.86 0-1.39-0.39-1.63-1.14l-3.13-6.64 0.01-0.02-0.23-0.44-2.95 8.24-2.82 0c-0.7 0-1.06-0.59-0.81-1.32l4.06-11.34c0.36-0.99 0.32-1.85-0.09-2.28zm-8.91 2.35c1.15 0 1.29 2.22 0.31 4.97-0.98 2.74-2.71 4.97-3.87 4.97-1.15 0-1.29-2.22-0.31-4.97 0.98-2.74 2.71-4.97 3.87-4.97zm0.97-2.72c4.08 0 6.16 3.44 4.64 7.68-1.52 4.24-6.06 7.68-10.14 7.68-4.08 0-6.16-3.44-4.64-7.68 1.52-4.24 6.06-7.68 10.14-7.68zm-17.5 4.75l4.91 0c0.71 0 1.08 0.59 0.82 1.31l-3.3 9.23-3.95 0c-0.72 0-1.1-0.6-0.84-1.34l2.46-6.87c0.37-1.01 0.32-1.89-0.11-2.33zm2.21-2.7c0.06-0.53 0.13-1.05 0.19-1.58 0.89 0 1.77 0 2.66 0 0.94-0.02 1.31 0.38 1.22 1.12-0.05 0.53-0.1 1.06-0.15 1.59-0.94 0-1.88 0-2.83 0-0.73 0-1.15-0.37-1.09-1.12zm-36.39 2.72l4.92 0c0.71 0 1.08 0.59 0.82 1.32l-3.31 9.26-3.95 0c-0.72 0-1.1-0.61-0.83-1.35l2.47-6.89c0.37-1.02 0.32-1.89-0.1-2.34zm2.21-2.71c0.06-0.53 0.13-1.06 0.19-1.58 0.89 0 1.77 0 2.66 0 0.94-0.02 1.31 0.38 1.22 1.12-0.05 0.53-0.1 1.06-0.15 1.59-0.94 0-1.88 0-2.83 0-0.73 0-1.15-0.37-1.09-1.13zm20.26-1.51l4.91 0c0.71 0 1.08 0.59 0.82 1.31l-3.77 10.53 5.92 0c-0.65 1.73-1.81 2.89-4.02 2.89l-6.89 0c-0.72 0-1.1-0.6-0.84-1.34l3.96-11.07c0.37-1.01 0.32-1.88-0.11-2.32zm2.76-13.43c-0.64 1.76-1.91 2.03-3.57 1.87 0.43-1.19 0.85-2.38 1.28-3.56 2.03-0.13 2.75 0.39 2.29 1.69zm-2.63-4.36c1.59 0 2.42 0 4 0 2.02 0.03 4.61 1.23 4.12 3.45-0.53 2.42-2.71 4.08-4.16 4.4 0.58 2.3 1.17 4.6 1.75 6.9-1.46 0-2.93 0-4.39 0-1.02 0.01-1.42-0.78-1.6-1.43-0.33-1.39-0.66-2.78-0.98-4.18-0.04-0.17-0.26-0.24-0.63-0.24l-2.09 5.84-3.95 0c-0.72 0-1.09-0.62-0.82-1.38l3.92-10.96c0.38-1.05 0.34-1.95-0.08-2.4 1.64 0 3.28 0 4.92 0zm-21.65 0.03l4.91 0c0.71 0 1.07 0.62 0.79 1.38l-2.75 7.68c-0.51 1.44-0.95 3.07 0.96 3.04 2.03-0.04 2.5-1.6 3-3.05l3.27-9.05 3.49 0c0.63 0 0.92 0.62 0.65 1.38l-2.97 8.3-0.04 0.11 0 0c-1.08 2.95-3.89 4.93-8.25 4.93-4.91 0-6.8-1.68-5.62-4.98 0.01-0.02 0.01-0.04 0.02-0.05l2.59-7.24c0.39-1.07 0.35-1.99-0.06-2.45zm-12.41-1.32l2.26 0 8.21 0-0.15 0.41c-0.52 1.44-2.12 2.63-3.57 2.63l-4.3 0-0.98 2.73-0.32 0.9 5.28 0-0.99 2.77-5.28 0-0.32 0.9-0.98 2.73 6.93 0-0.15 0.41c-0.52 1.44-2.12 2.63-3.57 2.63l-5.59 0-2.26 0-2.66 0c0.74-0.43 1.41-1.29 1.76-2.28l1.72-4.8 0.69-1.94 1.72-4.8c0.36-0.99 0.31-1.85-0.12-2.28l2.66 0zm52.26 3.45c1.15 0 1.29 2.22 0.31 4.97-0.98 2.74-2.71 4.97-3.87 4.97-1.15 0-1.29-2.22-0.31-4.97 0.98-2.74 2.71-4.97 3.87-4.97zm0.97-2.72c4.08 0 6.16 3.44 4.64 7.68-1.52 4.24-6.06 7.68-10.14 7.68-4.08 0-6.16-3.44-4.64-7.68 1.52-4.24 6.06-7.68 10.14-7.68zm-85.23 22.06c2.9 4.44 4.29 8.92 4.23 13.43 4.22-6.69 6.62-12.77 7.42-18.31 3.05-1.28 6.1-2.56 9.14-3.84-3.03-0.8-6-1.51-8.91-2.13-0.44-6.27-3.13-11.8-7.66-16.71 0.4 5.03-0.41 9.98-2.56 14.86-5.66-0.84-11.07-1.32-16.28-1.51 4.61 3.26 8.35 6.53 11.25 9.83-2.6 3.36-5.89 6.67-9.91 9.94 4.42-1.85 8.85-3.71 13.27-5.56z"/><path class="fil1" d="M137.23 57.28c0.47-1.18 0.93-2.37 1.4-3.55 3.06 2.46 6.99 1.94 7.03 0.18 0.05-1.98-7.58-1.7-4.04-7.13 2.97-4.55 9.39-3.26 11.21-2.94-0.02 0.45-1.42 1.77-2.29 1.91-1.73 0.29-3.68-0.59-4.32 0.75-1.44 3.01 6.37 1.44 4.85 6.2-1.59 4.95-7.83 6.24-13.84 4.58zm-64.32-13.48l4.91 0c0.71 0 1.08 0.59 0.82 1.31l-3.77 10.53 5.92 0c-0.65 1.73-1.81 2.89-4.02 2.89l-6.89 0c-0.72 0-1.1-0.6-0.84-1.34l3.96-11.07c0.37-1.01 0.32-1.88-0.11-2.32zm-22.51 6.74l0 0 6.97-8.24 3.99 0c1.05 0.01 1.44 0.52 1.05 1.66l-5.22 14.59-4.26 0c-1.04 0-1.42-0.5-1.03-1.61l2.22-6.13-0.38 0-5.16 6.11-3.15 0-0.51-6.15-0.47 0-2.92 7.88-2.63 0c-0.72 0-1.1-0.59-0.85-1.32l4.57-12.77c0.36-0.99 0.31-1.85-0.12-2.28l6.25 0c0.71 0 1.06 0.68 1.11 1.33l0.54 6.92zm72.89-6.92l3.58 0c0.86 0 1.39 0.39 1.63 1.14l3.13 6.64-0.01 0.02 0.23 0.44 2.95-8.24 2.82 0c0.7 0 1.06 0.59 0.81 1.32l-4.06 11.34c-0.36 0.99-0.32 1.85 0.09 2.28l-3.58 0c-0.86 0-1.39-0.39-1.63-1.14l-3.13-6.64 0.01-0.02-0.23-0.44-2.95 8.24-2.82 0c-0.7 0-1.06-0.59-0.81-1.32l4.06-11.34c0.36-0.99 0.32-1.85-0.09-2.28zm-8.91 2.35c1.15 0 1.29 2.22 0.31 4.97-0.98 2.74-2.71 4.97-3.87 4.97-1.15 0-1.29-2.22-0.31-4.97 0.98-2.74 2.71-4.97 3.87-4.97zm0.97-2.72c4.08 0 6.16 3.44 4.64 7.68-1.52 4.24-6.06 7.68-10.14 7.68-4.08 0-6.16-3.44-4.64-7.68 1.52-4.24 6.06-7.68 10.14-7.68zm-17.5 4.75l4.92 0c0.71 0 1.08 0.59 0.82 1.31l-3.3 9.23-3.95 0c-0.72 0-1.1-0.6-0.84-1.34l2.46-6.87c0.37-1.01 0.32-1.89-0.11-2.33zm2.21-2.7c0.06-0.53 0.13-1.05 0.19-1.58 0.89 0 1.77 0 2.66 0 0.94-0.02 1.31 0.38 1.22 1.12-0.05 0.53-0.1 1.06-0.15 1.59-0.94 0-1.88 0-2.83 0-0.73 0-1.15-0.37-1.09-1.12zm-36.39 2.72l4.91 0c0.71 0 1.08 0.59 0.82 1.32l-3.31 9.26-3.95 0c-0.72 0-1.1-0.61-0.83-1.35l2.47-6.89c0.37-1.02 0.32-1.89-0.1-2.34zm2.21-2.71c0.06-0.53 0.13-1.06 0.19-1.58 0.89 0 1.77 0 2.66 0 0.94-0.02 1.31 0.38 1.22 1.12-0.05 0.53-0.1 1.06-0.15 1.59-0.94 0-1.88 0-2.83 0-0.73 0-1.15-0.37-1.09-1.13zm20.26-1.51l4.91 0c0.71 0 1.08 0.59 0.82 1.31l-3.77 10.53 5.92 0c-0.65 1.73-1.81 2.89-4.02 2.89l-6.89 0c-0.72 0-1.1-0.6-0.84-1.34l3.96-11.07c0.37-1.01 0.32-1.88-0.11-2.32zm2.76-13.43c-0.64 1.76-1.91 2.03-3.57 1.87 0.43-1.19 0.85-2.38 1.28-3.56 2.03-0.12 2.75 0.39 2.29 1.69zm-2.63-4.36c1.59 0 2.42 0 4 0 2.02 0.03 4.61 1.23 4.12 3.45-0.53 2.42-2.71 4.08-4.16 4.4 0.58 2.3 1.17 4.6 1.75 6.9-1.46 0-2.93 0-4.39 0-1.02 0.01-1.42-0.78-1.6-1.43-0.33-1.39-0.66-2.78-0.98-4.18-0.04-0.17-0.26-0.24-0.63-0.24l-2.09 5.84-3.95 0c-0.72 0-1.09-0.62-0.82-1.38l3.92-10.96c0.38-1.05 0.34-1.95-0.08-2.4 1.64 0 3.28 0 4.91 0zm-21.65 0.03l4.91 0c0.71 0 1.07 0.62 0.79 1.38l-2.75 7.68c-0.51 1.44-0.95 3.07 0.96 3.04 2.03-0.04 2.5-1.6 3-3.05l3.27-9.05 3.49 0c0.63 0 0.92 0.62 0.65 1.38l-2.97 8.3-0.04 0.11 0 0c-1.08 2.95-3.89 4.93-8.25 4.93-4.91 0-6.8-1.68-5.62-4.98 0.01-0.02 0.01-0.04 0.02-0.05l2.59-7.24c0.39-1.07 0.35-1.99-0.06-2.45zm-12.41-1.32l2.26 0 8.21 0-0.15 0.41c-0.52 1.44-2.12 2.63-3.57 2.63l-4.3 0-0.98 2.73-0.32 0.9 5.28 0-0.99 2.77-5.28 0-0.32 0.9-0.98 2.73 6.93 0-0.15 0.41c-0.52 1.44-2.12 2.63-3.57 2.63l-5.59 0-2.26 0-2.66 0c0.74-0.43 1.41-1.29 1.76-2.28l1.72-4.8 0.69-1.94 1.72-4.8c0.36-0.99 0.31-1.85-0.12-2.28l2.66 0zm52.26 3.45c1.15 0 1.29 2.22 0.31 4.97-0.98 2.74-2.71 4.97-3.87 4.97-1.15 0-1.29-2.22-0.31-4.97 0.98-2.74 2.71-4.97 3.87-4.97zm0.97-2.72c4.08 0 6.16 3.44 4.64 7.68-1.52 4.24-6.06 7.68-10.14 7.68-4.08 0-6.16-3.44-4.64-7.68 1.52-4.24 6.06-7.68 10.14-7.68zm-85.23 22.06c2.9 4.44 4.29 8.92 4.23 13.43 4.22-6.69 6.62-12.77 7.42-18.31 3.05-1.28 6.1-2.56 9.14-3.84-3.03-0.8-6-1.51-8.91-2.13-0.44-6.27-3.13-11.8-7.66-16.71 0.4 5.03-0.41 9.98-2.56 14.86-5.66-0.84-11.07-1.32-16.28-1.51 4.61 3.26 8.35 6.53 11.25 9.83-2.6 3.36-5.89 6.67-9.91 9.94 4.42-1.85 8.85-3.71 13.27-5.56z"/></svg>