<?xml version="1.0" encoding="utf-8"?>
<!-- Generator: Adobe Illustrator 19.2.1, SVG Export Plug-In . SVG Version: 6.00 Build 0)  -->
<svg version="1.1" id="Layer_1" xmlns="http://www.w3.org/2000/svg" xmlns:xlink="http://www.w3.org/1999/xlink" x="0px" y="0px"
	 viewBox="0 0 122 124" style="enable-background:new 0 0 122 124;" xml:space="preserve">
<style type="text/css">
	.st0{fill:#727272;}
</style>
<g>
	<path class="st0" d="M65.9,47.3l-5.2,5.4l-5.1-5.5c0,0-3.9-0.9-2.8,2.1l6.2,6.2v18.6h3V55.5l5.8-5.9C67.8,49.6,69.2,46.9,65.9,47.3
		z"/>
	<path class="st0" d="M60.6,6.4C30.7,6.4,6.4,30.7,6.4,60.6s24.3,54.2,54.2,54.2s54.2-24.3,54.2-54.2S90.5,6.4,60.6,6.4z M61.5,92.3
		c-1.5,0-3.3,0.5-3.5-2.9h5.1C63.1,89.4,63,92.3,61.5,92.3z M67.9,87.2c0,0-12.4,0.2-15.2,0s-1.6-5.8-1.6-5.8h18.3
		C70.3,87.4,67.9,87.2,67.9,87.2z M69.3,67.1l-0.1,10.4H61h-1.3h-8.2l-0.1-10.4c0,0-9.9-11-10.5-18.8c-0.5-20.2,19.3-20.7,19.5-20.7
		s20,0.5,19.4,20.7C79.2,56.1,69.3,67.1,69.3,67.1z"/>
</g>
</svg>
