<svg xmlns="http://www.w3.org/2000/svg" xml:space="preserve" width="158" height="82" viewBox="0 0 158.8 82" style="fill-rule:evenodd;image-rendering:optimizeQuality;shape-rendering:geometricPrecision;text-rendering:geometricPrecision"><defs><style type="text/css">
    .fil0 {fill:#E3051A}
   </style></defs><path class="fil0" d="M65.8 16.6l6.6 0 0 15.8 7.1 0-0.9 6.5-12.8 0 0-22.3zm51.2 0l-0.9 6.5-3.4 0 0 15.8-6.6 0 0-15.8-4.3 0 0.9-6.5c4.8 0 9.6 0 14.3 0zm15.1 0l-0.9 6.5-3.4 0 0 15.8-6.6 0 0-15.8-4.3 0 0.9-6.5c4.8 0 9.6 0 14.3 0zm9.9 6.4c2.6 0 4.8 2.1 4.8 4.8 0 2.6-2.1 4.8-4.8 4.8-2.6 0-4.8-2.1-4.8-4.8 0-2.6 2.1-4.8 4.8-4.8zm0-6.6c6.3 0 11.4 5.1 11.4 11.4 0 6.3-5.1 11.4-11.4 11.4-6.3 0-11.4-5.1-11.4-11.4 0-6.3 5.1-11.4 11.4-11.4zm-51.5 6.6c2.6 0 4.8 2.1 4.8 4.8 0 2.6-2.1 4.8-4.8 4.8-2.6 0-4.8-2.1-4.8-4.8 0-2.6 2.1-4.8 4.8-4.8zm0-6.6c6.3 0 11.4 5.1 11.4 11.4 0 6.3-5.1 11.4-11.4 11.4-6.3 0-11.4-5.1-11.4-11.4 0-6.3 5.1-11.4 11.4-11.4zm-15.9 43.8c-1.5 0.3-2.6-0.8-3-2.5-0.2-0.8 0.1-1.9 0.8-2.3 0.5-0.3 1-0.5 1.6-0.5 1.6 0 2.9 1.2 2.9 2.7 0 1.3-1 2.4-2.2 2.6zm-1.3-10.2c1.4-2.1 3.7-4 7-5l-1.5-4c-8 2.6-13 7.6-13 16.3 0 4.1 3.6 7.3 8.1 7.3 4.5 0 8.1-3.3 8.1-7.3 0-4.1-3.6-7.3-8.1-7.3-0.2 0-0.5 0-0.7 0zm18.4 4.9c-0.2 0-0.5-0.1-0.8-0.1-0.3 0-0.6 0-0.8 0-0.9 0-1.6 0.2-2 0.5-0.5 0.3-0.7 0.8-0.7 1.5 0 0.4 0.1 0.8 0.2 1 0.2 0.2 0.4 0.4 0.6 0.6 0.2 0.1 0.5 0.2 0.8 0.2 0.3 0 0.6 0 0.8 0 0.3 0 0.7 0 1-0.1 0.4 0 0.7-0.1 0.9-0.2l0-3.5zm0-2.1c0-0.9-0.2-1.4-0.6-1.8-0.4-0.3-1.1-0.5-1.9-0.5-0.5 0-1 0-1.4 0.1-0.4 0.1-0.9 0.2-1.3 0.3-0.3-0.5-0.4-1-0.4-1.7 0.5-0.2 1-0.3 1.6-0.4 0.6-0.1 1.2-0.1 1.7-0.1 1.4 0 2.5 0.3 3.3 1 0.7 0.7 1.1 1.7 1.1 3.1l0 6.9c-0.5 0.1-1.1 0.2-1.8 0.4-0.7 0.1-1.5 0.2-2.2 0.2-0.7 0-1.3-0.1-1.9-0.2-0.6-0.1-1.1-0.3-1.4-0.6-0.4-0.3-0.7-0.7-0.9-1.1-0.2-0.4-0.3-1-0.3-1.6 0-0.6 0.1-1.2 0.4-1.6 0.3-0.5 0.6-0.9 1-1.2 0.4-0.3 0.9-0.5 1.5-0.7 0.6-0.2 1.2-0.2 1.8-0.2 0.5 0 0.8 0 1.1 0 0.3 0 0.5 0 0.7 0.1l0-0.4zm5.2-3.8c0.2 0 0.3-0.1 0.5-0.1 0.2 0 0.4 0 0.5 0 0.2 0 0.3 0 0.5 0 0.2 0 0.4 0 0.5 0.1l0 6.1c0 0.7 0.1 1.3 0.2 1.7 0.1 0.5 0.3 0.8 0.6 1.1 0.3 0.3 0.6 0.4 1 0.5 0.4 0.1 0.8 0.2 1.3 0.2 0.7 0 1.4-0.1 1.9-0.2l0-9.3c0.2 0 0.3-0.1 0.5-0.1 0.2 0 0.4 0 0.5 0 0.2 0 0.3 0 0.5 0 0.2 0 0.4 0 0.5 0.1l0 10.7c-0.5 0.1-1.1 0.3-1.8 0.4-0.7 0.1-1.4 0.2-2.2 0.2-0.7 0-1.4-0.1-2-0.2-0.6-0.1-1.2-0.4-1.7-0.7-0.5-0.4-0.9-0.9-1.1-1.6-0.3-0.7-0.4-1.6-0.4-2.7l0-6.2zm12.3 9.1c0.4 0.2 0.8 0.3 1.3 0.4 0.5 0.1 0.9 0.1 1.4 0.1 0.3 0 0.6 0 1-0.1 0.3-0.1 0.6-0.2 0.8-0.3 0.2-0.1 0.4-0.3 0.5-0.5 0.1-0.2 0.2-0.4 0.2-0.7 0-0.3-0.1-0.5-0.2-0.7-0.1-0.2-0.3-0.3-0.4-0.5-0.2-0.1-0.4-0.2-0.6-0.3-0.2-0.1-0.5-0.2-0.8-0.3l-0.8-0.3c-0.9-0.3-1.6-0.7-2-1.2-0.4-0.4-0.6-1-0.6-1.8 0-1 0.3-1.8 1-2.3 0.7-0.6 1.7-0.9 3.1-0.9 0.6 0 1.1 0.1 1.7 0.2 0.5 0.1 1 0.2 1.4 0.4 0 0.3-0.1 0.6-0.2 0.9-0.1 0.3-0.2 0.6-0.3 0.8-0.3-0.1-0.7-0.2-1.1-0.3-0.4-0.1-0.9-0.2-1.4-0.2-0.5 0-1 0.1-1.4 0.3-0.4 0.2-0.6 0.5-0.6 1 0 0.2 0.1 0.5 0.2 0.6 0.1 0.2 0.2 0.3 0.4 0.4 0.2 0.1 0.4 0.2 0.6 0.3 0.2 0.1 0.5 0.2 0.7 0.3l1 0.3c0.3 0.1 0.7 0.3 1 0.4 0.3 0.2 0.6 0.4 0.8 0.6 0.2 0.2 0.4 0.5 0.5 0.9 0.1 0.3 0.2 0.7 0.2 1.2 0 0.5-0.1 1-0.3 1.5-0.2 0.4-0.5 0.8-0.9 1.1-0.4 0.3-0.9 0.6-1.4 0.7-0.6 0.2-1.2 0.3-1.9 0.3-0.7 0-1.3 0-1.8-0.1-0.5-0.1-1-0.2-1.4-0.4 0-0.3 0.1-0.6 0.2-0.9 0.1-0.3 0.2-0.6 0.3-0.9zm35.7-11.6c1.5-0.3 2.6 0.8 3 2.5 0.2 0.8-0.1 1.9-0.8 2.3-0.5 0.3-1 0.5-1.6 0.5-1.6 0-2.9-1.2-2.9-2.7 0-1.3 1-2.4 2.2-2.6zm1.3 10.2c-1.4 2.1-3.7 4-7 5l1.5 4c8-2.6 13-7.6 13-16.3 0-4.1-3.6-7.3-8.1-7.3-4.5 0-8.1 3.3-8.1 7.3 0 4.1 3.6 7.3 8.1 7.3 0.2 0 0.5 0 0.7 0zm-17.1 8.4l5.3-0.8 0-5.3 1.8 0 0-4.7-1.8 0 0-7.3-5.3 0.8 0 6.5-3.9 0c1.8-4 3.6-8.1 5.4-12.2l-5.4 0c-1.8 4.1-3.6 8.1-5.4 12.2l0 4.7 9.3 0 0 6.1zm-91.7-26.8c-35.3-5.3-17.3-16.7-11.5-20.6 4.9-3.3 26.1-12.9 11.5 20.6zm1.8 0.3c11.3-19.3 18.8-15.8 20.1-11.6 2.3 7.9-1.7 12.3-20.1 11.6zm-1.1 2.1c-8 24.9 4 17 8.4 14.1 3.3-2.2 16.5-10.3-8.4-14.1zm-2.3-0.7c-23.6-2.3-31-0.3-30.7 10.4 0.4 12.2 18.5 9.8 30.7-10.4zm-14.7 28.4c-0.9-1-1.9-1.9-2.8-2.9 7.3-2.7 11.1-10.4 15-17.9 0.2 0 0.3 0 0.5 0-3.5 8-6.9 16.3-12.7 20.7z"/></svg>