<?xml version="1.0" encoding="utf-8"?>
<!-- Generator: Adobe Illustrator 19.2.1, SVG Export Plug-In . SVG Version: 6.00 Build 0)  -->
<svg version="1.1" id="Layer_1" xmlns="http://www.w3.org/2000/svg" xmlns:xlink="http://www.w3.org/1999/xlink" x="0px" y="0px"
	 viewBox="0 0 114 110" style="enable-background:new 0 0 114 110;" xml:space="preserve">
<style type="text/css">
	.st0{fill:#FF0000;}
</style>
<g id="Layer_x0020_1">
	<path class="st0" d="M56.7,4.1c27.9,0,50.4,22.6,50.4,50.4c0,27.9-22.6,50.4-50.4,50.4C28.8,105,6.3,82.4,6.3,54.6
		C6.3,26.7,28.8,4.1,56.7,4.1z M56.7,28.7c9.9,0,18.1,7,20.1,16.3v18.2c-1.8,8.3-8.6,14.8-17.1,16.1c-0.2-1.1-1.1-2-2.2-2h-4.7
		c-1.2,0-2.3,1-2.3,2.3v2.1c0,1.2,1,2.3,2.3,2.3h4.7c1.2,0,2.2-1,2.3-2.1c8.2-1.1,15-6.4,18.2-13.7c5.8-0.6,10.4-5.5,10.4-11.6
		c0-5.1-3.2-9.4-7.7-11C78.8,34,68.8,25.2,56.7,25.2c-12.1,0-22,8.8-23.8,20.4c-4.5,1.6-7.7,5.9-7.7,11c0,6.4,5.1,11.6,11.4,11.6
		v-23C38.5,35.8,46.8,28.7,56.7,28.7L56.7,28.7z"/>
</g>
</svg>
