<svg xmlns="http://www.w3.org/2000/svg" xml:space="preserve" width="158" height="82" viewBox="0 0 158.8 82" style="image-rendering:optimizeQuality;shape-rendering:geometricPrecision;text-rendering:geometricPrecision"><defs><style type="text/css">
    .fil0 {fill:#ffffff}
   </style></defs><path class="fil0" d="M59.8 35.4l3.8-18 6.1 0c1.3 0 2.3 0 2.8 0.1 0.9 0.1 1.6 0.4 2.3 0.7 0.6 0.4 1.1 0.9 1.4 1.5 0.3 0.6 0.5 1.3 0.5 2 0 1-0.3 1.9-0.8 2.6-0.6 0.7-1.4 1.3-2.6 1.7 0.9 0.3 1.6 0.7 2.2 1.4 0.5 0.7 0.8 1.4 0.8 2.2 0 1.1-0.3 2.1-0.9 3.1-0.6 1-1.5 1.7-2.5 2.1-1.1 0.4-2.6 0.6-4.4 0.6l-8.5 0zm73.4 28.9l-3.7 0 3.8-18 8 0c1.4 0 2.4 0.1 3.2 0.4 0.8 0.3 1.4 0.8 1.9 1.6 0.5 0.8 0.7 1.7 0.7 2.7 0 1.5-0.5 2.8-1.4 3.8-0.9 1-2.3 1.6-4.2 1.8 0.5 0.4 0.9 1 1.3 1.7 0.8 1.4 1.7 3.4 2.8 6l-4 0c-0.3-1-0.9-2.6-1.9-4.8-0.5-1.2-1-1.9-1.6-2.3-0.4-0.2-1-0.4-1.8-0.4l-1.5 0-1.6 7.5zm2.1-10.2l2 0c2 0 3.3-0.1 4-0.4 0.6-0.2 1.2-0.6 1.5-1.1 0.4-0.5 0.5-1 0.5-1.6 0-0.7-0.3-1.1-0.8-1.5-0.3-0.2-1-0.3-2.1-0.3l-4.1 0-1 4.8zm-22.7 10.2l3.8-18 13.3 0-0.6 3-9.6 0-0.9 4.1 9.3 0-0.6 3-9.3 0-1.1 4.9 10.5 0-0.6 3-14.1 0zm-15.4 0l3.8-18 12.6 0-0.6 3-8.9 0-0.9 4.3 8.7 0-0.6 3-8.7 0-1.6 7.7-3.7 0zm-16.2-5.8l3.5-0.2c0 1.1 0.2 1.9 0.6 2.3 0.5 0.6 1.5 1 3 1 1.2 0 2.1-0.2 2.6-0.6 0.5-0.4 0.8-1 0.8-1.6 0-0.5-0.2-1-0.7-1.4-0.3-0.3-1.2-0.7-2.6-1.3-1.4-0.6-2.4-1.1-3.1-1.5-0.6-0.4-1.1-0.9-1.5-1.6-0.4-0.6-0.6-1.4-0.6-2.3 0-1.5 0.5-2.8 1.6-3.8 1.1-1 2.7-1.5 4.8-1.5 2.1 0 3.7 0.5 4.9 1.5 1.2 1 1.8 2.3 1.9 4l-3.5 0.2c-0.1-0.9-0.4-1.5-0.9-2-0.5-0.5-1.3-0.7-2.4-0.7-1 0-1.8 0.2-2.2 0.5-0.4 0.4-0.7 0.8-0.7 1.4 0 0.5 0.2 0.9 0.6 1.3 0.4 0.3 1.3 0.8 2.7 1.4 2.1 0.9 3.4 1.6 4 2.2 0.8 0.8 1.3 1.9 1.3 3.2 0 1.6-0.6 2.9-1.9 4.1-1.3 1.1-3 1.7-5.3 1.7-1.5 0-2.9-0.3-4-0.8-1.1-0.5-1.9-1.2-2.4-2.2-0.5-0.9-0.7-2-0.6-3.2zm-4.3 5.8l-3.5 0-4.9-12.1-2.5 12.1-3.4 0 3.8-18 3.5 0 4.9 12 2.5-12 3.4 0-3.8 18zm-20.8-4l-7.1 0-2.2 4-3.8 0 10.2-18 4.1 0 2.9 18-3.5 0-0.6-4zm-0.5-3l-1-7.2-4.3 7.2 5.4 0zm-25.7 7l-3.7 0 3.8-18 8 0c1.4 0 2.4 0.1 3.2 0.4 0.8 0.3 1.4 0.8 1.9 1.6 0.5 0.8 0.7 1.7 0.7 2.7 0 1.5-0.5 2.8-1.4 3.8-0.9 1-2.3 1.6-4.2 1.8 0.5 0.4 0.9 1 1.3 1.7 0.8 1.4 1.7 3.4 2.8 6l-4 0c-0.3-1-0.9-2.6-1.9-4.8-0.5-1.2-1-1.9-1.6-2.3-0.4-0.2-1-0.4-1.8-0.4l-1.5 0-1.6 7.5zm2.1-10.2l2 0c2 0 3.3-0.1 4-0.4 0.6-0.2 1.2-0.6 1.5-1.1 0.4-0.5 0.5-1 0.5-1.6 0-0.7-0.3-1.1-0.8-1.5-0.3-0.2-1-0.3-2.1-0.3l-4.1 0-1 4.8zm-13.4 10.2l-3.7 0 3.1-15-5.3 0 0.6-3 14.2 0-0.6 3-5.2 0-3.1 15zm-6.7-31l28.7 0 0 1.4-28.7 0 0-1.4zm0-8l35.1 0 0 1.4-35.1 0 0-1.4zm0-7.6l41.5 0 0 1.4-41.5 0 0-1.4zm102.5 17.7l3.8-18 3.7 0-1.6 7.6 8.3-7.6 5 0-8.1 7.1 5.9 10.9-4.2 0-4.4-8.6-3.5 3.1-1.2 5.5-3.7 0zm-3.7 0l-3.5 0-4.9-12.1-2.5 12.1-3.4 0 3.8-18 3.5 0 4.9 12 2.5-12 3.4 0-3.8 18zm-20.8-4l-7.1 0-2.2 4-3.8 0 10.2-18 4.1 0 2.9 18-3.5 0-0.6-4zm-0.5-3l-1-7.2-4.3 7.2 5.4 0zm-23.6-3.8l2.8 0c1.3 0 2.2-0.1 2.7-0.3 0.6-0.2 1-0.5 1.3-0.9 0.3-0.4 0.4-0.8 0.4-1.3 0-0.5-0.1-0.8-0.4-1.1-0.3-0.3-0.6-0.5-1.1-0.6-0.3 0-0.9-0.1-1.9-0.1l-2.9 0-0.9 4.3zm-1.6 7.8l3.6 0c1.5 0 2.5-0.1 3-0.3 0.5-0.2 0.9-0.5 1.2-1 0.3-0.4 0.5-0.9 0.5-1.4 0-0.6-0.2-1.1-0.7-1.5-0.4-0.4-1.2-0.6-2.2-0.6l-4.4 0-1 4.7z"/></svg>