<svg xmlns="http://www.w3.org/2000/svg" xml:space="preserve" width="158" height="82" viewBox="0 0 158.8 82" style="image-rendering:optimizeQuality;shape-rendering:geometricPrecision;text-rendering:geometricPrecision"><defs><style type="text/css">
    .fil0 {fill:#ffffff;fill-rule:nonzero}
   </style></defs><path class="fil0" d="M29.3 48.6c-4 0-7.1 3.2-7.1 7.4l0 0.1c0 4.3 3.1 7.4 7.4 7.4 2.4 0 4.4-0.9 5.9-2.7l0.1-0.1-2.1-1.9-0.1 0.1c-1.2 1.1-2.3 1.6-3.7 1.6-2 0-3.5-1.2-3.9-3.2l10.4 0 0-0.2c0-0.3 0-0.6 0-0.8 0-3.8-2.2-7.7-7-7.7zm0 2.9l0 0c2.2 0 3.2 1.7 3.4 3.4l-6.9 0c0.3-2.1 1.7-3.4 3.5-3.4zm17-2.9c-1.7 0-3.1 0.7-4.3 2.1l0-1.8-3.6 0 0 14.3 3.6 0 0-8c0-2 1.2-3.3 3-3.3 1.9 0 2.9 1.2 2.9 3.3l0 8.1 3.6 0 0-9.1c0-3.4-2-5.5-5.2-5.5zm12.3-3.5l-3.6 0 0 3.8-2.6 0 0 3.1 2.6 0 0 7.2c0 2.8 1.4 4.2 4.2 4.2 1.2 0 2.1-0.2 3-0.7l0.1 0 0-3-0.2 0.1c-0.6 0.3-1.3 0.5-1.9 0.5-1.1 0-1.6-0.5-1.6-1.6l0-6.7 3.8 0 0-3.1-3.8 0 0-3.8zm14.2 3.6c-2 0-3.6 1-4.6 2.9l0-2.6-3.6 0 0 14.3 3.6 0 0-5.5c0-3.4 1.7-5.4 4.7-5.4l0.3 0 0-3.7-0.1 0c-0.1 0-0.2 0-0.3 0zm8.8 0c-4.3 0-7.7 3.3-7.7 7.4l0 0.1c0 4.1 3.4 7.4 7.7 7.4 4.4 0 7.8-3.3 7.8-7.4l0-0.1c0-4.1-3.4-7.4-7.7-7.4zm-4.2 7.4l0 0c0-2.5 1.7-4.3 4.1-4.3 2.4 0 4.2 1.9 4.2 4.3l0 0.1c0 2.5-1.7 4.3-4.1 4.3-2.3 0-4.2-1.9-4.2-4.3l0-0.1zm22.2-7.4c-1.9 0-3.4 0.8-4.7 2.3l0-2-3.6 0 0 20.2 3.6 0 0-7.8c1.3 1.5 2.8 2.2 4.7 2.2 3.4 0 6.7-2.5 6.7-7.4l0-0.1c0-4.9-3.4-7.4-6.7-7.4zm3.1 7.4l0 0 0 0.1c0 2.5-1.6 4.3-3.9 4.3-2.3 0-4-1.9-4-4.3l0-0.1c0-2.5 1.7-4.3 4-4.3 2.2 0 3.9 1.9 3.9 4.3zm11.7-7.3c-2.5 0-4.1 0.6-5.4 1.2l-0.1 0.1 1 2.8 0.2-0.1c1.3-0.5 2.4-0.9 4-0.9 2.2 0 3.4 1 3.4 2.9l0 0.1c-0.9-0.3-2-0.5-3.7-0.5-3.8 0-6 1.7-6 4.6l0 0.1c0 3.1 2.7 4.5 5.2 4.5 1.8 0 3.3-0.6 4.5-1.8l0 1.5 3.5 0 0-8.4c0-1.9-0.5-3.4-1.6-4.4-1-1.1-2.7-1.6-4.8-1.6zm-0.6 12.1l0 0c-1.6 0-2.6-0.8-2.6-2l0-0.1c0-1.4 1.2-2.2 3.2-2.2 1.4 0 2.4 0.3 3.1 0.5l0 0.8c0 1.6-1.5 2.8-3.6 2.8zm19.2-11.9l-3.6 10.1-3.9-10.1-3.8 0 6 14.1-0.8 2c-0.5 1-1 1.4-1.8 1.4-0.6 0-1.2-0.2-1.8-0.5l-0.1-0.1-1.2 2.7 0.1 0.1c1.1 0.6 2.2 0.9 3.4 0.9 2.3 0 3.6-1 4.7-3.5l0 0 6.7-17.1-3.7 0zm-59.4-35.5l-0.7 1.7 0.6-1.4c-1.7-0.8-3.5-1.2-5.4-1.2-7.2 0-13 5.7-13 12.7 0 7 5.8 12.7 13 12.7 4.5 0 8.5-2.3 10.8-5.7 0.2-0.5 0.5-0.9 0.8-1.4l4.4-9.1c1.3-2.6 4-4.4 7.2-4.4 4.4 0 8 3.5 8 7.9 0 4.3-3.6 7.9-8 7.9-1.5 0-3-0.4-4.2-1.2l2.1-5-5 0-6.3 15.1 5 0 2.3-5.6c1.8 1 3.9 1.5 6.1 1.5 7.2 0 13-5.7 13-12.7 0-7-5.8-12.7-13-12.7-5.2 0-9.6 3-11.7 7.3 0 0 0 0 0 0l-4.5 9.4c-1.4 2.4-4 3.9-6.9 3.9-4.4 0-8-3.5-8-7.9 0-4.3 3.6-7.9 8-7.9 1.3 0 2.5 0.3 3.6 0.8l-4.3 10.2 5 0 6.3-15.1-5 0z"/></svg>