<?xml version="1.0" encoding="utf-8"?>
<!-- Generator: Adobe Illustrator 19.2.1, SVG Export Plug-In . SVG Version: 6.00 Build 0)  -->
<svg version="1.1" id="Layer_1" xmlns="http://www.w3.org/2000/svg" xmlns:xlink="http://www.w3.org/1999/xlink" x="0px" y="0px"
	 viewBox="0 0 158 82" style="enable-background:new 0 0 158 82;" xml:space="preserve">
<g>
	<g>
		<path style="fill:#FFFFFF;" d="M131.6,21h-0.2c3.8,0,7.2,1.1,10.1,3.1C138.7,22.1,135.3,21,131.6,21z"/>
	</g>
	<g>
		<path style="fill:none;stroke:#FFFFFF;stroke-miterlimit:10;" d="M29.2,21c-9.6,0-17.5,7.9-17.5,17.5V46c0,9.6,7.9,17.5,17.5,17.5
			h28.1V21H29.2z"/>
		<path style="fill:none;stroke:#FFFFFF;stroke-width:0.5;stroke-miterlimit:10;" d="M29.2,21c-9.6,0-17.5,7.9-17.5,17.5V46
			c0,9.6,7.9,17.5,17.5,17.5h28.1V21H29.2z"/>
	</g>
	<g>
		<path style="fill:#FFFFFF;" d="M131.6,63.5c3.7,0,7.1-1.1,9.9-3.1c-2.9,1.9-6.4,3.1-10.1,3.1H131.6z"/>
	</g>
	<g>
		<path style="fill:#FFFFFF;" d="M39.8,36.3l-4.1,4c0,0-1.6,2.4,0,4.1c1.6,1.7,3.6,1.9,4.9,0.7c1.3-1.2,7.6-7.3,7.6-7.3
			s1.7-2,0.3-3.8s-5-4.6-9.5-4.7c-4.5-0.1-8.6,2-10.3,4.2c-1.7,2.3-4.4,5.5-3,12.2c1.5,6.7,8.3,9,8.3,9s2,0.6,2.9,0.6s6.9,0,6.9,0
			s2.4-0.7,2.5-2.9s-0.7-3-1.5-3.5c-0.9-0.4-1.5-0.4-1.5-0.4s-5.1,0.1-6,0s-3.4-1.1-4.4-3C32,43.6,32.1,42.8,32,42s0.4-2.4,0.9-3
			C33.6,38.4,35.5,35.4,39.8,36.3z"/>
	</g>
	<g>
		<path style="fill:#FDFDFE;stroke:#FDFDFE;stroke-miterlimit:10;" d="M105.1,34.1c-2.6-0.2-6.1-0.2-6.1-0.2l-1.7,7
			c0,0,5.1,0.1,6.1,0c0.9-0.1,3.5-1.3,3.8-2.8S107.5,34.6,105.1,34.1z"/>
		<path style="fill:#FDFDFE;stroke:#FDFDFE;stroke-miterlimit:10;" d="M79.7,34l-5.8-0.1L72.2,41h6.2c0,0,1.9-0.3,2.7-1.3
			c0.8-1,1.9-2.4,1-4C81.2,34,79.7,34,79.7,34z"/>
		<path style="fill:#FDFDFE;stroke:#FDFDFE;stroke-miterlimit:10;" d="M129.4,33.7c0,0-2.3-0.2-4.1,1.4s-2.6,4.2-3.7,9.6
			c-0.4,3.3-0.4,4.1,0.3,5.1c0.7,1.1,3,1.5,3,1.5s4,0.1,5.2-2.8c1.3-2.9,2.7-9.7,2.7-9.7S134.2,34.5,129.4,33.7z"/>
		<path style="fill:#FDFDFE;stroke:#FDFDFE;stroke-miterlimit:10;" d="M141.7,24.1c-2.9-1.9-6.4-3.1-10.2-3.1H57.1v42.5h74.4
			c3.8,0,7.3-1.1,10.2-3.1c4.7-3.2,7.8-8.4,7.8-14.4v-7.6C149.5,32.5,146.4,27.2,141.7,24.1z M83.7,43.7c-2.3,1.5-5.4,1.6-5.4,1.6
			h-7.1l-2.4,9.8h-5.5l6-25.3c0,0,5.5,0,12.3,0.2c5.9,0.8,6.3,5.1,6.3,7.4S86,42.2,83.7,43.7z M109.6,42.8c-1.4,1.1-3.6,1.5-3.6,1.5
			l4.2,10.8H104l-3.5-10.2h-4.1l-2.5,10.2h-5.5l6-25.3c0,0,8.8,0,12.4,0.1c3.7,0.3,5.9,3,6.2,6.2C113.4,39.3,111,41.7,109.6,42.8z
			 M133.3,52.5c-4.3,3.2-8.5,2.9-8.5,2.9s-4.6-0.1-7.1-2.5c-2.5-2.5-2-5.3-1.3-9.3c0.4-4.2,3-9.2,3-9.2c2-2.8,5.8-5.3,12.4-4.5
			c6.6,0.6,6.9,6.8,6.9,6.8S137.5,49.2,133.3,52.5z"/>
	</g>
</g>
<g>
</g>
<g>
</g>
<g>
</g>
<g>
</g>
<g>
</g>
<g>
</g>
</svg>
