<svg xmlns="http://www.w3.org/2000/svg" xml:space="preserve" width="158" height="82" viewBox="0 0 158.8 82" style="fill-rule:evenodd;image-rendering:optimizeQuality;shape-rendering:geometricPrecision;text-rendering:geometricPrecision"><defs><style type="text/css">
    .fil0 {fill:#ffffff}
   </style></defs><path class="fil0" d="M79.4 62.1c5 4.6 11.7 7.4 19 7.4 15.6 0 28.2-12.7 28.2-28.4 0-15.7-12.6-28.4-28.2-28.4-7.3 0-13.9 2.8-19 7.4 0 0 0 0 0 0-5-4.6-11.7-7.4-19-7.4-7.3 0-13.9 2.8-19 7.4-5.7 5.2-9.3 12.7-9.3 21.1 0 8.4 3.6 15.9 9.3 21.1 5 4.6 11.7 7.4 19 7.4 7.3 0 14-2.8 19-7.4 0 0 0 0 0 0zm42.1-13.6l-2.9 0 0.2-1.1c-0.8 0.9-1.7 1.3-2.8 1.3-2.2 0-3.7-1.9-3.7-4.9 0-3.9 2.3-7.2 5-7.2 1.2 0 2.1 0.5 2.9 1.6l0.7-4.1 3 0-2.3 14.4zm-4.5-2.8c1.4 0 2.4-1.6 2.4-4 0-1.5-0.6-2.3-1.6-2.3-1.4 0-2.4 1.6-2.4 3.9 0 1.5 0.5 2.3 1.6 2.3zm-3.5-9.1c-0.1 0-0.2 0-0.3 0-1 0-1.6 0.5-2.5 1.9l0.3-1.8-2.8 0-1.9 11.7 3.1 0c1.1-7.2 1.4-8.4 2.9-8.4 0.1 0 0.1 0 0.2 0 0.3-1.4 0.7-2.5 1.2-3.4l-0.1 0zm-10.5 6.6c-0.3 0-0.5 0-0.7 0-1.7 0-2.6 0.6-2.6 1.8 0 0.7 0.4 1.2 1.1 1.2 1.2 0 2.1-1.2 2.2-2.9zm2.2 5.2l-2.5 0 0.1-1.2c-0.8 1-1.8 1.4-3.2 1.4-1.7 0-2.8-1.3-2.8-3.2 0-2.9 2-4.5 5.4-4.5 0.3 0 0.8 0 1.2 0.1 0.1-0.4 0.1-0.6 0.1-0.8 0-0.8-0.5-1.1-2-1.1-0.9 0-1.9 0.1-2.5 0.3l-0.4 0.1-0.3 0.1 0.4-2.6c1.5-0.5 2.5-0.6 3.7-0.6 2.6 0 4 1.2 4 3.4 0 0.6 0 1-0.2 2.3l-0.6 4.2-0.1 0.7-0.1 0.6-0.1 0.4 0 0.3zm-7.2-14l-0.5 3.1c-1.1-0.6-1.9-0.8-2.7-0.8-2.3 0-3.9 2.2-3.9 5.4 0 2.2 1.1 3.5 2.9 3.5 0.8 0 1.6-0.2 2.6-0.7l-0.5 3.3c-1.1 0.3-1.9 0.4-2.7 0.4-3.3 0-5.4-2.4-5.4-6.2 0-5.2 2.8-8.8 6.9-8.8 0.5 0 1 0.1 1.4 0.1l1.3 0.3c0.4 0.1 0.5 0.2 0.7 0.3zm-9.8 2.1c-0.1 0-0.2 0-0.3 0-1 0-1.6 0.5-2.5 1.9l0.3-1.8-2.8 0-1.9 11.7 3.1 0c1.1-7.2 1.4-8.4 2.9-8.4 0.1 0 0.1 0 0.2 0 0.3-1.4 0.6-2.5 1.2-3.4l-0.1 0zm-8.3 11.6c-1.1 0.3-2.1 0.5-3.1 0.5-3.4 0-5.2-1.8-5.2-5.3 0-4 2.3-7 5.4-7 2.5 0 4.1 1.7 4.1 4.3 0 0.9-0.1 1.7-0.4 2.9l-6.1 0c0 0.2 0 0.3 0 0.4 0 1.4 0.9 2.1 2.7 2.1 1.1 0 2.1-0.2 3.2-0.7l-0.5 2.9zm-1.7-7c0-0.2 0-0.4 0-0.6 0-1-0.5-1.5-1.5-1.5-1 0-1.7 0.7-2 2.1l3.4 0zm-7.6 7.1c-0.8 0.3-1.5 0.4-2.2 0.4-1.6 0-2.4-0.9-2.4-2.6 0-0.3 0-0.7 0.1-1.1l0.2-1.1 0.1-0.9 1.3-8 3 0-0.4 1.7 1.6 0-0.4 2.9-1.6 0-0.8 4.9c0 0.2-0.1 0.4-0.1 0.5 0 0.6 0.3 0.9 1 0.9 0.3 0 0.6 0 0.8-0.1l-0.4 2.6zm-11.8-7.9c0 1.5 0.7 2.5 2.3 3.3 1.2 0.6 1.4 0.8 1.4 1.3 0 0.7-0.5 1.1-1.8 1.1-0.9 0-1.8-0.1-2.7-0.5l-0.4 2.7 0.1 0 0.6 0.1c0.2 0 0.4 0.1 0.8 0.1 0.7 0.1 1.3 0.1 1.7 0.1 3.2 0 4.7-1.2 4.7-3.9 0-1.6-0.6-2.6-2.2-3.3-1.3-0.6-1.4-0.7-1.4-1.3 0-0.6 0.5-1 1.5-1 0.6 0 1.4 0.1 2.2 0.2l0.4-2.7c-0.8-0.1-2-0.2-2.7-0.2-3.4 0-4.6 1.8-4.6 4zm-4.1 2.8c-0.3 0-0.5 0-0.7 0-1.7 0-2.6 0.6-2.6 1.8 0 0.7 0.4 1.2 1.1 1.2 1.2 0 2.1-1.2 2.2-2.9zm2.2 5.2l-2.5 0 0.1-1.2c-0.8 1-1.8 1.4-3.2 1.4-1.7 0-2.8-1.3-2.8-3.2 0-2.9 2-4.5 5.4-4.5 0.3 0 0.8 0 1.2 0.1 0.1-0.4 0.1-0.6 0.1-0.8 0-0.8-0.5-1.1-2-1.1-0.9 0-1.9 0.1-2.5 0.3l-0.4 0.1-0.3 0.1 0.4-2.6c1.5-0.5 2.5-0.6 3.7-0.6 2.6 0 4 1.2 4 3.4 0 0.6 0 1-0.2 2.3l-0.6 4.2-0.1 0.7-0.1 0.6-0.1 0.4 0 0.3zm-9.8 0l-3.1 0 1.8-11.1-3.9 11.1-2.1 0-0.3-11-1.8 11-2.9 0 2.4-14.4 4.4 0 0.1 8.9 3-8.9 4.8 0-2.4 14.4z"/></svg>