<svg xmlns="http://www.w3.org/2000/svg" xml:space="preserve" width="158" height="82" viewBox="0 0 158.8 82" style="image-rendering:optimizeQuality;shape-rendering:geometricPrecision;text-rendering:geometricPrecision"><defs><style type="text/css">
    .fil0 {fill:#ffffff}
   </style></defs><path class="fil0" d="M6.5 53.6l8.1 0 3.1-16 5.5 16 0.4 0c37.1 0 74.2 0 111.2 0l0.1 0c0.8-4.2 1.4-8.2 2.3-12.4l3.6 12.4 8.1 0-2.9-10.1c5.1-1.5 5.7-3.9 6.2-7.1 1.1-6.6-5.8-8.1-12.6-8l-2.3 0-5.7 0-3.7 19.4-12.6 0 0.8-4.2 7.6 0 1-5.1-7.6 0 0.8-4.3 7.6 0 1.1-5.8-7.6 0-8 0-0.1 0-3.7 19.4-6 0 3.7-19.4-8.1 0-3.7 19.4-5.8 0 3.7-19.4-8.1 0-3.7 19.4-13 0 0.8-4.2 7.8 0 1-5.1-7.8 0 0.8-4.3 8.1 0 1.1-5.8c-16.6 0-33.1 0-49.7 0l-1.1 5.8-1.9 9.9-5.4-15.7c-2.9 0-5.8 0-8.7 0l-4.8 25.2zm133-13.2l-2.2 0 1.3-6.9c2.1 0 6.2 0.1 5.5 3.5-0.5 2.5-2.4 3.4-4.6 3.4zm-78.8-6.2l-2.6 13.6-4.6 0 2.6-13.6 4.6 0zm-19.3 9.4l1-5.1-7.8 0 0.8-4.3 12.7 0-2.6 13.6-12.7 0 0.8-4.2 7.8 0z"/></svg>