<svg xmlns="http://www.w3.org/2000/svg" xml:space="preserve" width="158" height="82" viewBox="0 0 158.8 82" style="fill-rule:evenodd;image-rendering:optimizeQuality;shape-rendering:geometricPrecision;text-rendering:geometricPrecision"><defs><style type="text/css">
    .fil0 {fill:#ffffff}
   </style></defs><path class="fil0" d="M31.7 33.6c-0.5-2.8-2.9-4.9-5.7-4.9-2.9 0-5.3 2.1-5.7 4.9-0.8 0.1-1.5 0.4-2.1 0.9 0.1-4.8 3.5-8.7 7.8-8.7 4.3 0 7.7 3.9 7.8 8.7-0.6-0.5-1.3-0.8-2.1-0.9zm-10.3 0.9l9 0c2.2 0 4 1.8 4 4l0 7.8c0 2.2-1.8 4-4 4l-9 0c-2.2 0-4-1.8-4-4l0-7.8c0-2.2 1.8-4 4-4zm119.9 11.8l0 3.9-9.6 0c-1.7 0-3.1-1.4-3.1-3.1l0-9.4c0-1.7 1.4-3.1 3.1-3.1l6.5 0c1.7 0 3.1 1.4 3.1 3.1l0 3.9-8.9 3.3 0 0.1c0 0.7 0.6 1.2 1.2 1.2l7.7 0zm-8.9-5.1l0-1.4c0-0.7 0.6-1.2 1.2-1.2l2.6 0c0.5 0 1 0.3 1.2 0.8l-5 1.9zm-6.2-8.7l0-3.9-3.5 0c-1.7 0-3.1 1.4-3.1 3.1l0 4.8 0 4.5 0 9.1 3.8 0 0-11.1 0-0.5 2.7 0 0-3.9-2.7 0 0-0.8c0-0.7 0.6-1.2 1.2-1.2l1.5 0zm-22.5 10.1l0 4.9c0 1.7 1.4 3.1 3.1 3.1l6.5 0c1.7 0 3.1-1.4 3.1-3.1l0-2.6 0-2 0-0.4 0-3.2 0-1.6c0-1.7-1.4-3.1-3.1-3.1l-9.6 0 0 3.9 7.6 0c0.7 0 1.2 0.6 1.2 1.2l0 0.2-5.8 0c-1.7 0-3.1 1.1-3.1 2.8zm8.9 2.2l0 0.7c0 0.7-0.6 1.2-1.2 1.2l-2.6 0c-0.7 0-1.2-0.6-1.2-1.2l0-0.7c0-0.7 0.6-1.2 1.2-1.2l2.6 0c0.7 0 1.2 0.6 1.2 1.2zm-11.8 0.4l0-1.5c0-1.7-1.4-3.1-3.1-3.1l-2.6 0-1.1 0c-0.7 0-1.2-0.4-1.2-1.1 0-0.7 0.5-1.1 1.2-1.1l6.8 0 0-3.9-8.7 0c-1.7 0-3.1 1.4-3.1 3.1l0 1.6 0 0.5 0 1.6c0 1.7 1.4 3.1 3.1 3.1l1.4 0 1.6 0 0.7 0c0.7 0 1.2 0.4 1.2 1.1 0 0.7-0.5 1.1-1.2 1.1l-6.8 0 0 3.9 8.7 0c1.7 0 3.1-1.4 3.1-3.1l0-1.6 0-0.6zm-23.9-10.6l0 5.1 0 4.4 0 0.6 0 0.3c0 0.7 0.6 1.2 1.2 1.2l2.6 0c0.7 0 1.2-0.6 1.2-1.2l0-0.9 0-4.4 0-5.1 0-0.1 3.8 0 0 3.2 0 5.6 0 2.8 0 0.9 0 6c0 1.7-1.4 3.1-3.1 3.1l-9.6 0 0-3.9 7.6 0c0.7 0 1.2-0.6 1.2-1.2l0-0.9-5.8 0c-1.7 0-3.1-1.4-3.1-3.1l0-2.4 0-7 0-3.2 3.8 0 0 0.1zm-19.7 8l0 4.9c0 1.7 1.4 3.1 3.1 3.1l6.5 0c1.7 0 3.1-1.4 3.1-3.1l0-2.6 0-2 0-0.4 0-3.2 0-1.6c0-1.7-1.4-3.1-3.1-3.1l-9.6 0 0 3.9 7.6 0c0.7 0 1.2 0.6 1.2 1.2l0 0.2-5.8 0c-1.7 0-3.1 1.1-3.1 2.8zm8.9 2.2l0 0.7c0 0.7-0.6 1.2-1.2 1.2l-2.6 0c-0.7 0-1.2-0.6-1.2-1.2l0-0.7c0-0.7 0.6-1.2 1.2-1.2l2.6 0c0.7 0 1.2 0.6 1.2 1.2zm-21.9-10.2l6.5 0c1.7 0 3.1 1.4 3.1 3.1l0 9.4c0 1.7-1.4 3.1-3.1 3.1l-5.8 0 0 6.1-3.8 0 0-9.2 0-5.2 0-4.1c0-1.7 1.4-3.1 3.1-3.1zm1.9 3.9l2.6 0c0.7 0 1.2 0.6 1.2 1.2l0 5.3c0 0.7-0.6 1.2-1.2 1.2l-2.6 0c-0.7 0-1.2-0.6-1.2-1.2l0-3.2 0-2.1c0-0.7 0.6-1.2 1.2-1.2z"/></svg>