<svg xmlns="http://www.w3.org/2000/svg" xml:space="preserve" width="158" height="82" viewBox="0 0 158.8 82" style="image-rendering:optimizeQuality;shape-rendering:geometricPrecision;text-rendering:geometricPrecision"><defs><style type="text/css">
    .fil0 {fill:#ffffff;fill-rule:nonzero}
   </style></defs><path class="fil0" d="M17.1 29l8.3 0c2 0 3.6 0.6 4.6 1.7 1 1.1 1.4 2.7 1.1 4.8-0.2 1.3-0.5 2.4-1.1 3.6-0.5 1.1-1.2 2.1-2 3-0.9 0.9-1.9 1.6-3 2-1.1 0.4-2.5 0.6-4.1 0.6l-3.3 0-2.4 8.3-5 0 7-23.9zm3.7 4.5l-2 6.7 2.8 0c1.2 0 2.1-0.3 2.8-1 0.7-0.7 1.2-1.7 1.3-3 0.1-0.9 0-1.5-0.4-2-0.4-0.5-1-0.7-1.8-0.7l-2.7 0zm26.6 5.3c0.3-1.9 0.1-3.3-0.5-4.3-0.6-1-1.5-1.5-2.8-1.5-1.7 0-3.3 1-4.8 2.9-1.4 1.9-2.4 4.3-2.7 7.2-0.2 1.8-0.1 3.3 0.4 4.3 0.6 1 1.4 1.5 2.7 1.5 1 0 1.9-0.3 2.8-0.8 0.8-0.5 1.6-1.3 2.3-2.3 0.7-1 1.2-2.1 1.7-3.3 0.4-1.2 0.8-2.5 0.9-3.7zm-1.9-10.2c2.6 0 4.6 0.9 5.9 2.7 1.3 1.8 1.8 4.1 1.4 6.9-0.3 1.9-0.8 3.8-1.5 5.5-0.7 1.7-1.6 3.3-2.7 4.7-1.4 1.7-2.9 3-4.5 3.8-1.7 0.8-3.5 1.3-5.5 1.3-2.6 0-4.5-0.9-5.9-2.6-1.3-1.8-1.8-4.1-1.4-6.9 0.3-2 0.8-3.8 1.5-5.5 0.7-1.7 1.6-3.3 2.7-4.7 1.3-1.7 2.8-2.9 4.5-3.8 1.7-0.8 3.5-1.3 5.5-1.3zm27.2 1.2l-1.5 5.1c-0.9-0.6-1.8-1-2.7-1.3-0.9-0.3-1.8-0.4-2.7-0.4-1.2 0-2.3 0.2-3 0.7-0.8 0.5-1.2 1.1-1.3 2-0.1 0.5 0 1 0.3 1.3 0.3 0.3 0.9 0.6 1.8 0.9l2 0.6c1.6 0.5 2.8 1.3 3.5 2.3 0.7 1 0.9 2.3 0.7 3.9-0.4 2.6-1.4 4.7-3.3 6.2-1.8 1.6-4.1 2.4-6.8 2.4-1.3 0-2.5-0.1-3.7-0.4-1.2-0.3-2.4-0.7-3.5-1.3l1.5-5.2c1 0.8 2.1 1.4 3.1 1.8 1 0.4 2.1 0.6 3.1 0.6 1.1 0 2.1-0.3 2.9-0.9 0.8-0.6 1.3-1.3 1.4-2.2 0.1-0.6 0-1-0.3-1.4-0.3-0.3-0.9-0.7-2-1l-2-0.6c-1.4-0.5-2.5-1.2-3.1-2.2-0.6-1-0.8-2.3-0.6-3.9 0.3-2.5 1.4-4.5 3.1-6 1.8-1.5 3.9-2.3 6.6-2.3 1 0 2.1 0.1 3.2 0.3 1.1 0.2 2.2 0.5 3.3 0.9zm3.6-0.7l17.9 0-1.4 4.7-6.5 0-5.7 19.2-5 0 5.7-19.2-6.5 0 1.4-4.7zm20.5 0l8.3 0c2 0 3.6 0.6 4.6 1.7 1 1.1 1.4 2.7 1.1 4.8-0.2 1.3-0.5 2.4-1.1 3.6-0.5 1.1-1.2 2.1-2 3-0.9 0.9-1.9 1.6-3 2-1.1 0.4-2.5 0.6-4.1 0.6l-3.3 0-2.4 8.3-5 0 7-23.9zm3.7 4.5l-2 6.7 2.8 0c1.2 0 2.1-0.3 2.8-1 0.7-0.7 1.2-1.7 1.3-3 0.1-0.9 0-1.5-0.4-2-0.4-0.5-1-0.7-1.8-0.7l-2.7 0zm19.5 15.1l-7.8 0-2.5 4.4-5.1 0 14.2-23.9 5.7 0 0.2 23.9-4.8 0 0-4.4zm-5.3-4.3l5.2 0 0.1-9.2-5.3 9.2zm14.1-15.2l5 0 2.1 8.9 7-8.9 5.8 0-11.5 13.9-2.9 10-5 0 2.9-10-3.4-13.9z"/></svg>