<svg xmlns="http://www.w3.org/2000/svg" xml:space="preserve" width="158" height="82" viewBox="0 0 158.8 82" style="image-rendering:optimizeQuality;shape-rendering:geometricPrecision;text-rendering:geometricPrecision"><defs><style type="text/css">
    .fil0 {fill:#ffffff}
   </style></defs><path class="fil0" d="M100.9 32.3c2.2 0 4-1.8 4-4 0-2.2-1.8-4-4-4-2.2 0-4 1.8-4 4 0 2.2 1.8 4 4 4zm-31 2.2c-0.2 0.5-1.5 4.2-4.7 8l0-16.5-8.5 1.7 0 29.8 8.5 0 0-9.2c2.5 3.7 3.7 9.2 3.7 9.2l10.1 0c-1-4.2-5.4-11.9-5.4-11.9 3.9-5 5.7-10.3 5.9-11.2l-9.7 0zm22.3-0.3c-7.6 0.2-11.4 3.6-11.4 10.4l0 13 8.3 0 0-10.6c0-4.1 0.5-5.8 5.3-6l0-6.7c-0.8-0.2-2.2-0.1-2.2-0.1zm-49.6 3.6c-1-0.1-3.4-0.2-3.4-2.4 0-2.6 3.5-2.6 4.8-2.6 2.3 0 5.2 0.7 7.3 1.3 0 0 1.2 0.4 2.2 0.8l0.1 0 0-0.1 0-7.1-0.1 0c-2.5-0.9-5.4-1.7-10.8-1.7-9.3 0-12.5 5.4-12.5 10 0 2.7 1.1 8.9 11.7 9.7 0.9 0.1 3.3 0.2 3.3 2.4 0 1.8-2 2.9-5.2 2.9-3.6 0-7.1-0.9-9.2-1.8l0 7.4c3.2 0.8 6.8 1.2 10.9 1.2 9 0 13.1-5.1 13.1-10.2 0-5.7-4.5-9.5-12.1-10zm54.3 19.8l8.2 0 0-23-8.2 0 0 23zm23.7-30l0 30 8.2 0 0-31.5-8.2 1.5zm-12 0l8.2-1.5 0 31.5-8.2 0 0-30z"/></svg>