<svg xmlns="http://www.w3.org/2000/svg" xml:space="preserve" width="158" height="82" viewBox="0 0 158.8 82" style="image-rendering:optimizeQuality;shape-rendering:geometricPrecision;text-rendering:geometricPrecision"><defs><style type="text/css">
    .fil0 {fill:#ffffff;fill-rule:nonzero}
   </style></defs><path class="fil0" d="M124.3 57.6l7.9 0-6.9-33.1-6.9 0c-3.2 0-4 2.5-4 2.5l-12.9 30.7 9 0 1.8-4.9 11 0 1 4.9zm-9.5-11.7l0 0 4.5-12.4 2.5 12.4-7.1 0zm-12.6-13.4l1.2-7.1c0 0-3.8-1.4-7.8-1.4-4.3 0-14.4 1.9-14.4 11 0 8.6 11.9 8.7 11.9 13.2 0 4.5-10.7 3.7-14.2 0.9l-1.3 7.4c0 0 3.9 1.9 9.7 1.9 5.9 0 14.8-3 14.8-11.3 0-8.6-12-9.4-12-13.2 0-3.7 8.4-3.3 12.1-1.2zm-29.9 25.2l-8.6 0 5.4-33.1 8.6 0-5.4 33.1zm-15.9-33.1l-8.2 22.8-1-4.9 0 0-2.9-14.9c0 0-0.4-3-4.1-3l-13.6 0-0.2 0.6c0 0 4.2 0.9 9 3.8l7.5 28.8 9 0 13.7-33.1-9.3 0z"/></svg>