<?xml version="1.0" encoding="UTF-8"?>
<!DOCTYPE svg PUBLIC "-//W3C//DTD SVG 1.1//EN" "http://www.w3.org/Graphics/SVG/1.1/DTD/svg11.dtd">
<!-- Creator: CorelDRAW -->
<svg xmlns="http://www.w3.org/2000/svg" xml:space="preserve" width="113.771mm" height="11.6416mm" style="shape-rendering:geometricPrecision; text-rendering:geometricPrecision; image-rendering:optimizeQuality; fill-rule:evenodd; clip-rule:evenodd"
viewBox="0 0 113.771 11.6416"
 xmlns:xlink="http://www.w3.org/1999/xlink"
 version="1.1">
 <defs>
  <style type="text/css">
   <![CDATA[
    .fil0 {fill:white;fill-rule:nonzero}
   ]]>
  </style>
 </defs>
 <g id="Layer_x0020_1">
  <metadata id="CorelCorpID_0Corel-Layer"/>
  <path class="fil0" d="M-0 2.9365l2.5753 0c0.5842,0 1.0485,0.1693 1.3942,0.5094 0.3443,0.3387 0.5165,0.7394 0.5165,1.2023 0,0.4798 -0.1708,0.8904 -0.5108,1.2319 -0.3401,0.3415 -0.8044,0.5122 -1.3914,0.5122l-1.1444 0 0 2.3199 -1.4394 0 0 -5.7757zm1.4394 1.0583l0 1.3392 0.6688 0c0.5984,0 0.8975,-0.223 0.8975,-0.6689 0,-0.2512 -0.0804,-0.4247 -0.2399,-0.5235 -0.1594,-0.0974 -0.4332,-0.1468 -0.8184,-0.1468l-0.508 0zm8.4582 3.6591l0 1.0583 -4.4027 0 0 -5.7757 1.4393 0 0 4.7174 2.9634 0zm4.1839 -4.7174l2.5626 5.7757 -1.5466 0 -0.4755 -1.1416 -2.5838 0 -0.429 1.1416 -1.5254 0 2.3269 -5.7757 1.6708 0zm0.1157 3.6266l-0.9313 -2.2451 -0.8467 2.2451 1.778 0zm4.4111 2.1491l0 -2.6995 -2.2775 -3.0762 1.7441 0 1.2531 1.8147 1.2616 -1.8147 1.7356 0 -2.2775 3.0762 0 2.6995 -1.4394 0zm10.1248 -5.7757l0 5.7757 -1.4394 0 0 -2.3354 -2.8772 0 0 2.3354 -1.438 0 0 -5.7757 1.438 0 0 2.3199 2.8772 0 0 -2.3199 1.4394 0zm5.5725 0l1.4394 0 0 3.278c0,0.8439 -0.2498,1.4831 -0.7493,1.9191 -0.4982,0.4347 -1.2108,0.6534 -2.1365,0.6534 -0.9158,0 -1.6256,-0.2216 -2.1308,-0.6618 -0.5066,-0.4417 -0.7591,-1.0753 -0.7591,-1.9022l0 -3.2865 1.4421 0 0 3.3204c0,0.4021 0.1327,0.7239 0.3951,0.9666 0.2639,0.2427 0.6082,0.364 1.0358,0.364 0.4445,0 0.7987,-0.1241 1.064,-0.3725 0.2667,-0.2469 0.3993,-0.5997 0.3993,-1.0583l0 -3.2202zm8.1972 0.4008l0 1.2615c-0.7352,-0.3556 -1.4549,-0.5334 -2.1576,-0.5334 -0.6773,0 -1.2009,0.1707 -1.5663,0.5122 -0.3669,0.3415 -0.5504,0.7776 -0.5504,1.3067 0,0.5066 0.1835,0.9172 0.5504,1.2319 0.3654,0.3147 0.848,0.4713 1.4463,0.4713 0.3175,0 0.6351,-0.0691 0.9554,-0.206l0 -0.6745 -0.8354 0 0 -1.0583 2.2775 0 0 2.3608c-0.2286,0.2286 -0.5757,0.4148 -1.0428,0.5602 -0.4685,0.1439 -0.9299,0.2173 -1.3871,0.2173 -1.0061,0 -1.833,-0.278 -2.4793,-0.834 -0.6463,-0.5545 -0.9695,-1.2615 -0.9695,-2.1181 0,-0.8763 0.3232,-1.5917 0.9695,-2.1435 0.6463,-0.5531 1.4845,-0.8297 2.5117,-0.8297 0.8495,0 1.6087,0.1595 2.2776,0.4756zm5.5189 4.3166l0 1.0583 -4.2574 0 0 -5.7757 4.1995 0 0 1.0583 -2.7616 0 0 1.2122 2.6346 0 0 1.0583 -2.6346 0 0 1.3886 2.8195 0zm1.0921 -4.7174l0.8269 0 0 5.0236 2.6007 0 0 0.7521 -3.4276 0 0 -5.7757zm6.9865 -0.0818c0.8932,0 1.6369,0.2822 2.2309,0.8466 0.5927,0.5659 0.8904,1.2743 0.8904,2.1252 0,0.8523 -0.3005,1.5564 -0.8988,2.1152 -0.5998,0.5574 -1.3561,0.8368 -2.2677,0.8368 -0.8707,0 -1.5974,-0.2794 -2.1774,-0.8368 -0.5799,-0.5588 -0.8692,-1.2587 -0.8692,-2.0983 0,-0.8636 0.2921,-1.5762 0.8763,-2.1421 0.5842,-0.5644 1.3222,-0.8466 2.2155,-0.8466zm0.0324 0.7845c-0.6604,0 -1.2051,0.2075 -1.6298,0.6209 -0.4262,0.4135 -0.6393,0.9412 -0.6393,1.5833 0,0.6223 0.2131,1.1402 0.6407,1.5536 0.4276,0.4135 0.9624,0.6209 1.6044,0.6209 0.6449,0 1.1825,-0.2116 1.6143,-0.6321 0.4318,-0.422 0.6463,-0.9469 0.6463,-1.5763 0,-0.611 -0.2145,-1.126 -0.6463,-1.5437 -0.4318,-0.4177 -0.9609,-0.6266 -1.5903,-0.6266zm3.6096 -0.7112l4.8232 0 0 0.7366 -2.0122 0 0 5.0476 -0.8312 0 0 -5.0476 -1.9798 0 0 -0.7366zm5.1139 0l4.8232 0 0 0.7366 -2.0122 0 0 5.0476 -0.8312 0 0 -5.0476 -1.9798 0 0 -0.7366zm8.4414 -0.0733c0.8932,0 1.6369,0.2822 2.2309,0.8466 0.5927,0.5659 0.8904,1.2743 0.8904,2.1252 0,0.8523 -0.3005,1.5564 -0.8988,2.1152 -0.5998,0.5574 -1.3561,0.8368 -2.2677,0.8368 -0.8707,0 -1.5974,-0.2794 -2.1774,-0.8368 -0.5799,-0.5588 -0.8692,-1.2587 -0.8692,-2.0983 0,-0.8636 0.2921,-1.5762 0.8763,-2.1421 0.5842,-0.5644 1.3222,-0.8466 2.2155,-0.8466zm0.0324 0.7845c-0.6604,0 -1.2051,0.2075 -1.6298,0.6209 -0.4262,0.4135 -0.6393,0.9412 -0.6393,1.5833 0,0.6223 0.2131,1.1402 0.6407,1.5536 0.4276,0.4135 0.9624,0.6209 1.6044,0.6209 0.6449,0 1.1825,-0.2116 1.6143,-0.6321 0.4318,-0.422 0.6463,-0.9469 0.6463,-1.5763 0,-0.611 -0.2145,-1.126 -0.6463,-1.5437 -0.4318,-0.4177 -0.9609,-0.6266 -1.5903,-0.6266zm5.5316 2.6501l-0.628 -0.3796c-0.3951,-0.2399 -0.6745,-0.4769 -0.8424,-0.7098 -0.1665,-0.2328 -0.2498,-0.5009 -0.2498,-0.8043 0,-0.4544 0.1581,-0.8241 0.4742,-1.1077 0.3146,-0.2837 0.7253,-0.4262 1.2291,-0.4262 0.4826,0 0.9242,0.1355 1.3278,0.4064l0 0.9384c-0.4163,-0.4008 -0.865,-0.5997 -1.3448,-0.5997 -0.2695,0 -0.491,0.0621 -0.6646,0.1877 -0.1736,0.1255 -0.2611,0.2864 -0.2611,0.4811 0,0.1736 0.0635,0.3373 0.1905,0.4883 0.127,0.1524 0.3316,0.3104 0.6153,0.4755l0.6336 0.3726c0.7055,0.4191 1.0583,0.9539 1.0583,1.603 0,0.4643 -0.1552,0.8396 -0.4657,1.1289 -0.3104,0.2893 -0.7126,0.4346 -1.2093,0.4346 -0.5701,0 -1.0894,-0.175 -1.5579,-0.5249l0 -1.0499c0.4459,0.5645 0.9624,0.8467 1.5494,0.8467 0.2597,0 0.4756,-0.072 0.6477,-0.2173 0.1722,-0.144 0.2583,-0.326 0.2583,-0.5433 0,-0.3528 -0.254,-0.6858 -0.7606,-1.0005zm12.1298 1.0838l0 0.9087c-0.6067,0.3316 -1.3067,0.4967 -2.1011,0.4967 -0.6449,0 -1.191,-0.1298 -1.6411,-0.3894 -0.4488,-0.2583 -0.8044,-0.6153 -1.0669,-1.0697 -0.261,-0.4558 -0.3922,-0.9468 -0.3922,-1.476 0,-0.841 0.2991,-1.548 0.8988,-2.1209 0.5998,-0.5729 1.3392,-0.8608 2.2183,-0.8608 0.6068,0 1.2799,0.1595 2.0221,0.4756l0 0.889c-0.6759,-0.3853 -1.3363,-0.5786 -1.9812,-0.5786 -0.6604,0 -1.2107,0.2088 -1.6467,0.6265 -0.4375,0.4177 -0.6562,0.9398 -0.6562,1.5692 0,0.6336 0.2159,1.1543 0.6449,1.5621 0.4304,0.4078 0.9807,0.6124 1.6496,0.6124 0.6999,0 1.3843,-0.2159 2.0517,-0.6448zm3.8524 -4.5184c0.8932,0 1.6369,0.2822 2.2309,0.8466 0.5927,0.5659 0.8904,1.2743 0.8904,2.1252 0,0.8523 -0.3005,1.5564 -0.8988,2.1152 -0.5998,0.5574 -1.3561,0.8368 -2.2677,0.8368 -0.8707,0 -1.5974,-0.2794 -2.1774,-0.8368 -0.5799,-0.5588 -0.8692,-1.2587 -0.8692,-2.0983 0,-0.8636 0.2921,-1.5762 0.8763,-2.1421 0.5842,-0.5644 1.3222,-0.8466 2.2155,-0.8466zm0.0324 0.7845c-0.6604,0 -1.2051,0.2075 -1.6298,0.6209 -0.4262,0.4135 -0.6393,0.9412 -0.6393,1.5833 0,0.6223 0.2131,1.1402 0.6407,1.5536 0.4276,0.4135 0.9624,0.6209 1.6044,0.6209 0.6449,0 1.1825,-0.2116 1.6143,-0.6321 0.4318,-0.422 0.6463,-0.9469 0.6463,-1.5763 0,-0.611 -0.2145,-1.126 -0.6463,-1.5437 -0.4318,-0.4177 -0.9609,-0.6266 -1.5903,-0.6266zm8.6981 -0.7027l0.7691 0 0 5.7757 -0.8312 0 0 -4.4944 -1.778 2.2324 -0.1524 0 -1.7949 -2.2324 0 4.4944 -0.8269 0 0 -5.7757 0.7775 0 1.9234 2.3735 1.9134 -2.3735zm-19.4847 3.6853c-0.4407,0.4405 -1.1616,0.4394 -1.6015,-0.0008 -0.4399,-0.4402 -0.44,-1.1605 0.0007,-1.601 0.4405,-0.4402 1.1616,-0.44 1.6013,-0.0001 0.4399,0.4402 0.44,1.1617 -0.0005,1.6019z"/>
 </g>
</svg>
