<svg xmlns="http://www.w3.org/2000/svg" xml:space="preserve" width="26" height="26" viewBox="0 0 26.5 26.5" style="fill-rule:evenodd;image-rendering:optimizeQuality;shape-rendering:geometricPrecision;text-rendering:geometricPrecision"><defs><style type="text/css">
    .fil0 {fill:#ffffff}
   </style></defs><path class="fil0" d="M13.2 1.8c6.3 0 11.5 5.1 11.5 11.5 0 6.3-5.1 11.5-11.5 11.5-6.3 0-11.5-5.1-11.5-11.5 0-6.3 5.1-11.5 11.5-11.5zm0 0.9c5.8 0 10.6 4.7 10.6 10.6 0 5.8-4.7 10.6-10.6 10.6-5.8 0-10.6-4.7-10.6-10.6 0-5.8 4.7-10.6 10.6-10.6zm-1.6 5.2l0 10.8-3 0 0-5.8c0-0.8 0-1.3-0.1-1.5 0-0.2-0.2-0.3-0.4-0.4-0.2-0.1-0.6-0.1-1.3-0.1l-0.3 0 0-1.3c1.4-0.3 2.5-0.9 3.3-1.7l1.7 0zm6.8 4.7c0.4 0.2 0.8 0.4 1 0.7 0.2 0.3 0.4 1.1 0.4 2.3 0 0.9-0.1 1.5-0.3 1.9-0.2 0.4-0.5 0.8-1.1 1-0.5 0.3-1.3 0.4-2.2 0.4-0.9 0-1.6-0.1-2.1-0.4-0.5-0.3-0.9-0.6-1.1-1-0.2-0.4-0.3-1.1-0.3-2.1 0-0.7 0.1-1.2 0.2-1.7 0.1-0.5 0.5-0.9 1-1.2-0.4-0.2-0.6-0.4-0.8-0.8-0.2-0.3-0.3-0.8-0.3-1.3 0-0.9 0.3-1.6 0.9-2.1 0.6-0.5 1.4-0.7 2.5-0.7 1.3 0 2.2 0.2 2.7 0.7 0.5 0.5 0.7 1.2 0.7 2.1 0 0.6-0.1 1-0.2 1.3-0.2 0.3-0.5 0.5-1 0.8zm-1.7-2.3c0-0.4 0-0.6-0.1-0.7-0.1-0.1-0.2-0.2-0.4-0.2-0.2 0-0.3 0.1-0.4 0.2-0.1 0.1-0.1 0.4-0.1 0.7l0 0.8c0 0.3 0 0.6 0.1 0.7 0.1 0.1 0.2 0.2 0.4 0.2 0.2 0 0.3-0.1 0.4-0.2 0.1-0.1 0.1-0.4 0.1-0.8l0-0.7zm0.1 4.5c0-0.4 0-0.7-0.1-0.8-0.1-0.1-0.2-0.2-0.4-0.2-0.2 0-0.3 0.1-0.4 0.2-0.1 0.1-0.1 0.4-0.1 0.8l0 1.4c0 0.5 0 0.8 0.1 0.9 0.1 0.1 0.2 0.2 0.5 0.2 0.2 0 0.4-0.1 0.4-0.2 0.1-0.1 0.1-0.4 0.1-0.9l0-1.4z"/></svg>