<svg xmlns="http://www.w3.org/2000/svg" xml:space="preserve" width="26" height="26" viewBox="0 0 26.5 26.5" style="fill-rule:evenodd;image-rendering:optimizeQuality;shape-rendering:geometricPrecision;text-rendering:geometricPrecision"><defs><style type="text/css">
    .fil0 {fill:#ffffff}
   </style></defs><path class="fil0" d="M13.2 1.4c3.2 0 6.3 0.7 9.2 2.1l0.5 0.2 0.1 0.6c0.6 4.7 0.3 9.7-2.2 13.8-1.7 2.9-4.2 5-7.2 6.6l-0.5 0.3-0.5-0.3c-2.9-1.6-5.5-3.7-7.2-6.6-2.5-4.2-2.8-9.1-2.1-13.8l0.1-0.6 0.5-0.2c2.9-1.3 6-2.1 9.2-2.1zm0 1c-3.3 0-6.2 0.8-8.8 2-1.2 8.9 1.5 15.5 8.8 19.4 7.3-3.9 10-10.5 8.8-19.4-2.6-1.2-5.5-2-8.8-2zm-8.4 2.2c-0.3 2.3-0.4 4.6 0 6.9 0.3 1.8 0.8 3.6 1.7 5.3l13.4 0c0.9-1.6 1.4-3.4 1.7-5.3 0.3-2.3 0.3-4.6 0-6.9-2.7-1.2-5.4-1.8-8.4-1.8-3 0-5.7 0.6-8.4 1.8zm3.1 14.4c1.4 1.8 3.2 3.2 5.3 4.3 2-1.1 3.8-2.5 5.3-4.3l-10.5 0zm-1.3-13.1l0.3 1 1 0-0.8 0.6 0.3 1-0.8-0.6-0.8 0.6 0.3-1-0.8-0.6 1 0 0.3-1zm3.5 3.6l0.5 1.4 1.5 0-1.2 0.9 0.5 1.4-1.2-0.9-1.2 0.9 0.5-1.4-1.2-0.9 1.5 0 0.5-1.4z"/></svg>