<svg xmlns="http://www.w3.org/2000/svg" xml:space="preserve" width="58" height="58" viewBox="0 0 58 58" style="clip-rule:evenodd;fill-rule:evenodd;image-rendering:optimizeQuality;shape-rendering:geometricPrecision;text-rendering:geometricPrecision"><defs><style type="text/css">
    .fil0 {fill:#ffffff}
   </style></defs><g id="Layer_x0020_1"><metadata id="CorelCorpID_0Corel-Layer"/><path class="fil0" d="M28.76 28.62l4.99 0c-0.16 1.23-0.91 2.14-1.96 2.14l-3.22 0-0.1 0c-1.86-0.01-3.71-0.34-4.76-1.32-1.07-1-1.31-2.68-1.05-4.73 0.26-2.05 0.93-3.73 2.25-4.72 1.3-0.98 3.22-1.31 5.08-1.32l0.11 0 4.9 0c-0.16 1.23-0.91 2.14-1.96 2.14l-3.23 0c-1.04 0-1.58 0.04-2.48 0.72-0.89 0.67-1.2 2.24-1.32 3.18-0.12 0.94-0.21 2.51 0.51 3.18 0.71 0.66 1.23 0.72 2.22 0.72zm0.35-13.21c5.14 0 9.31 4.17 9.31 9.31 0 5.14-4.17 9.31-9.31 9.31-5.14 0-9.31-4.17-9.31-9.31 0-5.14 4.17-9.31 9.31-9.31zm-4.76-3.79c0.14 0.01 0.28 0.04 0.42 0.07 1.1 0.26 2.11 0.05 3.02-0.63 0.91-0.68 1.81-0.68 2.71 0.01 0.9 0.69 1.91 0.9 3.01 0.65 0.12-0.03 0.24-0.05 0.35-0.06l0-0.34c0-2.63-2.13-4.76-4.76-4.76-2.63 0-4.76 2.13-4.76 4.76l0 0.3zm11.74 25.2c-1.13-0.03-2.07 0.39-2.82 1.25-0.74 0.86-1.63 1.04-2.65 0.56-1.03-0.49-2.05-0.49-3.08-0.01-1.03 0.48-1.91 0.29-2.65-0.57-0.74-0.86-1.68-1.28-2.81-1.26-1.13 0.02-1.86-0.51-2.19-1.6-0.33-1.09-1.01-1.85-2.06-2.29-1.05-0.44-1.49-1.23-1.35-2.35 0.15-1.13-0.17-2.1-0.94-2.93-0.77-0.83-0.87-1.73-0.28-2.7 0.59-0.97 0.7-1.99 0.33-3.06-0.37-1.07-0.09-1.93 0.84-2.58 0.93-0.65 1.45-1.53 1.55-2.66 0.1-1.13 0.7-1.8 1.82-2.01l0 0 0-3.27c0-5.14 4.17-9.31 9.31-9.31 5.14 0 9.31 4.17 9.31 9.31l0 3.31c0.02 0 0.04 0.01 0.06 0.01 1.11 0.22 1.72 0.89 1.81 2.02 0.09 1.13 0.6 2.02 1.53 2.67 0.93 0.65 1.21 1.51 0.83 2.58-0.38 1.07-0.27 2.09 0.31 3.06 0.59 0.97 0.49 1.87-0.29 2.7-0.78 0.83-1.1 1.8-0.96 2.93 0.14 1.13-0.31 1.91-1.36 2.35-1.05 0.44-1.74 1.2-2.07 2.28-0.33 1.09-1.06 1.62-2.2 1.59zm8.96 18.59c0 0.03 0 0.05-0.01 0.08 0 0.02-0.01 0.04-0.02 0.06-0.01 0.02-0.02 0.03-0.03 0.03-0.01 0.01-0.03 0.01-0.04 0.01l-2 0c-0.04 0-0.08-0.01-0.12-0.04-0.04-0.03-0.06-0.08-0.06-0.16l0-3.85c0-0.08 0.02-0.13 0.06-0.16 0.04-0.03 0.08-0.05 0.12-0.05l1.97 0c0.01 0 0.03 0 0.04 0.01 0.01 0.01 0.02 0.02 0.03 0.04 0.01 0.02 0.02 0.03 0.02 0.06 0 0.02 0.01 0.05 0.01 0.08 0 0.03 0 0.05-0.01 0.08 0 0.02-0.01 0.04-0.02 0.06-0.01 0.01-0.02 0.02-0.03 0.03-0.01 0.01-0.03 0.01-0.04 0.01l-1.75 0 0 1.5 1.51 0c0.02 0 0.03 0 0.05 0.01 0.01 0.01 0.02 0.02 0.03 0.03 0.01 0.01 0.02 0.03 0.02 0.06 0 0.02 0.01 0.05 0.01 0.08 0 0.03 0 0.05-0.01 0.07 0 0.02-0.01 0.04-0.02 0.05-0.01 0.01-0.02 0.02-0.03 0.03-0.01 0.01-0.03 0.01-0.05 0.01l-1.51 0 0 1.7 1.78 0c0.02 0 0.03 0 0.04 0.01 0.01 0.01 0.02 0.02 0.03 0.03 0.01 0.01 0.02 0.03 0.02 0.06 0 0.02 0.01 0.05 0.01 0.08zm-2.97-3.91c0 0.03 0 0.05-0.01 0.08 0 0.02-0.01 0.04-0.02 0.06-0.01 0.01-0.02 0.02-0.03 0.03-0.01 0.01-0.03 0.01-0.04 0.01l-1.27 0 0 3.84c0 0.01 0 0.03-0.01 0.04-0.01 0.01-0.02 0.02-0.03 0.03-0.02 0.01-0.04 0.01-0.06 0.02-0.03 0-0.06 0.01-0.1 0.01-0.04 0-0.07 0-0.1-0.01-0.03 0-0.05-0.01-0.06-0.02-0.02-0.01-0.03-0.02-0.03-0.03-0.01-0.01-0.01-0.02-0.01-0.04l0-3.84-1.27 0c-0.02 0-0.03 0-0.04-0.01-0.01-0.01-0.02-0.02-0.03-0.03-0.01-0.01-0.01-0.03-0.02-0.06 0-0.02-0.01-0.05-0.01-0.08 0-0.03 0-0.06 0.01-0.08 0-0.02 0.01-0.04 0.02-0.06 0.01-0.02 0.02-0.03 0.03-0.04 0.01-0.01 0.03-0.01 0.05-0.01l2.95 0c0.01 0 0.03 0 0.04 0.01 0.01 0.01 0.02 0.02 0.03 0.04 0.01 0.02 0.02 0.03 0.02 0.06 0 0.02 0.01 0.05 0.01 0.08zm-4.61 0.25l0 0-0.81 2.3 1.63 0-0.82-2.3zm1.77 3.7c0.01 0.03 0.02 0.06 0.02 0.08 0 0.02-0.01 0.04-0.02 0.05-0.01 0.01-0.04 0.02-0.07 0.02-0.03 0-0.07 0.01-0.11 0.01-0.05 0-0.08 0-0.11-0.01-0.03 0-0.05-0.01-0.06-0.01-0.02-0.01-0.03-0.02-0.03-0.03-0.01-0.01-0.01-0.02-0.02-0.04l-0.41-1.14-1.87 0-0.39 1.13c0 0.01-0.01 0.03-0.02 0.04-0.01 0.01-0.02 0.02-0.04 0.03-0.01 0.01-0.04 0.01-0.06 0.02-0.03 0-0.06 0.01-0.1 0.01-0.05 0-0.08 0-0.12-0.01-0.03 0-0.05-0.01-0.07-0.02-0.01-0.01-0.02-0.03-0.02-0.05 0-0.02 0-0.05 0.02-0.08l1.49-4.06c0.01-0.02 0.02-0.03 0.03-0.04 0.01-0.01 0.03-0.02 0.05-0.03 0.02-0.01 0.05-0.01 0.08-0.01 0.03 0 0.06-0.01 0.1-0.01 0.04 0 0.07 0 0.1 0.01 0.03 0 0.06 0.01 0.08 0.01 0.02 0.01 0.04 0.02 0.05 0.03 0.01 0.01 0.02 0.03 0.03 0.04l1.49 4.06zm-3.85-0.45c0 0.02 0 0.05 0 0.07 0 0.02-0.01 0.04-0.01 0.05 0 0.02-0.01 0.03-0.02 0.04-0.01 0.01-0.02 0.03-0.04 0.05-0.02 0.02-0.07 0.06-0.14 0.1-0.07 0.05-0.16 0.09-0.27 0.14-0.11 0.05-0.23 0.09-0.37 0.12-0.14 0.03-0.29 0.05-0.46 0.05-0.27 0-0.51-0.05-0.73-0.14-0.22-0.09-0.4-0.23-0.56-0.41-0.15-0.18-0.27-0.4-0.35-0.67-0.08-0.26-0.12-0.57-0.12-0.9 0-0.35 0.05-0.66 0.13-0.93 0.09-0.28 0.21-0.51 0.37-0.7 0.16-0.19 0.35-0.34 0.57-0.44 0.22-0.1 0.47-0.15 0.74-0.15 0.13 0 0.25 0.01 0.37 0.04 0.12 0.02 0.23 0.06 0.33 0.09 0.1 0.04 0.19 0.08 0.27 0.13 0.08 0.05 0.14 0.09 0.17 0.12 0.03 0.03 0.05 0.05 0.06 0.07 0.01 0.01 0.01 0.03 0.02 0.04 0 0.02 0.01 0.03 0.01 0.06 0 0.02 0 0.04 0 0.07 0 0.03 0 0.06-0.01 0.08 0 0.02-0.01 0.04-0.02 0.06-0.01 0.02-0.02 0.03-0.03 0.04-0.01 0.01-0.02 0.01-0.04 0.01-0.03 0-0.07-0.02-0.13-0.07-0.06-0.04-0.13-0.1-0.22-0.15-0.09-0.05-0.2-0.1-0.33-0.15-0.13-0.04-0.29-0.07-0.47-0.07-0.2 0-0.38 0.04-0.55 0.12-0.17 0.08-0.31 0.2-0.43 0.35-0.12 0.16-0.21 0.35-0.28 0.58-0.07 0.23-0.1 0.49-0.1 0.79 0 0.28 0.03 0.53 0.09 0.76 0.06 0.22 0.15 0.41 0.27 0.56 0.12 0.15 0.26 0.27 0.43 0.35 0.17 0.08 0.37 0.12 0.58 0.12 0.18 0 0.33-0.02 0.47-0.07 0.13-0.05 0.25-0.1 0.34-0.15 0.09-0.06 0.17-0.11 0.23-0.15 0.06-0.05 0.11-0.07 0.14-0.07 0.01 0 0.02 0 0.03 0.01 0.01 0.01 0.02 0.01 0.02 0.03 0.01 0.01 0.01 0.03 0.01 0.06 0 0.02 0 0.05 0 0.09zm-4.04 0.51c0 0.01 0 0.03-0.01 0.04-0.01 0.01-0.02 0.02-0.03 0.03-0.02 0.01-0.04 0.01-0.06 0.02-0.03 0-0.06 0.01-0.1 0.01-0.04 0-0.07 0-0.1-0.01-0.03 0-0.05-0.01-0.06-0.02-0.02-0.01-0.03-0.02-0.03-0.03-0.01-0.01-0.01-0.02-0.01-0.04l0-4.14c0-0.01 0-0.03 0.01-0.04 0.01-0.01 0.02-0.02 0.04-0.03 0.02-0.01 0.04-0.01 0.06-0.02 0.02 0 0.06-0.01 0.09-0.01 0.04 0 0.07 0 0.1 0.01 0.02 0 0.04 0.01 0.06 0.02 0.02 0.01 0.03 0.02 0.03 0.03 0.01 0.01 0.01 0.02 0.01 0.04l0 4.14zm-1.35-4.02c0 0.03 0 0.05-0.01 0.08 0 0.02-0.01 0.04-0.02 0.06-0.01 0.01-0.02 0.02-0.03 0.03-0.01 0.01-0.03 0.01-0.04 0.01l-1.65 0 0 1.62 1.57 0c0.01 0 0.03 0 0.04 0.01 0.01 0.01 0.02 0.01 0.03 0.03 0.01 0.01 0.02 0.03 0.02 0.05 0 0.02 0.01 0.05 0.01 0.08 0 0.03 0 0.05-0.01 0.08 0 0.02-0.01 0.04-0.02 0.05-0.01 0.01-0.02 0.02-0.03 0.03-0.01 0.01-0.03 0.01-0.04 0.01l-1.57 0 0 1.88c0 0.01 0 0.03-0.01 0.04-0.01 0.01-0.02 0.02-0.03 0.03-0.02 0.01-0.04 0.01-0.06 0.02-0.03 0-0.06 0.01-0.1 0.01-0.04 0-0.07 0-0.1-0.01-0.03 0-0.05-0.01-0.06-0.02-0.02-0.01-0.03-0.02-0.03-0.03-0.01-0.01-0.01-0.02-0.01-0.04l0-3.99c0-0.08 0.02-0.13 0.06-0.16 0.04-0.03 0.08-0.05 0.12-0.05l1.87 0c0.02 0 0.03 0 0.04 0.01 0.01 0.01 0.02 0.02 0.03 0.04 0.01 0.02 0.02 0.03 0.02 0.06 0 0.02 0.01 0.05 0.01 0.08zm-3.41 4.02c0 0.01 0 0.03-0.01 0.04-0.01 0.01-0.02 0.02-0.03 0.03-0.02 0.01-0.04 0.01-0.06 0.02-0.03 0-0.06 0.01-0.1 0.01-0.04 0-0.07 0-0.1-0.01-0.03 0-0.05-0.01-0.06-0.02-0.02-0.01-0.03-0.02-0.03-0.03-0.01-0.01-0.01-0.02-0.01-0.04l0-4.14c0-0.01 0-0.03 0.01-0.04 0.01-0.01 0.02-0.02 0.04-0.03 0.02-0.01 0.04-0.01 0.06-0.02 0.02 0 0.06-0.01 0.09-0.01 0.04 0 0.07 0 0.1 0.01 0.02 0 0.05 0.01 0.06 0.02 0.02 0.01 0.03 0.02 0.03 0.03 0.01 0.01 0.01 0.02 0.01 0.04l0 4.14zm-1.08-4.02c0 0.03 0 0.05-0.01 0.08 0 0.02-0.01 0.04-0.02 0.06-0.01 0.01-0.02 0.02-0.03 0.03-0.01 0.01-0.03 0.01-0.04 0.01l-1.27 0 0 3.84c0 0.01 0 0.03-0.01 0.04-0.01 0.01-0.02 0.02-0.03 0.03-0.02 0.01-0.04 0.01-0.06 0.02-0.03 0-0.06 0.01-0.1 0.01-0.04 0-0.07 0-0.1-0.01-0.03 0-0.05-0.01-0.06-0.02-0.02-0.01-0.03-0.02-0.03-0.03-0.01-0.01-0.01-0.02-0.01-0.04l0-3.84-1.27 0c-0.02 0-0.03 0-0.04-0.01-0.01-0.01-0.02-0.02-0.03-0.03-0.01-0.01-0.01-0.03-0.02-0.06 0-0.02-0.01-0.05-0.01-0.08 0-0.03 0-0.06 0.01-0.08 0-0.02 0.01-0.04 0.02-0.06 0.01-0.02 0.02-0.03 0.03-0.04 0.01-0.01 0.03-0.01 0.05-0.01l2.95 0c0.01 0 0.03 0 0.04 0.01 0.01 0.01 0.02 0.02 0.03 0.04 0.01 0.02 0.02 0.03 0.02 0.06 0 0.02 0.01 0.05 0.01 0.08zm-4.15 0.96c0-0.18-0.04-0.34-0.12-0.46-0.08-0.13-0.22-0.22-0.41-0.27-0.06-0.02-0.13-0.03-0.21-0.04-0.08-0.01-0.17-0.01-0.29-0.01l-0.53 0 0 1.57 0.61 0c0.17 0 0.31-0.02 0.43-0.06 0.12-0.04 0.22-0.1 0.29-0.17 0.08-0.07 0.14-0.15 0.17-0.25 0.04-0.09 0.05-0.2 0.05-0.31zm0.71 3.05c0 0.01 0 0.03-0.01 0.04 0 0.01-0.02 0.02-0.03 0.03-0.02 0.01-0.04 0.01-0.07 0.02-0.03 0-0.06 0.01-0.1 0.01-0.04 0-0.07 0-0.09-0.01-0.03 0-0.05-0.01-0.06-0.02-0.02-0.01-0.03-0.02-0.04-0.04-0.01-0.02-0.02-0.04-0.03-0.06l-0.4-1.04c-0.05-0.12-0.1-0.23-0.15-0.33-0.05-0.1-0.12-0.19-0.19-0.27-0.08-0.08-0.17-0.14-0.27-0.18-0.11-0.04-0.23-0.07-0.38-0.07l-0.44 0 0 1.92c0 0.01 0 0.03-0.01 0.04-0.01 0.01-0.02 0.02-0.03 0.03-0.02 0.01-0.04 0.01-0.06 0.02-0.03 0-0.06 0.01-0.1 0.01-0.04 0-0.07 0-0.1-0.01-0.03 0-0.05-0.01-0.06-0.02-0.02-0.01-0.03-0.02-0.03-0.03-0.01-0.01-0.01-0.02-0.01-0.04l0-3.99c0-0.08 0.02-0.13 0.06-0.16 0.04-0.03 0.08-0.05 0.12-0.05l0.8 0c0.1 0 0.19 0 0.26 0.01 0.07 0.01 0.13 0.01 0.19 0.02 0.16 0.03 0.31 0.08 0.43 0.14 0.12 0.06 0.22 0.14 0.3 0.24 0.08 0.09 0.14 0.2 0.18 0.32 0.04 0.12 0.06 0.24 0.06 0.38 0 0.14-0.02 0.27-0.06 0.38-0.04 0.11-0.1 0.21-0.17 0.29-0.07 0.08-0.16 0.16-0.26 0.22-0.1 0.06-0.21 0.11-0.33 0.15 0.07 0.03 0.14 0.07 0.2 0.12 0.06 0.05 0.11 0.11 0.16 0.17 0.05 0.07 0.1 0.15 0.14 0.24 0.04 0.09 0.09 0.19 0.13 0.3l0.4 1c0.03 0.08 0.05 0.13 0.06 0.16 0.01 0.03 0.01 0.05 0.01 0.06zm-3.69-0.11c0 0.03 0 0.05-0.01 0.08 0 0.02-0.01 0.04-0.02 0.06-0.01 0.02-0.02 0.03-0.03 0.03-0.01 0.01-0.03 0.01-0.04 0.01l-2 0c-0.04 0-0.08-0.01-0.12-0.04-0.04-0.03-0.06-0.08-0.06-0.16l0-3.85c0-0.08 0.02-0.13 0.06-0.16 0.04-0.03 0.08-0.05 0.12-0.05l1.97 0c0.01 0 0.03 0 0.04 0.01 0.01 0.01 0.02 0.02 0.03 0.04 0.01 0.02 0.02 0.03 0.02 0.06 0 0.02 0.01 0.05 0.01 0.08 0 0.03 0 0.05-0.01 0.08 0 0.02-0.01 0.04-0.02 0.06-0.01 0.01-0.02 0.02-0.03 0.03-0.01 0.01-0.03 0.01-0.04 0.01l-1.75 0 0 1.5 1.51 0c0.02 0 0.03 0 0.05 0.01 0.01 0.01 0.02 0.02 0.03 0.03 0.01 0.01 0.02 0.03 0.02 0.06 0 0.02 0.01 0.05 0.01 0.08 0 0.03 0 0.05-0.01 0.07 0 0.02-0.01 0.04-0.02 0.05-0.01 0.01-0.02 0.02-0.03 0.03-0.01 0.01-0.03 0.01-0.05 0.01l-1.51 0 0 1.7 1.78 0c0.02 0 0.03 0 0.04 0.01 0.01 0.01 0.02 0.02 0.03 0.03 0.01 0.01 0.02 0.03 0.02 0.06 0 0.02 0.01 0.05 0.01 0.08zm-3.11-0.4c0 0.02 0 0.05 0 0.07 0 0.02-0.01 0.04-0.01 0.05 0 0.02-0.01 0.03-0.02 0.04-0.01 0.01-0.02 0.03-0.04 0.05-0.02 0.02-0.07 0.06-0.14 0.1-0.07 0.05-0.16 0.09-0.27 0.14-0.11 0.05-0.23 0.09-0.37 0.12-0.14 0.03-0.29 0.05-0.46 0.05-0.27 0-0.51-0.05-0.73-0.14-0.22-0.09-0.4-0.23-0.56-0.41-0.15-0.18-0.27-0.4-0.35-0.67-0.08-0.26-0.12-0.57-0.12-0.9 0-0.35 0.05-0.66 0.13-0.93 0.09-0.28 0.21-0.51 0.37-0.7 0.16-0.19 0.35-0.34 0.57-0.44 0.22-0.1 0.47-0.15 0.74-0.15 0.13 0 0.25 0.01 0.37 0.04 0.12 0.02 0.23 0.06 0.33 0.09 0.1 0.04 0.19 0.08 0.27 0.13 0.08 0.05 0.14 0.09 0.17 0.12 0.03 0.03 0.05 0.05 0.06 0.07 0.01 0.01 0.01 0.03 0.02 0.04 0 0.02 0.01 0.03 0.01 0.06 0 0.02 0 0.04 0 0.07 0 0.03 0 0.06-0.01 0.08 0 0.02-0.01 0.04-0.02 0.06-0.01 0.02-0.02 0.03-0.03 0.04-0.01 0.01-0.02 0.01-0.04 0.01-0.03 0-0.07-0.02-0.13-0.07-0.06-0.04-0.13-0.1-0.22-0.15-0.09-0.05-0.2-0.1-0.33-0.15-0.13-0.04-0.29-0.07-0.47-0.07-0.2 0-0.38 0.04-0.55 0.12-0.17 0.08-0.31 0.2-0.43 0.35-0.12 0.16-0.21 0.35-0.28 0.58-0.07 0.23-0.1 0.49-0.1 0.79 0 0.28 0.03 0.53 0.09 0.76 0.06 0.22 0.15 0.41 0.27 0.56 0.12 0.15 0.26 0.27 0.43 0.35 0.17 0.08 0.37 0.12 0.58 0.12 0.18 0 0.33-0.02 0.47-0.07 0.13-0.05 0.25-0.1 0.34-0.15 0.09-0.06 0.17-0.11 0.23-0.15 0.06-0.05 0.11-0.07 0.14-0.07 0.01 0 0.02 0 0.03 0.01 0.01 0.01 0.02 0.01 0.02 0.03 0.01 0.01 0.01 0.03 0.01 0.06 0 0.02 0 0.05 0 0.09zm-6.22-3.65c0.11-0.02 0.21-0.03 0.3-0.04 0.09-0.01 0.17-0.01 0.24-0.01 0.07 0 0.15 0 0.24 0.01 0.09 0.01 0.19 0.02 0.29 0.04l0 3.29 1.4 0c0.02 0.1 0.03 0.18 0.04 0.26 0.01 0.07 0.01 0.14 0.01 0.2 0 0.07 0 0.14-0.01 0.21-0.01 0.07-0.02 0.16-0.04 0.26l-2.47 0 0-4.22zm-1.72 1.64c0.17 0.07 0.32 0.13 0.46 0.2 0.14 0.07 0.25 0.15 0.35 0.25 0.1 0.1 0.17 0.21 0.22 0.35 0.05 0.14 0.08 0.3 0.08 0.49 0 0.21-0.04 0.4-0.11 0.56-0.07 0.17-0.18 0.31-0.33 0.43-0.15 0.12-0.32 0.21-0.54 0.28-0.21 0.06-0.45 0.1-0.73 0.1-0.25 0-0.47-0.02-0.66-0.06-0.19-0.04-0.4-0.1-0.62-0.18 0.02-0.14 0.04-0.28 0.08-0.44 0.04-0.15 0.09-0.31 0.15-0.47 0.37 0.16 0.69 0.24 0.97 0.24 0.21 0 0.37-0.03 0.48-0.09 0.11-0.06 0.17-0.17 0.17-0.31 0-0.06-0.01-0.12-0.04-0.16-0.02-0.05-0.06-0.08-0.1-0.11-0.04-0.03-0.09-0.06-0.14-0.08-0.05-0.02-0.1-0.04-0.15-0.06l-0.34-0.12c-0.15-0.05-0.28-0.11-0.4-0.18-0.12-0.07-0.22-0.15-0.31-0.25-0.08-0.1-0.15-0.21-0.2-0.33-0.05-0.13-0.07-0.27-0.07-0.44 0-0.21 0.04-0.39 0.11-0.55 0.07-0.16 0.17-0.3 0.31-0.41 0.13-0.11 0.29-0.2 0.47-0.25 0.19-0.06 0.39-0.09 0.62-0.09 0.21 0 0.4 0.02 0.6 0.06 0.19 0.04 0.4 0.1 0.61 0.17-0.02 0.13-0.05 0.26-0.09 0.41-0.04 0.15-0.1 0.29-0.16 0.43-0.1-0.04-0.23-0.09-0.37-0.14-0.14-0.05-0.32-0.07-0.53-0.07-0.06 0-0.13 0.01-0.18 0.02-0.06 0.01-0.11 0.03-0.16 0.06-0.05 0.03-0.08 0.06-0.11 0.11-0.03 0.05-0.04 0.1-0.04 0.17 0 0.11 0.04 0.2 0.12 0.25 0.08 0.05 0.17 0.1 0.27 0.14l0.29 0.11zm-3.41 0c0.17 0.07 0.32 0.13 0.46 0.2 0.14 0.07 0.25 0.15 0.35 0.25 0.1 0.1 0.17 0.21 0.22 0.35 0.05 0.14 0.08 0.3 0.08 0.49 0 0.21-0.04 0.4-0.11 0.56-0.07 0.17-0.18 0.31-0.33 0.43-0.15 0.12-0.32 0.21-0.54 0.28-0.21 0.06-0.45 0.1-0.73 0.1-0.25 0-0.47-0.02-0.66-0.06-0.19-0.04-0.4-0.1-0.62-0.18 0.02-0.14 0.04-0.28 0.08-0.44 0.04-0.15 0.09-0.31 0.15-0.47 0.37 0.16 0.69 0.24 0.97 0.24 0.21 0 0.37-0.03 0.48-0.09 0.11-0.06 0.17-0.17 0.17-0.31 0-0.06-0.01-0.12-0.04-0.16-0.02-0.05-0.06-0.08-0.1-0.11-0.04-0.03-0.09-0.06-0.14-0.08-0.05-0.02-0.1-0.04-0.15-0.06l-0.34-0.12c-0.15-0.05-0.28-0.11-0.4-0.18-0.12-0.07-0.22-0.15-0.31-0.25-0.08-0.1-0.15-0.21-0.2-0.33-0.05-0.13-0.07-0.27-0.07-0.44 0-0.21 0.04-0.39 0.11-0.55 0.07-0.16 0.17-0.3 0.31-0.41 0.13-0.11 0.29-0.2 0.47-0.25 0.19-0.06 0.39-0.09 0.62-0.09 0.21 0 0.4 0.02 0.6 0.06 0.19 0.04 0.4 0.1 0.61 0.17-0.02 0.13-0.05 0.26-0.09 0.41-0.04 0.15-0.1 0.29-0.16 0.43-0.1-0.04-0.23-0.09-0.37-0.14-0.14-0.05-0.32-0.07-0.53-0.07-0.06 0-0.13 0.01-0.18 0.02-0.06 0.01-0.11 0.03-0.16 0.06-0.05 0.03-0.08 0.06-0.11 0.11-0.03 0.05-0.04 0.1-0.04 0.17 0 0.11 0.04 0.2 0.12 0.25 0.08 0.05 0.17 0.1 0.27 0.14l0.29 0.11zm39.23-4.83l-1.49 0 0.36-2.83c0.09-0.72-0.18-1.11-0.8-1.11l-1.18 0-0.53 4.13c-0.09 0.72 0.18 1.11 0.8 1.11l0.67 0 0.52 0 1.44 0 0.06 0 0 0c1.13-0.01 2.31-0.2 3.1-0.8 0.8-0.61 1.22-1.63 1.37-2.88 0.16-1.25 0.01-2.27-0.64-2.88-0.64-0.6-1.77-0.8-2.9-0.8l-0.06 0-3.49 0c-0.09 0.75 0.22 1.3 0.86 1.31l2.47 0c0.64 0 0.95 0.03 1.4 0.44 0.44 0.41 0.39 1.37 0.31 1.94-0.07 0.57-0.26 1.53-0.81 1.94-0.54 0.41-0.86 0.44-1.47 0.44zm-38.56 0l3.04 0c-0.1 0.75-0.55 1.3-1.19 1.31l-1.96 0-0.06 0c-1.13-0.01-2.26-0.2-2.9-0.8-0.65-0.61-0.8-1.63-0.64-2.88 0.16-1.25 0.57-2.27 1.37-2.88 0.79-0.6 1.96-0.8 3.1-0.8l0.07 0 2.99 0c-0.1 0.75-0.55 1.3-1.19 1.31l-1.97 0c-0.64 0-0.96 0.03-1.51 0.44-0.54 0.41-0.73 1.37-0.81 1.94-0.07 0.57-0.12 1.53 0.31 1.94 0.43 0.41 0.75 0.44 1.35 0.44zm48.36 0.16c-0.64 0-0.95-0.08-1.39-0.52-0.44-0.43-0.38-1.43-0.3-2.03 0.08-0.6 0.27-1.6 0.82-2.02 0.55-0.43 0.88-0.52 1.52-0.52 0.64 0 0.95 0.08 1.39 0.52 0.44 0.43 0.38 1.43 0.3 2.02-0.08 0.6-0.27 1.6-0.82 2.03-0.55 0.43-0.88 0.52-1.52 0.52zm-3.74-2.54c0.17-1.31 0.58-2.37 1.39-3.01 0.81-0.64 2.02-0.84 3.17-0.84 1.15 0 2.29 0.2 2.94 0.84 0.65 0.64 0.79 1.7 0.62 3.01-0.17 1.31-0.58 2.38-1.39 3.01-0.81 0.64-2.01 0.84-3.16 0.84-1.15 0-2.31-0.2-2.96-0.84-0.65-0.64-0.79-1.71-0.62-3.01zm-15.63 2.54c-0.64 0-0.95-0.08-1.39-0.52-0.44-0.43-0.38-1.43-0.3-2.03 0.08-0.6 0.27-1.6 0.82-2.02 0.55-0.43 0.88-0.52 1.52-0.52 0.64 0 0.95 0.08 1.39 0.52 0.44 0.43 0.38 1.43 0.3 2.02-0.08 0.6-0.27 1.6-0.82 2.03-0.55 0.43-0.88 0.52-1.52 0.52zm-3.74-2.54c0.17-1.31 0.58-2.37 1.39-3.01 0.81-0.64 2.02-0.84 3.17-0.84 1.15 0 2.29 0.2 2.94 0.84 0.65 0.64 0.79 1.7 0.62 3.01-0.17 1.31-0.58 2.38-1.39 3.01-0.81 0.64-2.01 0.84-3.16 0.84-1.15 0-2.31-0.2-2.96-0.84-0.65-0.64-0.79-1.71-0.62-3.01zm-17.1 2.54c-0.64 0-0.95-0.08-1.39-0.52-0.44-0.43-0.38-1.43-0.3-2.03 0.08-0.6 0.27-1.6 0.82-2.02 0.55-0.43 0.88-0.52 1.52-0.52 0.64 0 0.95 0.08 1.39 0.52 0.44 0.43 0.38 1.43 0.3 2.02-0.08 0.6-0.27 1.6-0.82 2.03-0.55 0.43-0.88 0.52-1.52 0.52zm-3.74-2.54c0.17-1.31 0.58-2.37 1.39-3.01 0.81-0.64 2.02-0.84 3.17-0.84 1.15 0 2.29 0.2 2.94 0.84 0.65 0.64 0.79 1.7 0.62 3.01-0.17 1.31-0.58 2.38-1.39 3.01-0.81 0.64-2.01 0.84-3.16 0.84-1.15 0-2.31-0.2-2.96-0.84-0.65-0.64-0.79-1.71-0.62-3.01zm10.54-3.7l0.17 0 0.88 0c0.47 0 0.82 0.19 1.06 0.59l1.91 3.12 2.71-3.12c0.34-0.4 0.75-0.59 1.21-0.59l0.88 0 0.16 0-0.76 5.97-0.04 0.35c-0.09 0.69-0.57 1.08-1.2 1.08l-1.06 0c0.19-1.46 0.37-2.89 0.55-4.35l-2.14 2.78c-0.14 0.21-0.38 0.35-0.63 0.35-0.25 0-0.46-0.14-0.54-0.35l-1.43-2.78-0.42 3.28c-0.09 0.69-0.57 1.08-1.2 1.08l-1.06 0 0.94-7.4z"/></g></svg>