<svg xmlns="http://www.w3.org/2000/svg" xml:space="preserve" width="100" height="100" viewBox="0 0 26.46 26.46" style="fill-rule:evenodd;image-rendering:optimizeQuality;shape-rendering:geometricPrecision;text-rendering:geometricPrecision"><defs><style type="text/css">
    .fil0 {fill:#fff}
   </style></defs><path class="fil0" d="M8.99 16.01l0.1-0.01c0.01 0.04 0.02 0.06 0.05 0.08 0.02 0.02 0.06 0.03 0.11 0.03 0.05 0 0.08-0.01 0.1-0.02 0.02-0.02 0.03-0.04 0.03-0.06 0-0.02-0.01-0.04-0.03-0.05-0.01-0.01-0.05-0.02-0.1-0.03-0.07-0.02-0.12-0.03-0.15-0.04-0.03-0.01-0.05-0.03-0.06-0.05-0.01-0.02-0.02-0.04-0.02-0.07 0-0.02 0.01-0.04 0.02-0.06 0.01-0.02 0.03-0.04 0.05-0.05 0.02-0.01 0.04-0.02 0.06-0.03 0.03-0.01 0.06-0.01 0.09-0.01 0.05 0 0.09 0.01 0.12 0.02 0.03 0.01 0.06 0.03 0.08 0.05 0.02 0.02 0.03 0.05 0.03 0.08l-0.1 0.01c0-0.03-0.02-0.05-0.04-0.06-0.02-0.02-0.05-0.02-0.09-0.02-0.05 0-0.08 0.01-0.1 0.02-0.02 0.01-0.03 0.03-0.03 0.05 0 0.01 0 0.02 0.01 0.03 0.01 0.01 0.02 0.02 0.04 0.02 0.01 0 0.04 0.01 0.09 0.02 0.07 0.02 0.12 0.03 0.15 0.04 0.03 0.01 0.05 0.03 0.07 0.05 0.02 0.02 0.02 0.05 0.02 0.08 0 0.03-0.01 0.06-0.03 0.08-0.02 0.03-0.05 0.05-0.08 0.06-0.04 0.01-0.08 0.02-0.12 0.02-0.08 0-0.13-0.01-0.17-0.04-0.04-0.03-0.07-0.07-0.08-0.13zm1-0.01l0.1 0.01c-0.02 0.05-0.05 0.1-0.09 0.12-0.04 0.03-0.1 0.04-0.17 0.04-0.09 0-0.15-0.02-0.2-0.07-0.05-0.05-0.07-0.11-0.07-0.2 0-0.09 0.03-0.16 0.08-0.2 0.05-0.05 0.12-0.07 0.2-0.07 0.08 0 0.14 0.02 0.19 0.07 0.05 0.05 0.07 0.11 0.07 0.2 0 0.01 0 0.01 0 0.02l-0.43 0c0 0.06 0.02 0.1 0.05 0.13 0.03 0.03 0.07 0.05 0.12 0.05 0.04 0 0.07-0.01 0.09-0.03 0.03-0.02 0.05-0.04 0.06-0.08zm-0.32-0.14l0.33 0c0-0.04-0.02-0.08-0.04-0.1-0.03-0.03-0.07-0.05-0.12-0.05-0.05 0-0.08 0.01-0.11 0.04-0.03 0.03-0.05 0.06-0.05 0.11zm0.93 0.12l0.1 0.01c-0.01 0.06-0.04 0.11-0.08 0.14-0.04 0.03-0.1 0.05-0.16 0.05-0.08 0-0.14-0.02-0.19-0.07-0.05-0.05-0.07-0.11-0.07-0.2 0-0.06 0.01-0.11 0.03-0.15 0.02-0.04 0.05-0.07 0.1-0.1 0.04-0.02 0.09-0.03 0.14-0.03 0.06 0 0.12 0.01 0.16 0.04 0.04 0.03 0.07 0.07 0.08 0.12l-0.1 0.01c-0.01-0.04-0.03-0.06-0.05-0.08-0.02-0.02-0.05-0.03-0.08-0.03-0.05 0-0.09 0.02-0.12 0.05-0.03 0.03-0.05 0.08-0.05 0.15 0 0.07 0.02 0.12 0.05 0.15 0.03 0.03 0.07 0.05 0.12 0.05 0.04 0 0.07-0.01 0.1-0.03 0.03-0.02 0.04-0.05 0.05-0.1zm0.56 0.19l0-0.08c-0.05 0.06-0.11 0.09-0.19 0.09-0.03 0-0.07-0.01-0.1-0.02-0.03-0.01-0.05-0.03-0.07-0.04-0.01-0.02-0.02-0.04-0.03-0.07 0-0.02-0.01-0.05-0.01-0.08l0-0.32 0.1 0 0 0.29c0 0.05 0 0.08 0.01 0.09 0.01 0.02 0.02 0.04 0.04 0.06 0.02 0.01 0.05 0.02 0.07 0.02 0.03 0 0.06-0.01 0.08-0.02 0.03-0.01 0.04-0.03 0.06-0.06 0.01-0.02 0.02-0.06 0.02-0.1l0-0.28 0.1 0 0 0.52-0.09 0zm0.24 0l0-0.52 0.09 0 0 0.08c0.02-0.04 0.04-0.06 0.06-0.07 0.02-0.01 0.04-0.02 0.06-0.02 0.03 0 0.07 0.01 0.1 0.03l-0.03 0.08c-0.02-0.01-0.05-0.02-0.07-0.02-0.02 0-0.04 0.01-0.06 0.02-0.02 0.01-0.03 0.03-0.04 0.05-0.01 0.03-0.02 0.07-0.02 0.1l0 0.27-0.1 0zm0.38-0.62l0-0.1 0.1 0 0 0.1-0.1 0zm0 0.62l0-0.52 0.1 0 0 0.52-0.1 0zm0.47-0.08l0.01 0.08c-0.03 0.01-0.05 0.01-0.07 0.01-0.04 0-0.06 0-0.08-0.02-0.02-0.01-0.03-0.02-0.04-0.04-0.01-0.02-0.01-0.05-0.01-0.1l0-0.3-0.07 0 0-0.07 0.07 0 0-0.13 0.1-0.05 0 0.18 0.1 0 0 0.07-0.1 0 0 0.31c0 0.03 0 0.04 0.01 0.05 0 0.01 0.01 0.01 0.02 0.02 0.01 0 0.02 0.01 0.03 0.01 0.01 0 0.03 0 0.04 0zm0.09 0.28l-0.01-0.08c0.02 0.01 0.04 0.01 0.06 0.01 0.02 0 0.04 0 0.05-0.01 0.01-0.01 0.02-0.02 0.03-0.03 0.01-0.01 0.02-0.03 0.03-0.07 0 0 0-0.01 0.01-0.02l-0.22-0.52 0.11 0 0.12 0.3c0.02 0.04 0.03 0.08 0.04 0.12 0.01-0.04 0.02-0.08 0.04-0.12l0.12-0.3 0.1 0-0.22 0.53c-0.02 0.06-0.04 0.1-0.06 0.12-0.02 0.03-0.04 0.05-0.06 0.06-0.02 0.01-0.05 0.02-0.08 0.02-0.02 0-0.04 0-0.06-0.01zm1.26-0.39l0.1 0.01c-0.01 0.06-0.04 0.11-0.08 0.14-0.04 0.03-0.1 0.05-0.16 0.05-0.08 0-0.14-0.02-0.19-0.07-0.05-0.05-0.07-0.11-0.07-0.2 0-0.06 0.01-0.11 0.03-0.15 0.02-0.04 0.05-0.07 0.1-0.1 0.04-0.02 0.09-0.03 0.14-0.03 0.06 0 0.12 0.01 0.16 0.04 0.04 0.03 0.07 0.07 0.08 0.12l-0.1 0.01c-0.01-0.04-0.03-0.06-0.05-0.08-0.02-0.02-0.05-0.03-0.08-0.03-0.05 0-0.09 0.02-0.12 0.05-0.03 0.03-0.05 0.08-0.05 0.15 0 0.07 0.02 0.12 0.05 0.15 0.03 0.03 0.07 0.05 0.12 0.05 0.04 0 0.07-0.01 0.1-0.03 0.03-0.02 0.04-0.05 0.05-0.1zm0.14-0.07c0-0.1 0.03-0.17 0.09-0.22 0.05-0.04 0.11-0.06 0.18-0.06 0.08 0 0.15 0.02 0.2 0.07 0.05 0.05 0.08 0.11 0.08 0.2 0 0.07-0.01 0.12-0.03 0.16-0.02 0.04-0.06 0.07-0.1 0.09-0.04 0.02-0.09 0.03-0.14 0.03-0.08 0-0.15-0.02-0.2-0.07-0.05-0.05-0.08-0.11-0.08-0.2zm0.1 0c0 0.07 0.02 0.12 0.05 0.15 0.03 0.03 0.07 0.05 0.12 0.05 0.05 0 0.09-0.02 0.12-0.05 0.03-0.03 0.05-0.08 0.05-0.15 0-0.06-0.02-0.11-0.05-0.15-0.03-0.03-0.07-0.05-0.12-0.05-0.05 0-0.09 0.02-0.12 0.05-0.03 0.03-0.05 0.08-0.05 0.15zm0.56 0.26l0-0.52 0.09 0 0 0.07c0.04-0.06 0.1-0.09 0.19-0.09 0.04 0 0.07 0.01 0.1 0.02 0.03 0.01 0.05 0.03 0.07 0.04 0.01 0.02 0.03 0.04 0.03 0.07 0 0.02 0.01 0.05 0.01 0.09l0 0.32-0.1 0 0-0.32c0-0.04 0-0.06-0.01-0.08-0.01-0.02-0.02-0.03-0.04-0.04-0.02-0.01-0.04-0.02-0.07-0.02-0.04 0-0.08 0.01-0.11 0.04-0.03 0.02-0.05 0.07-0.05 0.14l0 0.29-0.1 0zm0.59-0.16l0.1-0.01c0.01 0.04 0.02 0.06 0.05 0.08 0.02 0.02 0.06 0.03 0.11 0.03 0.05 0 0.08-0.01 0.1-0.02 0.02-0.02 0.03-0.04 0.03-0.06 0-0.02-0.01-0.04-0.03-0.05-0.01-0.01-0.05-0.02-0.1-0.03-0.07-0.02-0.12-0.03-0.15-0.04-0.03-0.01-0.05-0.03-0.06-0.05-0.01-0.02-0.02-0.04-0.02-0.07 0-0.02 0.01-0.04 0.02-0.06 0.01-0.02 0.03-0.04 0.05-0.05 0.02-0.01 0.04-0.02 0.06-0.03 0.03-0.01 0.06-0.01 0.09-0.01 0.05 0 0.09 0.01 0.12 0.02 0.03 0.01 0.06 0.03 0.08 0.05 0.02 0.02 0.03 0.05 0.03 0.08l-0.1 0.01c0-0.03-0.02-0.05-0.04-0.06-0.02-0.02-0.05-0.02-0.09-0.02-0.05 0-0.08 0.01-0.1 0.02-0.02 0.01-0.03 0.03-0.03 0.05 0 0.01 0 0.02 0.01 0.03 0.01 0.01 0.02 0.02 0.04 0.02 0.01 0 0.04 0.01 0.09 0.02 0.07 0.02 0.12 0.03 0.15 0.04 0.03 0.01 0.05 0.03 0.07 0.05 0.02 0.02 0.02 0.05 0.02 0.08 0 0.03-0.01 0.06-0.03 0.08-0.02 0.03-0.05 0.05-0.08 0.06-0.04 0.01-0.08 0.02-0.12 0.02-0.08 0-0.13-0.01-0.17-0.04-0.04-0.03-0.07-0.07-0.08-0.13zm0.98 0.16l0-0.08c-0.05 0.06-0.11 0.09-0.19 0.09-0.03 0-0.07-0.01-0.1-0.02-0.03-0.01-0.05-0.03-0.07-0.04-0.01-0.02-0.02-0.04-0.03-0.07 0-0.02-0.01-0.05-0.01-0.08l0-0.32 0.1 0 0 0.29c0 0.05 0 0.08 0.01 0.09 0.01 0.02 0.02 0.04 0.04 0.06 0.02 0.01 0.05 0.02 0.07 0.02 0.03 0 0.06-0.01 0.08-0.02 0.03-0.01 0.04-0.03 0.06-0.06 0.01-0.02 0.02-0.06 0.02-0.1l0-0.28 0.1 0 0 0.52-0.09 0zm0.24 0l0-0.72 0.1 0 0 0.72-0.1 0zm0.47-0.08l0.01 0.08c-0.03 0.01-0.05 0.01-0.07 0.01-0.04 0-0.06 0-0.08-0.02-0.02-0.01-0.03-0.02-0.04-0.04-0.01-0.02-0.01-0.05-0.01-0.1l0-0.3-0.07 0 0-0.07 0.07 0 0-0.13 0.1-0.05 0 0.18 0.1 0 0 0.07-0.1 0 0 0.31c0 0.03 0 0.04 0.01 0.05 0 0.01 0.01 0.01 0.02 0.02 0.01 0 0.02 0.01 0.03 0.01 0.01 0 0.03 0 0.04 0zm0.1-0.54l0-0.1 0.1 0 0 0.1-0.1 0zm0 0.62l0-0.52 0.1 0 0 0.52-0.1 0zm0.25 0l0-0.52 0.09 0 0 0.07c0.04-0.06 0.1-0.09 0.19-0.09 0.04 0 0.07 0.01 0.1 0.02 0.03 0.01 0.05 0.03 0.07 0.04 0.01 0.02 0.03 0.04 0.03 0.07 0 0.02 0.01 0.05 0.01 0.09l0 0.32-0.1 0 0-0.32c0-0.04 0-0.06-0.01-0.08-0.01-0.02-0.02-0.03-0.04-0.04-0.02-0.01-0.04-0.02-0.07-0.02-0.04 0-0.08 0.01-0.11 0.04-0.03 0.02-0.05 0.07-0.05 0.14l0 0.29-0.1 0zm0.61 0.04l0.1 0.01c0 0.03 0.02 0.05 0.03 0.06 0.02 0.02 0.06 0.02 0.1 0.02 0.05 0 0.08-0.01 0.11-0.02 0.02-0.02 0.04-0.04 0.05-0.07 0.01-0.02 0.01-0.06 0.01-0.11-0.04 0.05-0.1 0.07-0.16 0.07-0.08 0-0.14-0.03-0.19-0.08-0.04-0.05-0.07-0.11-0.07-0.19 0-0.05 0.01-0.1 0.03-0.14 0.02-0.04 0.05-0.07 0.09-0.1 0.04-0.02 0.08-0.03 0.13-0.03 0.07 0 0.13 0.03 0.17 0.07l0-0.06 0.09 0 0 0.45c0 0.08-0.01 0.14-0.03 0.17-0.02 0.03-0.05 0.06-0.09 0.08-0.04 0.02-0.09 0.03-0.15 0.03-0.07 0-0.13-0.01-0.17-0.04-0.04-0.03-0.06-0.07-0.06-0.13zm0.08-0.31c0 0.07 0.02 0.12 0.05 0.15 0.03 0.03 0.07 0.05 0.11 0.05 0.05 0 0.08-0.02 0.11-0.05 0.03-0.03 0.05-0.08 0.05-0.15 0-0.06-0.02-0.11-0.05-0.14-0.03-0.03-0.07-0.05-0.11-0.05-0.04 0-0.08 0.02-0.11 0.05-0.03 0.03-0.05 0.08-0.05 0.14zm-9.1-0.63l10.02 0 0 1.31-10.11 0 0-1.22-6.79 0 0-0.09 6.79 0 0-4.77 0.09 0 0 4.77zm4.6-13.65c6.42 0 11.62 5.2 11.62 11.62 0 6.42-5.2 11.62-11.62 11.62-5.28 0-9.74-3.53-11.15-8.35l0.28 0c1.4 4.68 5.74 8.09 10.88 8.09 6.27 0 11.36-5.08 11.36-11.36 0-6.27-5.08-11.36-11.36-11.36-5.99 0-10.9 4.64-11.33 10.53l-0.27 0c0.43-6.03 5.45-10.79 11.59-10.79zm0 0.63c6.07 0 10.99 4.92 10.99 10.99 0 6.07-4.92 10.99-10.99 10.99-4.93 0-9.11-3.25-10.5-7.73l-0.18 0c1.4 4.57 5.65 7.89 10.68 7.89 6.17 0 11.16-5 11.16-11.16 0-6.17-5-11.16-11.16-11.16-5.89 0-10.71 4.56-11.13 10.33l0.17 0c0.42-5.68 5.17-10.16 10.96-10.16zm0 4.36c3.66 0 6.63 2.97 6.63 6.63 0 3.66-2.97 6.63-6.63 6.63-2.47 0-4.62-1.35-5.76-3.35l-1.09 0c1.22 2.55 3.83 4.31 6.85 4.31 4.19 0 7.6-3.4 7.6-7.59 0-4.19-3.4-7.59-7.59-7.59-2.92 0-5.45 1.64-6.72 4.05l1.11 0c1.18-1.86 3.25-3.09 5.61-3.09zm-6.94 3.93c0.61 0 1.1 0.49 1.1 1.1 0 0.61-0.49 1.1-1.1 1.1-0.61 0-1.1-0.49-1.1-1.1 0-0.61 0.49-1.1 1.1-1.1zm0 2.91c0.97 0 1.76 0.14 1.76 0.32 0 0.18-0.79 0.32-1.76 0.32-0.97 0-1.76-0.14-1.76-0.32 0-0.18 0.79-0.32 1.76-0.32zm-0.47 0.96c-2.03 0.02-2.72-0.34-2.72-0.57 0-0.23 0.68-0.44 1.7-0.55-0.6 0.13-0.98 0.33-0.98 0.55 0 0.22 0.55 0.45 2 0.57zm-1.47 0.26c-2.03 0.03-2.72-0.37-2.72-0.63 0-0.26 0.68-0.48 1.7-0.6-0.6 0.14-0.98 0.36-0.98 0.6 0 0.24 0.55 0.49 2 0.63zm8.95 7.07l0.21 0.65 0.68 0-0.55 0.4 0.21 0.65-0.55-0.4-0.55 0.4 0.21-0.65-0.55-0.4 0.68 0 0.21-0.65zm3.73-0.9l0.02 0.68-0.64 0.23 0.66 0.19 0.02 0.68 0.38-0.57 0.66 0.19-0.42-0.54 0.38-0.57-0.64 0.23-0.42-0.54zm-7.41 0l-0.02 0.68 0.64 0.23-0.66 0.19-0.02 0.68-0.38-0.57-0.66 0.19 0.42-0.54-0.38-0.57 0.64 0.23 0.42-0.54zm-2.94-2.4l-0.25 0.64 0.53 0.44-0.68-0.04-0.25 0.64-0.17-0.66-0.68-0.04 0.58-0.37-0.17-0.66 0.53 0.44 0.58-0.37zm13.28 0l0.25 0.64-0.53 0.44 0.68-0.04 0.25 0.64 0.17-0.66 0.68-0.04-0.58-0.37 0.17-0.66-0.53 0.44-0.58-0.37zm-10.68-12.89c0.03 0.02 0.05 0.04 0.06 0.06 0.01 0.02 0.02 0.03 0.01 0.04 0 0.01-0.02 0.03-0.04 0.05-0.02 0.02-0.05 0.04-0.09 0.06-0.04 0.03-0.07 0.05-0.1 0.06-0.02 0.01-0.04 0.02-0.06 0.03-0.01 0-0.03 0-0.03 0-0.01 0-0.02-0.01-0.03-0.02l-0.3-0.24-0.58 0.37 0.1 0.36c0 0.01 0.01 0.03 0.01 0.04 0 0.01 0 0.02-0.01 0.03-0.01 0.01-0.02 0.03-0.04 0.04-0.02 0.02-0.05 0.03-0.08 0.06-0.04 0.02-0.07 0.04-0.09 0.05-0.02 0.01-0.04 0.01-0.05 0.01-0.01 0-0.03-0.01-0.03-0.03-0.01-0.02-0.02-0.04-0.03-0.08l-0.41-1.67c0-0.02-0.01-0.03 0-0.04 0-0.01 0.01-0.03 0.02-0.04 0.01-0.01 0.03-0.03 0.05-0.05 0.02-0.02 0.06-0.04 0.1-0.07 0.05-0.03 0.08-0.05 0.11-0.07 0.03-0.02 0.05-0.03 0.07-0.03 0.02-0.01 0.03-0.01 0.05 0 0.01 0 0.03 0.01 0.04 0.02l1.36 1.05zm-1.43-0.67l0 0 0.21 0.79 0.43-0.28-0.64-0.51zm2.68-0.42c0.04 0.1 0.07 0.2 0.07 0.3 0.01 0.09 0 0.18-0.02 0.25-0.02 0.08-0.06 0.14-0.11 0.2-0.05 0.06-0.12 0.1-0.2 0.13-0.03 0.01-0.07 0.02-0.1 0.03-0.03 0-0.06 0-0.09 0-0.03 0-0.06-0.01-0.1-0.02-0.03-0.01-0.07-0.02-0.11-0.04l0.21 0.55c0 0.01 0 0.02 0 0.03 0 0.01-0.01 0.02-0.02 0.03-0.01 0.01-0.03 0.02-0.05 0.03-0.02 0.01-0.05 0.02-0.08 0.03-0.03 0.01-0.06 0.02-0.08 0.03-0.02 0.01-0.04 0.01-0.06 0.01-0.01 0-0.03 0-0.03-0.01-0.01 0-0.01-0.01-0.02-0.02l-0.63-1.64c0-0.01 0-0.02 0-0.03 0-0.01 0.01-0.02 0.02-0.03 0.01-0.01 0.02-0.02 0.04-0.03 0.02-0.01 0.04-0.02 0.07-0.03 0.03-0.01 0.05-0.02 0.07-0.02 0.02 0 0.03-0.01 0.05-0.01 0.01 0 0.02 0 0.03 0.01 0.01 0 0.01 0.01 0.02 0.02l0.05 0.14c0.02-0.05 0.04-0.09 0.07-0.13 0.02-0.04 0.05-0.07 0.08-0.11 0.03-0.03 0.06-0.06 0.09-0.08 0.03-0.02 0.07-0.04 0.11-0.06 0.09-0.03 0.17-0.04 0.24-0.03 0.07 0.01 0.14 0.04 0.2 0.08 0.06 0.04 0.12 0.1 0.16 0.17 0.05 0.07 0.09 0.15 0.12 0.24zm-0.34 0.16c-0.02-0.05-0.04-0.1-0.07-0.14-0.03-0.04-0.05-0.08-0.09-0.11-0.03-0.03-0.07-0.05-0.1-0.06-0.04-0.01-0.08-0.01-0.12 0.01-0.02 0.01-0.04 0.02-0.06 0.04-0.02 0.02-0.04 0.03-0.05 0.06-0.02 0.02-0.03 0.05-0.05 0.08-0.01 0.03-0.03 0.07-0.04 0.12l0.15 0.39c0.07 0.04 0.13 0.07 0.19 0.09 0.05 0.02 0.1 0.02 0.15 0 0.04-0.02 0.08-0.04 0.1-0.08 0.02-0.03 0.04-0.07 0.04-0.11 0.01-0.04 0-0.09 0-0.14-0.01-0.05-0.02-0.09-0.04-0.14zm1.98-0.5c0.02 0.11 0.03 0.21 0.02 0.3-0.01 0.09-0.03 0.17-0.06 0.24-0.03 0.07-0.08 0.13-0.14 0.17-0.06 0.05-0.14 0.08-0.22 0.09-0.04 0.01-0.07 0.01-0.1 0.01-0.03 0-0.06-0.01-0.09-0.02-0.03-0.01-0.06-0.02-0.09-0.04-0.03-0.02-0.06-0.04-0.1-0.06l0.1 0.58c0 0.01 0 0.02 0 0.03 0 0.01-0.01 0.02-0.03 0.02-0.01 0.01-0.03 0.01-0.05 0.02-0.02 0.01-0.05 0.01-0.08 0.02-0.03 0.01-0.06 0.01-0.09 0.01-0.02 0-0.04 0-0.06 0-0.01 0-0.03-0.01-0.03-0.01-0.01-0.01-0.01-0.01-0.01-0.02l-0.31-1.73c0-0.01 0-0.02 0-0.03 0-0.01 0.01-0.02 0.02-0.02 0.01-0.01 0.03-0.01 0.04-0.02 0.02-0.01 0.04-0.01 0.07-0.02 0.03 0 0.05-0.01 0.07-0.01 0.02 0 0.04 0 0.05 0 0.01 0 0.02 0.01 0.03 0.01 0.01 0.01 0.01 0.01 0.01 0.02l0.03 0.15c0.03-0.04 0.06-0.08 0.09-0.12 0.03-0.03 0.06-0.06 0.09-0.09 0.03-0.03 0.07-0.05 0.1-0.06 0.04-0.02 0.08-0.03 0.12-0.04 0.09-0.02 0.17-0.01 0.24 0.01 0.07 0.02 0.13 0.06 0.18 0.12 0.05 0.06 0.09 0.12 0.13 0.2 0.03 0.08 0.06 0.17 0.07 0.26zm-0.36 0.09c-0.01-0.05-0.02-0.1-0.04-0.15-0.02-0.05-0.04-0.09-0.06-0.12-0.03-0.03-0.06-0.06-0.09-0.08-0.03-0.02-0.08-0.02-0.12-0.01-0.02 0-0.05 0.01-0.07 0.02-0.02 0.01-0.04 0.03-0.06 0.05-0.02 0.02-0.04 0.04-0.06 0.07-0.02 0.03-0.04 0.07-0.06 0.11l0.07 0.41c0.06 0.05 0.12 0.09 0.17 0.12 0.05 0.03 0.1 0.03 0.15 0.03 0.05-0.01 0.08-0.03 0.11-0.06 0.03-0.03 0.05-0.06 0.06-0.1 0.01-0.04 0.02-0.09 0.02-0.14 0-0.05 0-0.1-0.01-0.14zm1.55-0.65c0 0.03 0 0.06 0 0.08 0 0.02 0 0.04-0.01 0.05 0 0.01-0.01 0.02-0.01 0.03-0.01 0.01-0.01 0.01-0.02 0.01-0.01 0-0.02 0-0.03 0-0.01 0-0.02-0.01-0.03-0.01-0.01 0-0.03-0.01-0.04-0.01-0.01 0-0.03 0-0.05 0-0.02 0-0.04 0-0.06 0.01-0.02 0.01-0.04 0.02-0.06 0.04-0.02 0.02-0.04 0.04-0.07 0.07-0.02 0.03-0.05 0.06-0.07 0.11l0.01 0.79c0 0.01 0 0.02-0.01 0.03-0.01 0.01-0.02 0.01-0.03 0.02-0.01 0.01-0.03 0.01-0.05 0.01-0.02 0-0.05 0-0.09 0.01-0.03 0-0.06 0-0.09 0-0.02 0-0.04 0-0.05-0.01-0.01 0-0.02-0.01-0.03-0.02-0.01-0.01-0.01-0.02-0.01-0.02l-0.02-1.26c0-0.01 0-0.02 0.01-0.02 0-0.01 0.01-0.01 0.03-0.02 0.01-0.01 0.03-0.01 0.05-0.01 0.02 0 0.04 0 0.07 0 0.03 0 0.06 0 0.07 0 0.02 0 0.04 0.01 0.05 0.01 0.01 0 0.02 0.01 0.02 0.02 0.01 0.01 0.01 0.02 0.01 0.02l0 0.16c0.03-0.05 0.06-0.09 0.09-0.12 0.03-0.03 0.06-0.06 0.08-0.07 0.03-0.02 0.05-0.03 0.08-0.04 0.03-0.01 0.05-0.01 0.08-0.01 0.01 0 0.03 0 0.04 0 0.01 0 0.03 0 0.04 0.01 0.02 0 0.03 0.01 0.04 0.01 0.01 0 0.02 0.01 0.03 0.01 0 0 0.01 0.01 0.01 0.02 0 0.01 0 0.01 0.01 0.02 0 0.01 0 0.02 0.01 0.04 0 0.02 0 0.05 0 0.08zm1.54 0.64c-0.01 0.11-0.04 0.2-0.07 0.29-0.04 0.08-0.09 0.16-0.15 0.21-0.06 0.06-0.14 0.1-0.23 0.13-0.09 0.03-0.19 0.03-0.31 0.02-0.11-0.01-0.21-0.04-0.29-0.08-0.08-0.04-0.14-0.09-0.19-0.16-0.05-0.06-0.08-0.14-0.1-0.23-0.02-0.09-0.02-0.19-0.01-0.3 0.01-0.11 0.04-0.2 0.07-0.29 0.04-0.09 0.09-0.16 0.15-0.21 0.06-0.06 0.14-0.1 0.23-0.12 0.09-0.03 0.19-0.03 0.31-0.02 0.11 0.01 0.21 0.04 0.29 0.08 0.08 0.04 0.14 0.09 0.19 0.16 0.05 0.06 0.08 0.14 0.1 0.23 0.02 0.09 0.02 0.19 0.01 0.3zm-0.37-0.02c0.01-0.06 0.01-0.12 0-0.17 0-0.05-0.02-0.1-0.04-0.14-0.02-0.04-0.05-0.07-0.08-0.1-0.04-0.03-0.08-0.04-0.14-0.05-0.05-0.01-0.1 0-0.14 0.01-0.04 0.02-0.08 0.04-0.11 0.07-0.03 0.03-0.05 0.08-0.07 0.13-0.02 0.05-0.03 0.11-0.04 0.18-0.01 0.06-0.01 0.12 0 0.17 0 0.05 0.02 0.1 0.04 0.14 0.02 0.04 0.05 0.07 0.08 0.1 0.04 0.03 0.08 0.04 0.14 0.05 0.05 0.01 0.1 0 0.14-0.01 0.04-0.01 0.08-0.04 0.11-0.07 0.03-0.03 0.05-0.08 0.07-0.13 0.02-0.05 0.03-0.11 0.04-0.18zm2.03-0.19c0 0 0 0.01 0 0.02 0 0.01 0 0.01-0.01 0.02 0 0.01-0.01 0.02-0.01 0.03 0 0.01-0.01 0.02-0.02 0.03l-0.66 1c-0.01 0.01-0.02 0.03-0.03 0.03-0.01 0.01-0.03 0.01-0.04 0.01-0.02 0-0.04 0-0.08-0.01-0.03-0.01-0.07-0.02-0.12-0.03-0.05-0.01-0.09-0.02-0.12-0.04-0.03-0.01-0.05-0.02-0.07-0.03-0.02-0.01-0.03-0.02-0.03-0.03 0-0.01-0.01-0.03-0.01-0.04l-0.07-1.2c0-0.02 0-0.04 0-0.05 0-0.02 0-0.03 0-0.03 0-0.01 0-0.01 0-0.02 0-0.01 0.01-0.02 0.01-0.02 0.01-0.01 0.02-0.01 0.03-0.01 0.01 0 0.03 0 0.05 0 0.02 0 0.05 0.01 0.09 0.02 0.04 0.01 0.07 0.02 0.09 0.03 0.02 0.01 0.04 0.02 0.05 0.02 0.01 0.01 0.02 0.02 0.02 0.03 0 0.01 0.01 0.02 0.01 0.03l0.04 0.97 0 0.04 0.02-0.03 0.51-0.82c0.01-0.01 0.01-0.02 0.02-0.02 0.01-0.01 0.02-0.01 0.03-0.01 0.01 0 0.03 0 0.05 0 0.02 0 0.05 0.01 0.08 0.02 0.03 0.01 0.06 0.02 0.08 0.02 0.02 0.01 0.04 0.02 0.05 0.02 0.01 0.01 0.02 0.02 0.02 0.02 0 0.01 0 0.02 0 0.03zm1.2 1.21c-0.02 0.04-0.04 0.06-0.07 0.07-0.03 0.01-0.05 0.01-0.09-0.01l-0.69-0.34c-0.02 0.05-0.04 0.1-0.05 0.14-0.01 0.05-0.01 0.09 0.01 0.13 0.01 0.04 0.03 0.08 0.07 0.11 0.03 0.03 0.08 0.06 0.13 0.09 0.06 0.03 0.11 0.05 0.15 0.06 0.05 0.01 0.09 0.02 0.12 0.03 0.04 0.01 0.07 0.01 0.09 0.01 0.02 0 0.04 0.01 0.06 0.01 0.01 0 0.01 0.01 0.02 0.01 0 0.01 0.01 0.01 0.01 0.02 0 0.01 0 0.02-0.01 0.04-0.01 0.01-0.01 0.03-0.02 0.05-0.01 0.02-0.02 0.03-0.02 0.05-0.01 0.01-0.01 0.02-0.02 0.03-0.01 0.01-0.01 0.02-0.02 0.02-0.01 0-0.01 0.01-0.02 0.01-0.01 0-0.03 0-0.06 0-0.03 0-0.07-0.01-0.11-0.02-0.04-0.01-0.09-0.02-0.14-0.04-0.05-0.02-0.11-0.04-0.16-0.07-0.1-0.05-0.18-0.1-0.25-0.17-0.06-0.06-0.11-0.13-0.13-0.21-0.03-0.08-0.03-0.16-0.02-0.25 0.01-0.09 0.05-0.19 0.1-0.3 0.05-0.1 0.11-0.19 0.17-0.25 0.07-0.07 0.14-0.12 0.21-0.15 0.08-0.03 0.16-0.05 0.25-0.04 0.09 0.01 0.17 0.03 0.26 0.07 0.09 0.05 0.17 0.1 0.22 0.16 0.05 0.06 0.09 0.13 0.11 0.2 0.02 0.07 0.02 0.14 0.01 0.22-0.01 0.08-0.04 0.16-0.08 0.24l-0.02 0.05zm-0.27-0.24c0.05-0.09 0.06-0.17 0.05-0.24-0.01-0.07-0.06-0.12-0.14-0.16-0.04-0.02-0.08-0.03-0.12-0.03-0.04 0-0.07 0.01-0.1 0.03-0.03 0.02-0.06 0.04-0.09 0.07-0.03 0.03-0.05 0.06-0.07 0.1l0.48 0.23zm1.19 1.69c-0.01 0.01-0.01 0.01-0.02 0.02-0.01 0-0.02 0-0.03 0-0.01 0-0.03-0.01-0.04-0.02-0.02-0.01-0.04-0.02-0.06-0.04-0.02-0.02-0.04-0.03-0.06-0.04-0.01-0.01-0.03-0.02-0.03-0.03-0.01-0.01-0.01-0.02-0.01-0.03 0-0.01 0-0.02 0.01-0.03l0.08-0.12c-0.09 0.02-0.18 0.03-0.26 0.02-0.08-0.01-0.16-0.04-0.23-0.08-0.08-0.05-0.14-0.11-0.17-0.18-0.03-0.07-0.05-0.14-0.05-0.22 0-0.08 0.02-0.15 0.05-0.23 0.03-0.08 0.07-0.16 0.13-0.24 0.06-0.09 0.13-0.17 0.2-0.23 0.07-0.06 0.14-0.1 0.22-0.13 0.07-0.03 0.15-0.03 0.22-0.02 0.08 0.01 0.15 0.04 0.23 0.09 0.06 0.04 0.1 0.09 0.14 0.14 0.03 0.06 0.06 0.12 0.07 0.2l0.38-0.57c0.01-0.01 0.01-0.01 0.02-0.02 0.01 0 0.02 0 0.03 0 0.01 0 0.03 0.01 0.05 0.02 0.02 0.01 0.04 0.03 0.07 0.04 0.03 0.02 0.05 0.04 0.07 0.05 0.02 0.02 0.03 0.03 0.04 0.04 0.01 0.01 0.01 0.02 0.01 0.03 0 0.01 0 0.02-0.01 0.03l-1.04 1.54zm0.18-0.9c-0.01-0.08-0.02-0.15-0.04-0.2-0.02-0.05-0.05-0.1-0.09-0.12-0.04-0.03-0.08-0.04-0.12-0.04-0.04 0-0.08 0.01-0.12 0.03-0.04 0.02-0.07 0.05-0.11 0.08-0.03 0.03-0.07 0.07-0.09 0.11-0.03 0.04-0.05 0.09-0.08 0.13-0.02 0.05-0.03 0.09-0.04 0.13-0.01 0.04 0 0.08 0.01 0.12 0.01 0.04 0.04 0.07 0.08 0.1 0.02 0.01 0.04 0.02 0.07 0.03 0.02 0.01 0.05 0.01 0.08 0.01 0.03 0 0.06 0 0.1-0.01 0.04-0.01 0.08-0.02 0.12-0.03l0.23-0.35zm1.67 2.13c-0.07 0.06-0.15 0.1-0.23 0.12-0.08 0.02-0.16 0.02-0.23 0.01-0.08-0.02-0.15-0.05-0.22-0.09-0.07-0.05-0.14-0.11-0.2-0.18-0.04-0.05-0.07-0.1-0.1-0.14-0.03-0.05-0.05-0.09-0.06-0.13-0.02-0.04-0.03-0.08-0.03-0.11-0.01-0.03-0.01-0.06-0.01-0.07 0-0.02 0.01-0.04 0.02-0.05 0.01-0.02 0.04-0.04 0.07-0.07 0.02-0.02 0.04-0.03 0.06-0.05 0.02-0.01 0.03-0.02 0.04-0.02 0.01 0 0.02-0.01 0.03 0 0.01 0 0.02 0.01 0.02 0.01 0.01 0.01 0.01 0.03 0.02 0.06 0 0.03 0.01 0.06 0.02 0.1 0.01 0.04 0.03 0.09 0.05 0.14 0.02 0.05 0.05 0.1 0.1 0.15 0.03 0.03 0.06 0.06 0.09 0.08 0.03 0.02 0.06 0.03 0.09 0.04 0.03 0.01 0.06 0.01 0.09 0 0.03-0.01 0.06-0.02 0.09-0.05 0.03-0.03 0.05-0.06 0.06-0.09 0.01-0.04 0.01-0.08 0-0.12-0.01-0.04-0.02-0.09-0.03-0.14-0.01-0.05-0.03-0.1-0.04-0.15-0.01-0.05-0.02-0.11-0.03-0.16-0.01-0.05-0.01-0.11 0-0.16 0.01-0.05 0.02-0.11 0.05-0.16 0.03-0.05 0.07-0.1 0.13-0.15 0.07-0.06 0.14-0.09 0.21-0.11 0.07-0.02 0.14-0.02 0.21-0.01 0.07 0.01 0.14 0.04 0.2 0.09 0.06 0.04 0.12 0.1 0.18 0.16 0.03 0.03 0.05 0.07 0.08 0.11 0.02 0.04 0.04 0.07 0.06 0.11 0.02 0.04 0.03 0.07 0.04 0.1 0.01 0.03 0.01 0.05 0.01 0.07 0 0.01 0 0.02-0.01 0.03 0 0.01-0.01 0.01-0.01 0.02-0.01 0.01-0.02 0.02-0.03 0.03-0.01 0.01-0.03 0.02-0.05 0.04-0.02 0.02-0.04 0.03-0.05 0.04-0.02 0.01-0.03 0.02-0.04 0.02-0.01 0.01-0.02 0.01-0.03 0.01-0.01 0-0.02-0.01-0.02-0.01-0.01-0.01-0.01-0.02-0.02-0.05 0-0.03-0.01-0.06-0.02-0.09-0.01-0.04-0.02-0.07-0.04-0.11-0.02-0.04-0.04-0.08-0.08-0.12-0.03-0.03-0.05-0.05-0.08-0.07-0.03-0.02-0.05-0.03-0.08-0.03-0.03 0-0.05 0-0.08 0.01-0.02 0.01-0.05 0.02-0.07 0.04-0.03 0.03-0.05 0.06-0.06 0.09-0.01 0.04-0.01 0.08 0 0.12 0.01 0.04 0.02 0.09 0.03 0.14 0.01 0.05 0.03 0.1 0.04 0.15 0.01 0.05 0.03 0.11 0.03 0.16 0.01 0.05 0.01 0.11 0 0.16-0.01 0.05-0.02 0.11-0.05 0.16-0.03 0.05-0.07 0.1-0.12 0.15zm0.94 1.19c-0.04 0.02-0.07 0.03-0.1 0.02-0.03-0.01-0.05-0.02-0.07-0.05l-0.4-0.66c-0.05 0.03-0.08 0.06-0.12 0.09-0.03 0.03-0.05 0.07-0.06 0.11-0.01 0.04-0.01 0.08 0 0.13 0.01 0.05 0.03 0.1 0.06 0.15 0.03 0.05 0.06 0.1 0.1 0.13 0.03 0.04 0.06 0.07 0.09 0.09 0.03 0.02 0.05 0.04 0.07 0.06 0.02 0.01 0.03 0.03 0.04 0.04 0 0.01 0.01 0.01 0.01 0.02 0 0.01 0 0.01-0.01 0.02-0.01 0.01-0.01 0.02-0.03 0.03-0.01 0.01-0.03 0.02-0.05 0.03-0.02 0.01-0.03 0.02-0.05 0.03-0.01 0.01-0.02 0.01-0.03 0.02-0.01 0-0.02 0.01-0.03 0.01-0.01 0-0.02 0-0.03 0-0.01 0-0.03-0.01-0.05-0.03-0.02-0.02-0.05-0.04-0.08-0.07-0.03-0.03-0.06-0.07-0.1-0.11-0.04-0.04-0.07-0.09-0.1-0.14-0.06-0.1-0.1-0.19-0.12-0.27-0.02-0.09-0.02-0.17 0-0.25 0.02-0.08 0.06-0.15 0.12-0.22 0.06-0.07 0.14-0.13 0.24-0.19 0.1-0.06 0.19-0.1 0.28-0.12 0.09-0.02 0.18-0.02 0.26-0.01 0.08 0.02 0.16 0.05 0.23 0.1 0.07 0.05 0.13 0.12 0.18 0.21 0.05 0.09 0.09 0.18 0.1 0.26 0.01 0.08 0.01 0.16-0.02 0.22-0.02 0.07-0.06 0.13-0.11 0.19-0.05 0.06-0.12 0.11-0.19 0.16l-0.05 0.03zm-0.09-0.35c0.09-0.05 0.14-0.11 0.17-0.17 0.03-0.07 0.02-0.14-0.03-0.21-0.02-0.04-0.05-0.07-0.08-0.09-0.03-0.02-0.07-0.03-0.1-0.04-0.04 0-0.07 0-0.11 0.01-0.04 0.01-0.08 0.03-0.12 0.05l0.27 0.46zm0.17 1.79c-0.02 0.01-0.04 0.02-0.06 0.02-0.02 0-0.03 0.01-0.04 0.01-0.01 0-0.02 0-0.03 0-0.01 0-0.02 0-0.03-0.01-0.01-0.01-0.03-0.02-0.06-0.04-0.02-0.02-0.05-0.04-0.07-0.07-0.02-0.03-0.05-0.06-0.07-0.09-0.02-0.04-0.04-0.07-0.06-0.11-0.04-0.09-0.05-0.17-0.06-0.26 0-0.08 0.02-0.16 0.05-0.22 0.04-0.07 0.09-0.13 0.16-0.19 0.07-0.06 0.15-0.1 0.26-0.15 0.12-0.05 0.22-0.07 0.32-0.08 0.1 0 0.18 0.01 0.26 0.04 0.08 0.03 0.14 0.08 0.2 0.14 0.06 0.06 0.1 0.13 0.14 0.22 0.01 0.04 0.02 0.07 0.03 0.11 0.01 0.04 0.01 0.07 0.01 0.1 0 0.03 0 0.06 0 0.09 0 0.03-0.01 0.05-0.01 0.06-0.01 0.01-0.01 0.02-0.02 0.03 0 0.01-0.01 0.01-0.02 0.02-0.01 0.01-0.02 0.01-0.04 0.02-0.01 0.01-0.03 0.02-0.06 0.02-0.05 0.02-0.09 0.03-0.11 0.03-0.02 0-0.04-0.01-0.04-0.02-0.01-0.02-0.01-0.03 0-0.05 0.01-0.02 0.01-0.05 0.02-0.08 0.01-0.03 0.01-0.06 0.01-0.1 0-0.04-0.01-0.08-0.03-0.12-0.03-0.09-0.09-0.14-0.18-0.16-0.08-0.02-0.19 0-0.32 0.05-0.06 0.03-0.12 0.05-0.16 0.08-0.04 0.03-0.08 0.06-0.1 0.1-0.02 0.04-0.04 0.07-0.04 0.11 0 0.04 0.01 0.08 0.02 0.13 0.02 0.05 0.04 0.08 0.07 0.11 0.03 0.03 0.05 0.05 0.08 0.07 0.03 0.02 0.05 0.03 0.07 0.04 0.02 0.01 0.03 0.02 0.04 0.03 0 0.01 0 0.02 0 0.02 0 0.01-0.01 0.01-0.02 0.02-0.01 0.01-0.02 0.02-0.04 0.03-0.02 0.01-0.04 0.02-0.07 0.03zm0.15 1.49c-0.01 0-0.02 0-0.03 0-0.01 0-0.02-0.01-0.02-0.02-0.01-0.01-0.01-0.02-0.02-0.04-0.01-0.02-0.01-0.04-0.02-0.07-0.01-0.03-0.01-0.06-0.01-0.07 0-0.02 0-0.03 0-0.05 0-0.01 0.01-0.02 0.01-0.03 0.01-0.01 0.01-0.01 0.02-0.01l0.14-0.04c-0.09-0.05-0.16-0.1-0.22-0.17-0.05-0.06-0.09-0.13-0.11-0.2-0.02-0.08-0.03-0.16-0.01-0.22 0.01-0.06 0.04-0.12 0.08-0.17 0.04-0.05 0.09-0.09 0.15-0.12 0.06-0.03 0.13-0.06 0.23-0.08l0.75-0.19c0.01 0 0.02 0 0.03 0 0.01 0 0.02 0.01 0.02 0.02 0.01 0.01 0.02 0.03 0.02 0.05 0.01 0.02 0.02 0.05 0.02 0.08 0.01 0.03 0.01 0.06 0.02 0.08 0 0.02 0 0.04 0 0.06 0 0.01 0 0.03-0.01 0.03-0.01 0.01-0.01 0.01-0.02 0.01l-0.69 0.17c-0.06 0.02-0.11 0.03-0.14 0.05-0.03 0.02-0.06 0.04-0.08 0.06-0.02 0.02-0.03 0.05-0.04 0.08-0.01 0.03-0.01 0.06 0 0.1 0.01 0.04 0.04 0.08 0.08 0.12 0.04 0.04 0.1 0.07 0.18 0.11l0.81-0.2c0.01 0 0.02 0 0.03 0 0.01 0 0.02 0.01 0.02 0.02 0.01 0.01 0.02 0.03 0.02 0.05 0.01 0.02 0.02 0.05 0.02 0.08 0.01 0.03 0.01 0.06 0.02 0.08 0 0.02 0 0.04 0 0.05 0 0.01 0 0.02-0.01 0.03-0.01 0.01-0.01 0.01-0.02 0.01l-1.22 0.3zm1.23 1.06c-0.03 0-0.06 0-0.08 0-0.02 0-0.04 0-0.05 0-0.01 0-0.02-0.01-0.03-0.01-0.01-0.01-0.01-0.01-0.01-0.02 0-0.01 0-0.02 0-0.03 0-0.01 0.01-0.02 0.01-0.03 0-0.01 0.01-0.03 0.01-0.04 0-0.01 0-0.03 0-0.05 0-0.02-0.01-0.04-0.02-0.06-0.01-0.02-0.02-0.04-0.04-0.06-0.02-0.02-0.04-0.04-0.07-0.06-0.03-0.02-0.07-0.04-0.11-0.06l-0.78 0.07c-0.01 0-0.02 0-0.03-0.01-0.01-0.01-0.01-0.01-0.02-0.03-0.01-0.01-0.01-0.03-0.02-0.05 0-0.02-0.01-0.05-0.01-0.09 0-0.03 0-0.06 0-0.09 0-0.02 0-0.04 0.01-0.06 0-0.01 0.01-0.02 0.01-0.03 0.01-0.01 0.01-0.01 0.02-0.01l1.26-0.11c0.01 0 0.02 0 0.03 0.01 0.01 0 0.01 0.01 0.02 0.02 0.01 0.01 0.01 0.03 0.01 0.05 0 0.02 0.01 0.04 0.01 0.07 0 0.03 0 0.05 0 0.07 0 0.02 0 0.04-0.01 0.05 0 0.01-0.01 0.02-0.02 0.02-0.01 0.01-0.01 0.01-0.02 0.01l-0.16 0.01c0.05 0.03 0.09 0.06 0.12 0.08 0.03 0.03 0.06 0.05 0.08 0.08 0.02 0.02 0.03 0.05 0.04 0.08 0.01 0.03 0.02 0.05 0.02 0.08 0 0.01 0 0.03 0 0.04 0 0.01 0 0.03 0 0.04 0 0.02 0 0.03-0.01 0.04 0 0.01-0.01 0.02-0.01 0.03 0 0.01-0.01 0.01-0.01 0.01 0 0-0.01 0.01-0.02 0.01-0.01 0-0.02 0.01-0.04 0.01-0.02 0-0.05 0.01-0.08 0.01zm-1.19 0.7c-0.01 0-0.02 0-0.02-0.01-0.01-0.01-0.01-0.02-0.02-0.03 0-0.01-0.01-0.03-0.01-0.05 0-0.02 0-0.05 0-0.09 0-0.03 0-0.06 0.01-0.09 0-0.02 0.01-0.04 0.01-0.05 0-0.01 0.01-0.02 0.02-0.03 0.01-0.01 0.02-0.01 0.03-0.01l1.26 0.02c0.01 0 0.02 0 0.02 0.01 0.01 0.01 0.01 0.02 0.02 0.03 0.01 0.01 0.01 0.03 0.01 0.05 0 0.02 0 0.05 0 0.09 0 0.04 0 0.06-0.01 0.09 0 0.02-0.01 0.04-0.01 0.05 0 0.01-0.01 0.02-0.02 0.03-0.01 0.01-0.02 0.01-0.02 0.01l-1.26-0.02zm1.69 0.06c-0.07 0-0.12-0.02-0.15-0.05-0.03-0.03-0.04-0.08-0.04-0.16 0-0.08 0.02-0.13 0.04-0.16 0.03-0.03 0.07-0.04 0.14-0.04 0.07 0 0.12 0.02 0.15 0.05 0.03 0.03 0.04 0.08 0.04 0.16 0 0.08-0.02 0.13-0.04 0.16-0.03 0.03-0.08 0.04-0.14 0.04zm-1.66 1.04c-0.04 0-0.07-0.01-0.09-0.02-0.02-0.01-0.04-0.02-0.04-0.03-0.01-0.01-0.01-0.02-0.02-0.04 0-0.02-0.01-0.04-0.01-0.06 0-0.02 0-0.05 0-0.07 0-0.03 0-0.05 0-0.08 0.01-0.07 0.02-0.13 0.05-0.18 0.02-0.05 0.06-0.09 0.1-0.12 0.04-0.03 0.09-0.05 0.15-0.06 0.06-0.01 0.13-0.01 0.2 0l0.64 0.07 0.02-0.15c0-0.02 0.01-0.03 0.04-0.04 0.02-0.01 0.06-0.01 0.11 0 0.03 0 0.05 0.01 0.07 0.01 0.02 0 0.03 0.01 0.04 0.02 0.01 0.01 0.02 0.01 0.02 0.02 0 0.01 0.01 0.02 0 0.03l-0.02 0.15 0.28 0.03c0.01 0 0.02 0 0.02 0.01 0.01 0.01 0.01 0.02 0.02 0.03 0 0.01 0.01 0.03 0.01 0.06 0 0.02 0 0.05 0 0.09 0 0.04-0.01 0.06-0.01 0.09 0 0.02-0.01 0.04-0.02 0.05-0.01 0.01-0.01 0.02-0.02 0.03-0.01 0.01-0.02 0.01-0.03 0.01l-0.28-0.03-0.03 0.27c0 0.01 0 0.02-0.01 0.02-0.01 0.01-0.01 0.01-0.02 0.02-0.01 0-0.03 0.01-0.05 0.01-0.02 0-0.04 0-0.07 0-0.05-0.01-0.09-0.01-0.11-0.03-0.02-0.01-0.03-0.03-0.03-0.04l0.03-0.27-0.59-0.06c-0.07-0.01-0.12 0-0.16 0.02-0.04 0.02-0.06 0.05-0.06 0.11 0 0.02 0 0.04 0 0.05 0 0.02 0 0.03 0.01 0.04 0 0.01 0.01 0.02 0.01 0.03 0 0.01 0 0.02 0 0.02 0 0.01 0 0.01-0.01 0.02 0 0-0.01 0.01-0.02 0.01-0.01 0-0.02 0-0.04 0-0.02 0-0.04 0-0.06 0zm-0.46 0.95l-0.39-0.26c-0.02-0.01-0.03-0.04-0.03-0.08 0-0.04 0.01-0.09 0.03-0.16 0.01-0.04 0.02-0.07 0.03-0.09 0.01-0.02 0.02-0.04 0.03-0.05 0.01-0.01 0.02-0.01 0.03-0.01 0.01 0 0.02 0.01 0.04 0.02l0.36 0.27c0.01-0.01 0.02-0.02 0.03-0.03 0.01-0.01 0.03-0.01 0.04-0.01l1.23-0.12c0.04 0 0.06 0 0.08 0 0.02 0 0.03 0.01 0.04 0.03 0.01 0.01 0.01 0.03 0 0.06 0 0.03-0.01 0.06-0.02 0.1-0.01 0.04-0.02 0.07-0.03 0.09-0.01 0.02-0.02 0.04-0.02 0.05-0.01 0.01-0.02 0.02-0.03 0.02-0.01 0-0.03 0.01-0.05 0.01l-0.89 0.07 0 0 0.76 0.48c0.02 0.01 0.04 0.02 0.04 0.03 0.01 0.01 0.01 0.03 0.01 0.05 0 0.02-0.01 0.06-0.02 0.11-0.01 0.04-0.02 0.07-0.03 0.1-0.01 0.02-0.02 0.04-0.04 0.05-0.01 0.01-0.03 0.01-0.04 0.01-0.02 0-0.04-0.01-0.06-0.03l-1.08-0.72zm-3.3-1.69c0 0.03 0 0.06 0 0.09 0 0.02 0 0.05-0.01 0.06 0 0.02-0.01 0.04-0.02 0.05-0.01 0.01-0.02 0.03-0.04 0.05-0.02 0.02-0.06 0.05-0.12 0.09-0.06 0.04-0.14 0.08-0.23 0.13-0.09 0.04-0.2 0.07-0.32 0.1-0.12 0.03-0.25 0.04-0.39 0.04-0.25 0-0.47-0.04-0.66-0.13-0.2-0.09-0.37-0.22-0.5-0.39-0.14-0.17-0.25-0.38-0.32-0.63-0.07-0.25-0.11-0.54-0.11-0.86 0-0.33 0.04-0.63 0.12-0.89 0.08-0.26 0.19-0.48 0.34-0.66 0.15-0.18 0.32-0.32 0.52-0.42 0.2-0.1 0.43-0.14 0.67-0.14 0.11 0 0.22 0.01 0.32 0.03 0.1 0.02 0.2 0.05 0.29 0.08 0.09 0.03 0.17 0.07 0.23 0.12 0.07 0.04 0.12 0.08 0.14 0.11 0.03 0.03 0.04 0.05 0.05 0.06 0.01 0.01 0.01 0.03 0.02 0.05 0.01 0.02 0.01 0.04 0.01 0.07 0 0.03 0.01 0.06 0.01 0.1 0 0.04 0 0.08-0.01 0.11 0 0.03-0.01 0.05-0.02 0.07-0.01 0.02-0.02 0.03-0.03 0.04-0.01 0.01-0.02 0.01-0.04 0.01-0.03 0-0.07-0.02-0.11-0.06-0.05-0.04-0.11-0.08-0.19-0.13-0.08-0.05-0.17-0.09-0.28-0.13-0.11-0.04-0.24-0.06-0.4-0.06-0.17 0-0.32 0.04-0.46 0.11-0.14 0.07-0.25 0.18-0.35 0.32-0.1 0.14-0.17 0.31-0.23 0.51-0.05 0.2-0.08 0.43-0.08 0.69 0 0.25 0.03 0.48 0.08 0.68 0.05 0.2 0.13 0.36 0.22 0.49 0.1 0.13 0.22 0.23 0.35 0.3 0.14 0.07 0.3 0.1 0.48 0.1 0.15 0 0.28-0.02 0.39-0.06 0.11-0.04 0.21-0.08 0.29-0.13 0.08-0.05 0.14-0.09 0.19-0.13 0.05-0.04 0.09-0.06 0.12-0.06 0.01 0 0.02 0 0.03 0.01 0.01 0.01 0.02 0.02 0.02 0.04 0.01 0.02 0.01 0.04 0.01 0.07 0 0.03 0 0.07 0 0.12zm-3.89-2.34c0-0.16-0.03-0.29-0.1-0.4-0.07-0.11-0.18-0.19-0.34-0.23-0.05-0.01-0.11-0.02-0.17-0.03-0.06-0.01-0.15-0.01-0.25-0.01l-0.44 0 0 1.36 0.51 0c0.14 0 0.26-0.02 0.35-0.05 0.1-0.03 0.18-0.08 0.25-0.14 0.07-0.06 0.12-0.13 0.15-0.22 0.03-0.08 0.05-0.17 0.05-0.27zm0.78 2.83c0 0.02 0 0.03-0.01 0.04-0.01 0.01-0.02 0.02-0.04 0.03-0.02 0.01-0.05 0.01-0.08 0.02-0.04 0-0.08 0.01-0.14 0.01-0.05 0-0.1 0-0.13-0.01-0.03 0-0.06-0.01-0.08-0.02-0.02-0.01-0.04-0.02-0.05-0.04-0.01-0.02-0.02-0.04-0.03-0.06l-0.36-0.95c-0.04-0.11-0.09-0.21-0.13-0.3-0.05-0.09-0.1-0.17-0.16-0.23-0.06-0.06-0.13-0.12-0.22-0.15-0.08-0.04-0.19-0.05-0.3-0.05l-0.35 0 0 1.71c0 0.02-0.01 0.03-0.01 0.04-0.01 0.01-0.02 0.02-0.04 0.03-0.02 0.01-0.05 0.01-0.08 0.02-0.03 0.01-0.07 0.01-0.12 0.01-0.05 0-0.09 0-0.13-0.01-0.03-0.01-0.06-0.01-0.08-0.02-0.02-0.01-0.04-0.02-0.04-0.03-0.01-0.01-0.01-0.03-0.01-0.04l0-3.73c0-0.08 0.02-0.14 0.06-0.17 0.04-0.03 0.08-0.05 0.13-0.05l0.83 0c0.1 0 0.18 0 0.25 0.01 0.06 0.01 0.12 0.01 0.18 0.02 0.15 0.03 0.28 0.07 0.4 0.13 0.12 0.06 0.21 0.13 0.29 0.22 0.08 0.09 0.14 0.19 0.18 0.31 0.04 0.12 0.06 0.24 0.06 0.38 0 0.13-0.02 0.26-0.05 0.36-0.04 0.11-0.09 0.2-0.15 0.28-0.07 0.08-0.15 0.15-0.24 0.21-0.09 0.06-0.2 0.11-0.31 0.15 0.06 0.03 0.12 0.07 0.18 0.11 0.05 0.04 0.1 0.1 0.15 0.16 0.05 0.06 0.09 0.13 0.13 0.21 0.04 0.08 0.08 0.17 0.12 0.27l0.35 0.89c0.03 0.07 0.05 0.13 0.05 0.16 0.01 0.03 0.01 0.05 0.01 0.07zm-3.35-1.05c0 0.19-0.03 0.36-0.1 0.5-0.07 0.15-0.16 0.27-0.28 0.37-0.12 0.1-0.26 0.18-0.42 0.23-0.16 0.05-0.34 0.08-0.52 0.08-0.13 0-0.25-0.01-0.36-0.04-0.11-0.02-0.21-0.05-0.3-0.08-0.09-0.03-0.16-0.07-0.22-0.1-0.06-0.04-0.1-0.07-0.12-0.09-0.02-0.03-0.04-0.06-0.05-0.1-0.01-0.04-0.02-0.09-0.02-0.15 0-0.05 0-0.08 0.01-0.11 0-0.03 0.01-0.05 0.02-0.07 0.01-0.02 0.02-0.03 0.03-0.04 0.01-0.01 0.03-0.01 0.04-0.01 0.03 0 0.07 0.02 0.12 0.05 0.05 0.04 0.12 0.07 0.2 0.12 0.08 0.04 0.18 0.08 0.29 0.12 0.11 0.04 0.25 0.05 0.39 0.05 0.11 0 0.22-0.02 0.31-0.05 0.09-0.03 0.17-0.08 0.24-0.13 0.07-0.06 0.12-0.13 0.16-0.21 0.04-0.08 0.05-0.18 0.05-0.28 0-0.11-0.03-0.21-0.08-0.29-0.05-0.08-0.12-0.15-0.2-0.21-0.08-0.06-0.18-0.12-0.28-0.17-0.11-0.05-0.21-0.1-0.32-0.16-0.11-0.05-0.22-0.11-0.32-0.18-0.11-0.06-0.2-0.14-0.28-0.23-0.08-0.09-0.15-0.19-0.2-0.31-0.05-0.12-0.08-0.26-0.08-0.42 0-0.17 0.03-0.32 0.09-0.45 0.06-0.13 0.14-0.24 0.25-0.33 0.11-0.09 0.23-0.16 0.38-0.2 0.15-0.05 0.3-0.07 0.47-0.07 0.09 0 0.17 0.01 0.26 0.02 0.09 0.02 0.17 0.04 0.25 0.06 0.08 0.03 0.15 0.06 0.21 0.09 0.06 0.03 0.1 0.06 0.12 0.08 0.02 0.02 0.03 0.04 0.04 0.05 0.01 0.01 0.01 0.03 0.01 0.04 0 0.02 0.01 0.04 0.01 0.06 0 0.03 0 0.06 0 0.1 0 0.04 0 0.07 0 0.1 0 0.03-0.01 0.05-0.01 0.07-0.01 0.02-0.02 0.03-0.03 0.04-0.01 0.01-0.02 0.01-0.04 0.01-0.02 0-0.06-0.01-0.1-0.04-0.05-0.03-0.11-0.06-0.17-0.1-0.07-0.04-0.15-0.07-0.24-0.1-0.09-0.03-0.2-0.05-0.32-0.05-0.11 0-0.2 0.01-0.28 0.05-0.08 0.03-0.15 0.07-0.2 0.12-0.05 0.05-0.09 0.11-0.12 0.18-0.03 0.07-0.04 0.14-0.04 0.22 0 0.11 0.03 0.21 0.08 0.29 0.05 0.08 0.12 0.15 0.2 0.21 0.08 0.06 0.18 0.12 0.28 0.17 0.11 0.05 0.22 0.1 0.33 0.16 0.11 0.05 0.22 0.11 0.33 0.17 0.11 0.06 0.2 0.14 0.29 0.22 0.08 0.09 0.15 0.19 0.2 0.3 0.05 0.12 0.08 0.26 0.08 0.42z"/></svg>