<svg xmlns="http://www.w3.org/2000/svg" xml:space="preserve" width="100" height="100" viewBox="0 0 26.46 26.46" style="fill-rule:evenodd;image-rendering:optimizeQuality;shape-rendering:geometricPrecision;text-rendering:geometricPrecision"><defs><style type="text/css">
    .fil0 {fill:#fff}
   </style></defs><path class="fil0" d="M13.23 5.71c3 0 5.58 1.75 6.79 4.29l0.16 0c-1.22-2.62-3.87-4.43-6.95-4.43-3.08 0-5.73 1.82-6.95 4.43l0.16 0c1.21-2.54 3.8-4.29 6.79-4.29zm6.79 10.75c-1.21 2.54-3.8 4.29-6.79 4.29-3 0-5.58-1.75-6.79-4.29l-0.16 0c1.22 2.62 3.87 4.43 6.95 4.43 3.08 0 5.73-1.82 6.95-4.43l-0.16 0zm-18.66-6.46l0.74 0c1.4-4.83 5.85-8.36 11.13-8.36 5.28 0 9.73 3.53 11.13 8.36l0.74 0c0.46 0 0.83 0.37 0.83 0.83l0 4.81c0 0.46-0.37 0.83-0.83 0.83l-0.74 0c-1.4 4.83-5.85 8.36-11.13 8.36-5.28 0-9.73-3.53-11.13-8.36l-0.74 0c-0.46 0-0.83-0.37-0.83-0.83l0-4.8c0-0.46 0.37-0.83 0.83-0.83zm1.38 0l0.2 0c1.37-4.38 5.46-7.56 10.3-7.56 4.83 0 8.93 3.18 10.3 7.56l0.2 0c-1.38-4.49-5.56-7.75-10.49-7.75-4.94 0-9.12 3.26-10.49 7.75zm0.34 0l3.07 0c1.23-2.69 3.94-4.56 7.09-4.56 3.15 0 5.86 1.87 7.09 4.56l3.07 0c-1.37-4.3-5.4-7.42-10.15-7.42-4.76 0-8.79 3.12-10.15 7.42zm3.77 0l12.77 0c-1.18-2.33-3.6-3.92-6.38-3.92-2.79 0-5.2 1.6-6.38 3.92zm16.88 6.46l-0.2 0c-1.37 4.38-5.46 7.56-10.3 7.56-4.83 0-8.93-3.18-10.3-7.56l-0.2 0c1.38 4.49 5.56 7.75 10.49 7.75 4.94 0 9.12-3.26 10.49-7.75zm-0.34 0l-3.07 0c-1.23 2.69-3.94 4.56-7.09 4.56-3.15 0-5.86-1.87-7.09-4.56l-3.07 0c1.37 4.3 5.4 7.42 10.15 7.42 4.76 0 8.79-3.12 10.15-7.42zm-3.77 0l-12.77 0c1.18 2.33 3.6 3.92 6.38 3.92 2.79 0 5.2-1.6 6.38-3.92zm-14.1-7.98l0.12-0.13c0.03 0.01 0.06 0.03 0.08 0.04 0.12 0.06 0.19 0.15 0.22 0.27 0.03 0.12 0 0.25-0.08 0.39-0.19 0.35-0.5 0.43-0.91 0.21-0.2-0.1-0.33-0.23-0.39-0.4-0.06-0.17-0.05-0.33 0.04-0.5 0.14-0.26 0.34-0.32 0.6-0.19l-0.01 0.19c-0.04-0.02-0.06-0.04-0.08-0.05-0.18-0.09-0.31-0.07-0.39 0.07-0.08 0.15 0.07 0.32 0.46 0.52 0.33 0.17 0.54 0.17 0.64 0.01 0.04-0.07 0.04-0.14 0.01-0.22-0.03-0.08-0.09-0.13-0.18-0.18-0.03-0.01-0.07-0.03-0.13-0.05zm0.15-1.64l0.76 0.53c0.26 0.18 0.29 0.41 0.08 0.69-0.21 0.28-0.44 0.33-0.7 0.14l-0.76-0.53 0.24-0.32 0.77 0.54c0.1 0.07 0.18 0.1 0.23 0.1 0.06 0 0.11-0.04 0.17-0.11 0.11-0.14 0.07-0.28-0.11-0.4l-0.76-0.53 0.08-0.11zm1.18-0.68l-0.11 0.15c-0.02-0.03-0.04-0.05-0.06-0.07-0.12-0.11-0.24-0.1-0.38 0.04-0.11 0.11-0.12 0.2-0.04 0.28 0.06 0.06 0.17 0.04 0.34-0.04 0.32-0.16 0.56-0.16 0.72-0.01 0.1 0.09 0.14 0.19 0.13 0.31-0.01 0.12-0.07 0.23-0.17 0.34-0.24 0.24-0.46 0.27-0.65 0.09-0.02-0.01-0.03-0.03-0.05-0.06l0.1-0.17c0.03 0.05 0.06 0.09 0.1 0.12 0.12 0.12 0.26 0.11 0.39-0.03 0.11-0.11 0.12-0.21 0.03-0.29-0.07-0.06-0.19-0.05-0.37 0.03-0.26 0.12-0.48 0.11-0.64-0.04-0.09-0.08-0.13-0.18-0.12-0.3 0.01-0.12 0.06-0.23 0.17-0.33 0.21-0.21 0.42-0.23 0.62-0.04zm0.81-1.14l0.09 0.11-0.27 0.2 0.78 0.96-0.34 0.26-0.78-0.96-0.27 0.21-0.09-0.11 0.88-0.67zm0.77-0.48c0.36-0.19 0.65-0.08 0.89 0.33 0.23 0.41 0.17 0.71-0.19 0.91-0.36 0.19-0.66 0.08-0.9-0.33-0.23-0.4-0.16-0.7 0.21-0.9zm0.04 0.1c-0.07 0.04-0.09 0.1-0.07 0.18 0.02 0.08 0.08 0.23 0.2 0.43 0.12 0.2 0.21 0.33 0.27 0.39 0.06 0.06 0.13 0.07 0.2 0.03 0.07-0.04 0.09-0.1 0.07-0.18-0.02-0.08-0.08-0.23-0.2-0.43-0.12-0.2-0.21-0.33-0.27-0.39-0.06-0.06-0.13-0.07-0.2-0.03zm2.13-0.95l0.43 1.29-0.37 0.12-0.3-0.9 0.04 0.98-0.22 0.07-0.56-0.8 0.3 0.88-0.13 0.04-0.43-1.29 0.39-0.12 0.49 0.71-0.03-0.85 0.4-0.12zm1.31-0.26l0.02 0.13-0.49 0.08 0.07 0.4 0.42-0.07 0.02 0.13-0.41 0.07 0.1 0.53 0.58-0.1 0.02 0.13-0.98 0.17-0.24-1.33 0.89-0.15zm0.47 1.3l-0.02-1.36 0.6-0.01c0.16 0 0.28 0.03 0.38 0.09 0.09 0.06 0.14 0.15 0.14 0.25 0 0.16-0.1 0.27-0.3 0.33 0.1 0.04 0.17 0.08 0.2 0.12 0.03 0.04 0.05 0.13 0.07 0.26 0.02 0.15 0.04 0.25 0.08 0.3l-0.44 0.01c-0.03-0.06-0.04-0.14-0.05-0.23l0-0.08 0-0.1c0-0.16-0.07-0.23-0.2-0.23l-0.07 0 0.01 0.65-0.41 0.01zm0.39-0.77l0.08 0c0.15 0 0.23-0.08 0.23-0.24 0-0.16-0.08-0.23-0.23-0.23l-0.08 0 0.01 0.47zm2.64 0.03l-0.19 0c0.01-0.03 0.02-0.06 0.03-0.09 0.03-0.16-0.05-0.25-0.25-0.28-0.15-0.03-0.24 0.01-0.26 0.12-0.01 0.08 0.06 0.16 0.22 0.25 0.31 0.17 0.45 0.36 0.41 0.57-0.02 0.13-0.09 0.22-0.19 0.28-0.11 0.06-0.24 0.08-0.39 0.05-0.34-0.06-0.49-0.22-0.44-0.47 0-0.02 0.01-0.05 0.02-0.08l0.2-0.01c-0.03 0.05-0.04 0.1-0.05 0.14-0.03 0.17 0.05 0.27 0.25 0.3 0.16 0.03 0.25-0.02 0.27-0.14 0.02-0.09-0.06-0.18-0.24-0.28-0.25-0.14-0.36-0.32-0.32-0.53 0.02-0.12 0.08-0.21 0.19-0.27 0.1-0.06 0.23-0.07 0.38-0.05 0.3 0.05 0.43 0.21 0.38 0.47zm1.48 0.05l-0.29 0.87c-0.1 0.3-0.32 0.39-0.66 0.28-0.34-0.11-0.46-0.31-0.36-0.6l0.29-0.87 0.39 0.12-0.29 0.88c-0.04 0.11-0.05 0.2-0.03 0.25 0.02 0.05 0.07 0.09 0.16 0.12 0.17 0.06 0.3-0.02 0.36-0.22l0.29-0.87 0.13 0.04zm-0.25 1.4l0.64-1.21 0.54 0.27c0.31 0.15 0.4 0.34 0.27 0.58-0.13 0.24-0.36 0.27-0.7 0.11l-0.12-0.06-0.26 0.49-0.36-0.18zm0.68-0.43l0.08 0.04c0.13 0.06 0.24 0.01 0.33-0.16 0.08-0.16 0.06-0.27-0.07-0.33l-0.08-0.04-0.26 0.49zm0.43 1.02l0.86-1.07 0.48 0.36c0.27 0.2 0.32 0.41 0.15 0.62-0.17 0.21-0.41 0.2-0.71-0.02l-0.11-0.08-0.35 0.44-0.32-0.24zm0.75-0.29l0.07 0.05c0.12 0.09 0.23 0.06 0.35-0.09 0.11-0.14 0.11-0.25-0.01-0.34l-0.07-0.05-0.35 0.43zm1.66 0.48c0.28 0.28 0.25 0.59-0.1 0.91-0.35 0.32-0.66 0.34-0.95 0.05-0.29-0.29-0.25-0.6 0.1-0.93 0.34-0.32 0.66-0.33 0.95-0.03zm-0.09 0.07c-0.05-0.05-0.12-0.06-0.2-0.02-0.08 0.04-0.21 0.14-0.38 0.3-0.17 0.16-0.28 0.28-0.32 0.35-0.04 0.08-0.04 0.14 0.02 0.19 0.05 0.05 0.12 0.06 0.2 0.02 0.08-0.04 0.21-0.14 0.38-0.3 0.17-0.16 0.28-0.28 0.32-0.35 0.04-0.08 0.04-0.14-0.02-0.19zm-0.42 1.46l1.13-0.8 0.35 0.47c0.09 0.12 0.14 0.24 0.14 0.35 0 0.11-0.04 0.2-0.13 0.26-0.14 0.1-0.29 0.08-0.44-0.05 0.03 0.1 0.03 0.18 0.02 0.23-0.02 0.05-0.08 0.12-0.18 0.2-0.12 0.1-0.19 0.18-0.21 0.24l-0.26-0.35c0.04-0.06 0.09-0.12 0.17-0.17l0.07-0.05 0.08-0.06c0.13-0.09 0.16-0.19 0.08-0.29l-0.04-0.05-0.54 0.38-0.24-0.32zm0.88-0.13l0.05 0.06c0.09 0.12 0.2 0.13 0.33 0.04 0.13-0.09 0.15-0.2 0.06-0.32l-0.05-0.06-0.39 0.27zm1.57 1.4l-0.12 0.06-0.16-0.29-1.11 0.57-0.2-0.37 1.11-0.57-0.16-0.3 0.12-0.06 0.53 0.96zm0.76 5.23l-1.33 0.76 0.31-1.5-1.14-1.03 1.52-0.16 0.63-1.4 0 3.33zm-4.72-3.33l0.63 1.4 1.52 0.16-1.14 1.03 0.31 1.5-1.33-0.76-1.33 0.76 0.31-1.5-1.14-1.03 1.52-0.16 0.63-1.4zm-4.7 0l0.63 1.4 1.52 0.16-1.14 1.03 0.31 1.5-1.33-0.76-1.33 0.76 0.31-1.5-1.14-1.03 1.52-0.16 0.63-1.4zm-4.72 0l0.63 1.4 1.52 0.16-1.14 1.03 0.31 1.5-1.33-0.76-1.33 0.76 0.31-1.5-1.14-1.03 1.52-0.16 0.63-1.4zm-4.7 0l0.63 1.4 1.52 0.16-1.14 1.03 0.31 1.5-1.33-0.76-1.33 0.76 0.31-1.5-1.14-1.03 1.52-0.16 0.63-1.4zm5.79-1.58l0-1.46 0.63 0c0.16 0 0.29 0.03 0.39 0.1 0.1 0.07 0.15 0.16 0.15 0.28 0 0.18-0.1 0.29-0.31 0.35 0.11 0.04 0.18 0.08 0.21 0.13 0.03 0.05 0.05 0.14 0.06 0.28 0.01 0.16 0.04 0.27 0.08 0.33l-0.46 0c-0.03-0.07-0.04-0.15-0.04-0.25l0-0.09 0-0.11c0-0.17-0.07-0.25-0.2-0.25l-0.07 0 0 0.7-0.42 0zm0.42-0.82l0.09 0c0.16 0 0.24-0.08 0.24-0.25 0-0.17-0.08-0.25-0.24-0.25l-0.09 0 0 0.5zm1.62-0.64l0.41 1.46-0.43 0-0.09-0.32-0.44 0-0.09 0.32-0.17 0 0.43-1.46 0.37 0zm-0.5 1l0.36 0-0.17-0.65-0.19 0.65zm2.05-1l0 0.15-0.36 0 0 1.31-0.45 0 0-1.31-0.36 0 0-0.15 1.17 0zm0.54 0l0 1.46-0.42 0 0-1.46 0.42 0zm1.32 0l0 1.46-0.32 0-0.61-0.92 0 0.92-0.14 0 0-1.46 0.27 0 0.67 1 0-1 0.14 0zm0.82 0.67l0.6 0 0 0.79-0.13 0-0.05-0.1c-0.12 0.08-0.24 0.12-0.37 0.12-0.22 0-0.38-0.06-0.5-0.19-0.12-0.13-0.18-0.31-0.18-0.55 0-0.23 0.06-0.41 0.19-0.56 0.13-0.14 0.29-0.21 0.5-0.21 0.27 0 0.43 0.14 0.49 0.41l-0.2 0.09 0-0.04 0-0.08c-0.01-0.17-0.09-0.26-0.24-0.26-0.11 0-0.18 0.05-0.22 0.14-0.04 0.09-0.06 0.26-0.06 0.51 0 0.23 0.02 0.39 0.05 0.47 0.03 0.08 0.09 0.13 0.18 0.13 0.1 0 0.16-0.06 0.16-0.18l0-0.36-0.21 0 0-0.15zm-5.27 10.02l-0.23 0 0 0.44-0.6 0 0-0.44-0.78 0 0-0.26 0.98-1.4 0.4 0 0 1.42 0.23 0 0 0.24zm-1.34-0.24l0.52 0 0-0.8-0.52 0.8zm1.97 0.16c0.18 0 0.27 0.09 0.27 0.27 0 0.18-0.09 0.27-0.27 0.27-0.18 0-0.27-0.09-0.27-0.27 0-0.18 0.09-0.27 0.27-0.27zm2.08-1.59l-0.08 0.44-0.99 0-0.08 0.45c0.17-0.11 0.34-0.17 0.52-0.17 0.22 0 0.4 0.06 0.54 0.19 0.14 0.13 0.21 0.29 0.21 0.49 0 0.22-0.08 0.4-0.24 0.53-0.16 0.13-0.37 0.2-0.64 0.2-0.48 0-0.73-0.17-0.73-0.5 0-0.05 0.01-0.11 0.02-0.18l0.27-0.06c-0.02 0.08-0.03 0.16-0.03 0.23 0 0.21 0.11 0.31 0.33 0.31 0.27 0 0.4-0.19 0.4-0.57 0-0.27-0.11-0.4-0.34-0.4-0.14 0-0.26 0.07-0.36 0.22l-0.24-0.06 0.2-1.13 1.23 0zm0.27 2.62l1.03-2.62 0.22 0-1.03 2.62-0.22 0zm3.01-2.62l-0.08 0.44-0.99 0-0.08 0.45c0.17-0.11 0.34-0.17 0.52-0.17 0.22 0 0.4 0.06 0.54 0.19 0.14 0.13 0.21 0.29 0.21 0.49 0 0.22-0.08 0.4-0.24 0.53-0.16 0.13-0.37 0.2-0.64 0.2-0.48 0-0.73-0.17-0.73-0.5 0-0.05 0.01-0.11 0.02-0.18l0.27-0.06c-0.02 0.08-0.03 0.16-0.03 0.23 0 0.21 0.11 0.31 0.33 0.31 0.27 0 0.4-0.19 0.4-0.57 0-0.27-0.11-0.4-0.34-0.4-0.14 0-0.26 0.07-0.36 0.22l-0.24-0.06 0.2-1.13 1.23 0zm-11.07 0.98l-0.11-0.15c0.04-0.01 0.07-0.02 0.09-0.03 0.14-0.07 0.17-0.19 0.08-0.36-0.07-0.13-0.15-0.18-0.25-0.13-0.07 0.04-0.1 0.14-0.07 0.32 0.05 0.34-0.03 0.56-0.22 0.66-0.12 0.06-0.23 0.06-0.34 0.02-0.11-0.05-0.2-0.14-0.27-0.27-0.15-0.3-0.11-0.51 0.12-0.63 0.02-0.01 0.04-0.02 0.07-0.03l0.12 0.15c-0.06 0.01-0.11 0.03-0.14 0.05-0.15 0.08-0.18 0.2-0.09 0.37 0.07 0.14 0.16 0.18 0.27 0.12 0.08-0.04 0.11-0.16 0.09-0.35-0.03-0.28 0.05-0.47 0.24-0.57 0.11-0.06 0.22-0.06 0.33-0.01 0.11 0.05 0.19 0.13 0.26 0.26 0.14 0.27 0.08 0.46-0.16 0.58zm0.98 0.81l-0.12 0.07-0.26-0.41-0.35 0.22 0.22 0.35-0.12 0.07-0.22-0.35-0.46 0.28 0.3 0.48-0.12 0.07-0.51-0.82 1.16-0.72 0.47 0.75zm-0.9 1l1.05-0.87 0.38 0.45c0.1 0.12 0.15 0.23 0.16 0.34 0.01 0.11-0.03 0.2-0.11 0.27-0.13 0.11-0.27 0.1-0.44-0.02 0.04 0.1 0.05 0.18 0.03 0.23-0.01 0.05-0.07 0.12-0.16 0.21-0.11 0.11-0.17 0.19-0.18 0.25l-0.28-0.33c0.03-0.06 0.08-0.12 0.16-0.18l0.06-0.05 0.08-0.07c0.12-0.1 0.14-0.2 0.06-0.3l-0.04-0.05-0.5 0.42-0.25-0.3zm0.84-0.19l0.05 0.06c0.1 0.11 0.21 0.12 0.33 0.02 0.12-0.1 0.13-0.21 0.04-0.32l-0.05-0.06-0.36 0.3zm1.79 0.87l-1.2 0.76-0.27-0.23 0.62-1.26 0.3 0.26-0.48 0.95 0.9-0.58 0.11 0.1zm0.43 0.24l-0.74 1.14-0.33-0.21 0.74-1.14 0.33 0.21zm0.67 1.3l0.13 0.12c-0.01 0.03-0.03 0.06-0.04 0.08-0.06 0.12-0.15 0.19-0.28 0.21-0.12 0.03-0.25 0-0.4-0.08-0.36-0.19-0.43-0.48-0.22-0.88 0.1-0.19 0.24-0.32 0.4-0.38 0.17-0.06 0.33-0.05 0.5 0.04 0.26 0.14 0.32 0.33 0.19 0.58l-0.19-0.01c0.02-0.03 0.04-0.06 0.05-0.08 0.09-0.18 0.07-0.3-0.07-0.38-0.15-0.08-0.33 0.07-0.53 0.44-0.17 0.32-0.17 0.53-0.01 0.62 0.07 0.04 0.14 0.04 0.22 0.01 0.08-0.03 0.14-0.09 0.18-0.17 0.01-0.03 0.03-0.07 0.05-0.12zm1.49-0.32l-0.04 0.13-0.46-0.16-0.13 0.39 0.39 0.13-0.04 0.13-0.39-0.13-0.18 0.51 0.54 0.18-0.04 0.13-0.92-0.31 0.45-1.28 0.84 0.29zm1.59 0.28l-0.02 0.13-0.48-0.07-0.06 0.41 0.41 0.06-0.02 0.13-0.41-0.06-0.08 0.53 0.57 0.08-0.02 0.13-0.96-0.13 0.19-1.34 0.88 0.12zm1.23-0.01l-0.34 0.59 0.46 0.76-0.44 0.02-0.28-0.47-0.27 0.49-0.18 0.01 0.36-0.63-0.44-0.72 0.44-0.02 0.26 0.43 0.25-0.45 0.17-0.01zm1.21 0.65l0.17 0.01c0.01 0.03 0.02 0.06 0.02 0.09 0.03 0.13 0 0.24-0.08 0.34-0.08 0.1-0.2 0.16-0.36 0.19-0.4 0.08-0.64-0.11-0.73-0.55-0.04-0.21-0.02-0.39 0.07-0.55 0.09-0.15 0.23-0.25 0.41-0.28 0.29-0.06 0.46 0.05 0.52 0.33l-0.15 0.11c-0.01-0.04-0.01-0.07-0.01-0.09-0.04-0.2-0.14-0.28-0.3-0.25-0.17 0.03-0.21 0.26-0.13 0.67 0.07 0.36 0.2 0.52 0.39 0.48 0.08-0.01 0.14-0.06 0.17-0.13 0.04-0.07 0.05-0.15 0.03-0.24-0.01-0.03-0.02-0.07-0.04-0.13zm1.05-1.11l0.04 0.13-0.47 0.13 0.11 0.39 0.4-0.11 0.04 0.13-0.4 0.11 0.15 0.52 0.55-0.16 0.04 0.13-0.93 0.26-0.38-1.3 0.85-0.24zm0.53-0.23l0.52 1.11 0.51-0.24 0.06 0.12-0.87 0.4-0.58-1.23 0.36-0.17zm0.91-0.46l0.67 1.02 0.47-0.3 0.07 0.11-0.8 0.52-0.74-1.14 0.33-0.21zm1.25-0.92l0.09 0.11-0.38 0.31 0.26 0.32 0.32-0.26 0.09 0.11-0.32 0.26 0.34 0.42 0.45-0.36 0.09 0.11-0.75 0.6-0.86-1.05 0.69-0.55zm0.82-0.87l1 0.92-0.21 0.22-1.02-0.17 0.63 0.59-0.09 0.1-1-0.92 0.17-0.18 1.11 0.18-0.68-0.63 0.09-0.1zm1.33-0.43l0.13-0.11c0.03 0.02 0.06 0.03 0.08 0.05 0.11 0.08 0.17 0.17 0.18 0.3 0.01 0.12-0.03 0.25-0.12 0.38-0.23 0.33-0.54 0.36-0.91 0.1-0.18-0.12-0.29-0.27-0.33-0.44-0.04-0.17-0.01-0.34 0.1-0.49 0.17-0.24 0.37-0.28 0.6-0.12l-0.03 0.18c-0.03-0.02-0.06-0.04-0.07-0.06-0.17-0.11-0.29-0.11-0.39 0.02-0.1 0.14 0.03 0.33 0.38 0.57 0.3 0.21 0.51 0.24 0.62 0.08 0.05-0.06 0.06-0.13 0.04-0.21-0.02-0.08-0.07-0.14-0.15-0.2-0.02-0.02-0.06-0.04-0.12-0.06zm-0.11-1.52l0.12 0.06-0.22 0.43 0.37 0.19 0.19-0.36 0.12 0.06-0.19 0.36 0.48 0.24 0.26-0.51 0.12 0.06-0.44 0.86-1.22-0.62 0.4-0.78z"/></svg>